<mxfile host="www.draw.io" modified="2020-05-01T05:25:46.149Z" agent="5.0 (X11)" etag="mbcglQVuPm5WLJBrIL74" version="13.0.2" type="github" pages="12">
  <diagram id="rwsDpPcG-9lv_OZG9mr8" name="f5n_network">
    <mxGraphModel dx="797" dy="481" grid="0" gridSize="10" guides="1" tooltips="1" connect="1" arrows="1" fold="1" page="1" pageScale="1" pageWidth="850" pageHeight="1100" math="0" shadow="0">
      <root>
        <mxCell id="0" />
        <mxCell id="1" parent="0" />
        <mxCell id="eR64O44cKoqNmbmQNhdG-1" style="edgeStyle=orthogonalEdgeStyle;rounded=0;orthogonalLoop=1;jettySize=auto;html=1;exitX=1;exitY=0.5;exitDx=0;exitDy=0;entryX=0;entryY=0.5;entryDx=0;entryDy=0;" parent="1" source="eR64O44cKoqNmbmQNhdG-2" target="eR64O44cKoqNmbmQNhdG-4" edge="1">
          <mxGeometry relative="1" as="geometry" />
        </mxCell>
        <mxCell id="eR64O44cKoqNmbmQNhdG-2" value="minION" style="rounded=0;whiteSpace=wrap;html=1;" parent="1" vertex="1">
          <mxGeometry x="150" y="110" width="120" height="60" as="geometry" />
        </mxCell>
        <mxCell id="eR64O44cKoqNmbmQNhdG-3" style="edgeStyle=orthogonalEdgeStyle;rounded=0;orthogonalLoop=1;jettySize=auto;html=1;exitX=1;exitY=0.5;exitDx=0;exitDy=0;entryX=0;entryY=0.5;entryDx=0;entryDy=0;" parent="1" source="eR64O44cKoqNmbmQNhdG-4" target="eR64O44cKoqNmbmQNhdG-7" edge="1">
          <mxGeometry relative="1" as="geometry">
            <Array as="points">
              <mxPoint x="550" y="140" />
              <mxPoint x="550" y="140" />
            </Array>
          </mxGeometry>
        </mxCell>
        <mxCell id="eR64O44cKoqNmbmQNhdG-4" value="minIT" style="rounded=0;whiteSpace=wrap;html=1;" parent="1" vertex="1">
          <mxGeometry x="390" y="110" width="120" height="60" as="geometry" />
        </mxCell>
        <mxCell id="eR64O44cKoqNmbmQNhdG-5" style="edgeStyle=none;rounded=0;orthogonalLoop=1;jettySize=auto;html=1;exitX=0.75;exitY=1;exitDx=0;exitDy=0;entryX=0.75;entryY=0;entryDx=0;entryDy=0;" parent="1" source="eR64O44cKoqNmbmQNhdG-7" target="eR64O44cKoqNmbmQNhdG-10" edge="1">
          <mxGeometry relative="1" as="geometry" />
        </mxCell>
        <mxCell id="eR64O44cKoqNmbmQNhdG-6" value="download dataset" style="text;html=1;resizable=0;points=[];align=center;verticalAlign=middle;labelBackgroundColor=#ffffff;" parent="eR64O44cKoqNmbmQNhdG-5" vertex="1" connectable="0">
          <mxGeometry x="-0.1338" y="-1" relative="1" as="geometry">
            <mxPoint y="-1" as="offset" />
          </mxGeometry>
        </mxCell>
        <mxCell id="eR64O44cKoqNmbmQNhdG-7" value="F5N-server" style="rounded=0;whiteSpace=wrap;html=1;" parent="1" vertex="1">
          <mxGeometry x="600" y="110" width="120" height="60" as="geometry" />
        </mxCell>
        <mxCell id="eR64O44cKoqNmbmQNhdG-8" style="edgeStyle=none;rounded=0;orthogonalLoop=1;jettySize=auto;html=1;exitX=0.25;exitY=0;exitDx=0;exitDy=0;entryX=0.25;entryY=1;entryDx=0;entryDy=0;" parent="1" source="eR64O44cKoqNmbmQNhdG-10" target="eR64O44cKoqNmbmQNhdG-7" edge="1">
          <mxGeometry relative="1" as="geometry" />
        </mxCell>
        <mxCell id="eR64O44cKoqNmbmQNhdG-9" value="request a job" style="text;html=1;resizable=0;points=[];align=center;verticalAlign=middle;labelBackgroundColor=#ffffff;" parent="eR64O44cKoqNmbmQNhdG-8" vertex="1" connectable="0">
          <mxGeometry x="-0.1508" y="-2" relative="1" as="geometry">
            <mxPoint as="offset" />
          </mxGeometry>
        </mxCell>
        <mxCell id="eR64O44cKoqNmbmQNhdG-10" value="mobile 1" style="rounded=0;whiteSpace=wrap;html=1;" parent="1" vertex="1">
          <mxGeometry x="320" y="330" width="120" height="60" as="geometry" />
        </mxCell>
        <mxCell id="eR64O44cKoqNmbmQNhdG-11" style="edgeStyle=none;rounded=0;orthogonalLoop=1;jettySize=auto;html=1;exitX=0.5;exitY=0;exitDx=0;exitDy=0;entryX=0.981;entryY=1.055;entryDx=0;entryDy=0;entryPerimeter=0;strokeColor=none;" parent="1" source="eR64O44cKoqNmbmQNhdG-12" target="eR64O44cKoqNmbmQNhdG-7" edge="1">
          <mxGeometry relative="1" as="geometry" />
        </mxCell>
        <mxCell id="eR64O44cKoqNmbmQNhdG-12" value="mobile n" style="rounded=0;whiteSpace=wrap;html=1;" parent="1" vertex="1">
          <mxGeometry x="690" y="330" width="120" height="60" as="geometry" />
        </mxCell>
        <mxCell id="eR64O44cKoqNmbmQNhdG-13" value="" style="endArrow=classic;startArrow=classic;html=1;entryX=0.844;entryY=1.055;entryDx=0;entryDy=0;entryPerimeter=0;exitX=0.5;exitY=0;exitDx=0;exitDy=0;" parent="1" source="eR64O44cKoqNmbmQNhdG-12" target="eR64O44cKoqNmbmQNhdG-7" edge="1">
          <mxGeometry width="50" height="50" relative="1" as="geometry">
            <mxPoint x="150" y="460" as="sourcePoint" />
            <mxPoint x="200" y="410" as="targetPoint" />
          </mxGeometry>
        </mxCell>
        <mxCell id="eR64O44cKoqNmbmQNhdG-14" value="" style="endArrow=none;dashed=1;html=1;entryX=0;entryY=0.5;entryDx=0;entryDy=0;exitX=1;exitY=0.5;exitDx=0;exitDy=0;" parent="1" source="eR64O44cKoqNmbmQNhdG-10" target="eR64O44cKoqNmbmQNhdG-12" edge="1">
          <mxGeometry width="50" height="50" relative="1" as="geometry">
            <mxPoint x="150" y="460" as="sourcePoint" />
            <mxPoint x="200" y="410" as="targetPoint" />
          </mxGeometry>
        </mxCell>
        <mxCell id="eR64O44cKoqNmbmQNhdG-15" value="run pipeline" style="shape=mxgraph.bpmn.loop;html=1;outlineConnect=0;" parent="1" vertex="1">
          <mxGeometry x="366" y="400" width="34" height="30" as="geometry" />
        </mxCell>
        <mxCell id="eR64O44cKoqNmbmQNhdG-16" value="create jobs" style="shape=mxgraph.bpmn.loop;html=1;outlineConnect=0;" parent="1" vertex="1">
          <mxGeometry x="734" y="125" width="34" height="30" as="geometry" />
        </mxCell>
        <mxCell id="eR64O44cKoqNmbmQNhdG-17" value=".....mobiles in the network....." style="text;html=1;resizable=0;points=[];autosize=1;align=left;verticalAlign=top;spacingTop=-4;" parent="1" vertex="1">
          <mxGeometry x="484" y="337" width="170" height="20" as="geometry" />
        </mxCell>
        <mxCell id="eR64O44cKoqNmbmQNhdG-18" value="raw signal data" style="text;html=1;resizable=0;points=[];autosize=1;align=left;verticalAlign=top;spacingTop=-4;" parent="1" vertex="1">
          <mxGeometry x="283" y="119" width="100" height="20" as="geometry" />
        </mxCell>
        <mxCell id="eR64O44cKoqNmbmQNhdG-19" value="computer that runs minIT may host the server as well" style="text;html=1;strokeColor=none;fillColor=none;align=center;verticalAlign=middle;whiteSpace=wrap;rounded=0;" parent="1" vertex="1">
          <mxGeometry x="410" y="60" width="290" height="20" as="geometry" />
        </mxCell>
        <mxCell id="eR64O44cKoqNmbmQNhdG-20" value="" style="endArrow=none;dashed=1;html=1;" parent="1" edge="1">
          <mxGeometry width="50" height="50" relative="1" as="geometry">
            <mxPoint x="339.9999999999998" y="199.9999999999999" as="sourcePoint" />
            <mxPoint x="339.9999999999998" y="69" as="targetPoint" />
          </mxGeometry>
        </mxCell>
        <mxCell id="eR64O44cKoqNmbmQNhdG-21" value="" style="endArrow=none;dashed=1;html=1;" parent="1" edge="1">
          <mxGeometry width="50" height="50" relative="1" as="geometry">
            <mxPoint x="779" y="201" as="sourcePoint" />
            <mxPoint x="779" y="69.99999999999989" as="targetPoint" />
          </mxGeometry>
        </mxCell>
        <mxCell id="eR64O44cKoqNmbmQNhdG-22" value="" style="endArrow=none;dashed=1;html=1;" parent="1" edge="1">
          <mxGeometry width="50" height="50" relative="1" as="geometry">
            <mxPoint x="339.9999999999998" y="199.9999999999999" as="sourcePoint" />
            <mxPoint x="779.9999999999998" y="199.9999999999999" as="targetPoint" />
          </mxGeometry>
        </mxCell>
        <mxCell id="eR64O44cKoqNmbmQNhdG-23" value="" style="endArrow=none;dashed=1;html=1;" parent="1" target="eR64O44cKoqNmbmQNhdG-19" edge="1">
          <mxGeometry width="50" height="50" relative="1" as="geometry">
            <mxPoint x="339.9999999999998" y="69.99999999999989" as="sourcePoint" />
            <mxPoint x="390" y="70" as="targetPoint" />
          </mxGeometry>
        </mxCell>
        <mxCell id="eR64O44cKoqNmbmQNhdG-24" value="" style="endArrow=none;dashed=1;html=1;" parent="1" source="eR64O44cKoqNmbmQNhdG-19" edge="1">
          <mxGeometry width="50" height="50" relative="1" as="geometry">
            <mxPoint x="350" y="80" as="sourcePoint" />
            <mxPoint x="779.9999999999998" y="69.99999999999989" as="targetPoint" />
          </mxGeometry>
        </mxCell>
        <mxCell id="eR64O44cKoqNmbmQNhdG-25" value="&lt;div&gt;mobile can run the pipeline in real time or when it is idle &lt;br&gt;&lt;/div&gt;&lt;div&gt;ex:when charging&lt;/div&gt;" style="text;html=1;strokeColor=none;fillColor=none;align=center;verticalAlign=middle;whiteSpace=wrap;rounded=0;" parent="1" vertex="1">
          <mxGeometry x="400" y="430" width="350" height="20" as="geometry" />
        </mxCell>
        <mxCell id="eR64O44cKoqNmbmQNhdG-26" value="a pair at a time&lt;br&gt;&lt;div&gt;(fast5,fastq)&lt;br&gt;&lt;/div&gt;" style="text;html=1;resizable=0;points=[];autosize=1;align=left;verticalAlign=top;spacingTop=-4;" parent="1" vertex="1">
          <mxGeometry x="512" y="121" width="90" height="28" as="geometry" />
        </mxCell>
      </root>
    </mxGraphModel>
  </diagram>
  <diagram id="xXr-k5nbuz4WcY0yeC-U" name="f5n_flow_chart">
    
    <mxGraphModel dx="811" dy="495" grid="1" gridSize="10" guides="1" tooltips="1" connect="1" arrows="1" fold="1" page="1" pageScale="1" pageWidth="850" pageHeight="1100" math="0" shadow="0">
      
      <root>
        
        <mxCell id="0ap0NxwxWkgAkii95-62-0" />
        
        <mxCell id="0ap0NxwxWkgAkii95-62-1" parent="0ap0NxwxWkgAkii95-62-0" />
        
        <mxCell id="0ap0NxwxWkgAkii95-62-2" value="Start" style="ellipse;whiteSpace=wrap;html=1;" parent="0ap0NxwxWkgAkii95-62-1" vertex="1">
          
          <mxGeometry x="371" y="60" width="90" height="40" as="geometry" />
          
        </mxCell>
        
        <mxCell id="0ap0NxwxWkgAkii95-62-59" style="edgeStyle=orthogonalEdgeStyle;orthogonalLoop=1;jettySize=auto;html=1;exitX=0;exitY=0.5;exitDx=0;exitDy=0;entryX=0.446;entryY=0.016;entryDx=0;entryDy=0;entryPerimeter=0;rounded=1;" parent="0ap0NxwxWkgAkii95-62-1" source="0ap0NxwxWkgAkii95-62-3" target="0ap0NxwxWkgAkii95-62-4" edge="1">
          
          <mxGeometry relative="1" as="geometry" />
          
        </mxCell>
        
        <mxCell id="0ap0NxwxWkgAkii95-62-67" style="edgeStyle=orthogonalEdgeStyle;rounded=1;orthogonalLoop=1;jettySize=auto;html=1;exitX=1;exitY=0.5;exitDx=0;exitDy=0;entryX=0.5;entryY=0;entryDx=0;entryDy=0;" parent="0ap0NxwxWkgAkii95-62-1" source="0ap0NxwxWkgAkii95-62-3" target="0ap0NxwxWkgAkii95-62-28" edge="1">
          
          <mxGeometry relative="1" as="geometry" />
          
        </mxCell>
        
        <mxCell id="0ap0NxwxWkgAkii95-62-3" value="&lt;div&gt;Selcet&lt;/div&gt;&lt;div&gt;mode&lt;/div&gt;" style="rhombus;whiteSpace=wrap;html=1;" parent="0ap0NxwxWkgAkii95-62-1" vertex="1">
          
          <mxGeometry x="376" y="140" width="80" height="80" as="geometry" />
          
        </mxCell>
        
        <mxCell id="0ap0NxwxWkgAkii95-62-4" value="Show pipeline GUI to&lt;br&gt;select steps" style="shape=parallelogram;perimeter=parallelogramPerimeter;whiteSpace=wrap;html=1;" parent="0ap0NxwxWkgAkii95-62-1" vertex="1">
          
          <mxGeometry x="159.5" y="225" width="190" height="60" as="geometry" />
          
        </mxCell>
        
        <mxCell id="0ap0NxwxWkgAkii95-62-5" value="Create Pipeline Object" style="rounded=0;whiteSpace=wrap;html=1;" parent="0ap0NxwxWkgAkii95-62-1" vertex="1">
          
          <mxGeometry x="183.5" y="325" width="120" height="60" as="geometry" />
          
        </mxCell>
        
        <mxCell id="0ap0NxwxWkgAkii95-62-6" value="Show configuration for&lt;br&gt;step" style="shape=parallelogram;perimeter=parallelogramPerimeter;whiteSpace=wrap;html=1;" parent="0ap0NxwxWkgAkii95-62-1" vertex="1">
          
          <mxGeometry x="153.5" y="425" width="180" height="60" as="geometry" />
          
        </mxCell>
        
        <mxCell id="0ap0NxwxWkgAkii95-62-7" value="Update Pipeline Object" style="rounded=0;whiteSpace=wrap;html=1;" parent="0ap0NxwxWkgAkii95-62-1" vertex="1">
          
          <mxGeometry x="183.5" y="525" width="120" height="60" as="geometry" />
          
        </mxCell>
        
        <mxCell id="0ap0NxwxWkgAkii95-62-8" value="" style="endArrow=classic;html=1;exitX=0.441;exitY=1.03;exitDx=0;exitDy=0;exitPerimeter=0;entryX=0.5;entryY=0;entryDx=0;entryDy=0;" parent="0ap0NxwxWkgAkii95-62-1" source="0ap0NxwxWkgAkii95-62-4" target="0ap0NxwxWkgAkii95-62-5" edge="1">
          
          <mxGeometry width="50" height="50" relative="1" as="geometry">
            
            <mxPoint x="343.5" y="305" as="sourcePoint" />
            
            <mxPoint x="393.5" y="255" as="targetPoint" />
            
          </mxGeometry>
          
        </mxCell>
        
        <mxCell id="0ap0NxwxWkgAkii95-62-9" value="" style="endArrow=classic;html=1;exitX=0.5;exitY=1;exitDx=0;exitDy=0;entryX=0.5;entryY=0;entryDx=0;entryDy=0;" parent="0ap0NxwxWkgAkii95-62-1" source="0ap0NxwxWkgAkii95-62-5" target="0ap0NxwxWkgAkii95-62-6" edge="1">
          
          <mxGeometry width="50" height="50" relative="1" as="geometry">
            
            <mxPoint x="253.28999999999996" y="296.79999999999995" as="sourcePoint" />
            
            <mxPoint x="253.5" y="335" as="targetPoint" />
            
          </mxGeometry>
          
        </mxCell>
        
        <mxCell id="0ap0NxwxWkgAkii95-62-10" value="" style="endArrow=classic;html=1;exitX=0.5;exitY=1;exitDx=0;exitDy=0;entryX=0.5;entryY=0;entryDx=0;entryDy=0;" parent="0ap0NxwxWkgAkii95-62-1" source="0ap0NxwxWkgAkii95-62-6" target="0ap0NxwxWkgAkii95-62-7" edge="1">
          
          <mxGeometry width="50" height="50" relative="1" as="geometry">
            
            <mxPoint x="253.5" y="395" as="sourcePoint" />
            
            <mxPoint x="253.5" y="435" as="targetPoint" />
            
          </mxGeometry>
          
        </mxCell>
        
        <mxCell id="0ap0NxwxWkgAkii95-62-71" style="edgeStyle=orthogonalEdgeStyle;rounded=1;orthogonalLoop=1;jettySize=auto;html=1;exitX=0.5;exitY=1;exitDx=0;exitDy=0;entryX=0;entryY=0.5;entryDx=0;entryDy=0;" parent="0ap0NxwxWkgAkii95-62-1" source="0ap0NxwxWkgAkii95-62-12" target="0ap0NxwxWkgAkii95-62-61" edge="1">
          
          <mxGeometry relative="1" as="geometry">
            
            <Array as="points">
              
              <mxPoint x="244" y="724" />
              
              <mxPoint x="440" y="724" />
              
              <mxPoint x="440" y="494" />
              
            </Array>
            
          </mxGeometry>
          
        </mxCell>
        
        <mxCell id="0ap0NxwxWkgAkii95-62-72" style="edgeStyle=orthogonalEdgeStyle;rounded=1;orthogonalLoop=1;jettySize=auto;html=1;exitX=1;exitY=0.5;exitDx=0;exitDy=0;entryX=1;entryY=0.5;entryDx=0;entryDy=0;" parent="0ap0NxwxWkgAkii95-62-1" source="0ap0NxwxWkgAkii95-62-12" target="0ap0NxwxWkgAkii95-62-6" edge="1">
          
          <mxGeometry relative="1" as="geometry">
            
            <Array as="points">
              
              <mxPoint x="340" y="660" />
              
              <mxPoint x="340" y="454" />
              
            </Array>
            
          </mxGeometry>
          
        </mxCell>
        
        <mxCell id="0ap0NxwxWkgAkii95-62-12" value="all steps configured?" style="rhombus;whiteSpace=wrap;html=1;" parent="0ap0NxwxWkgAkii95-62-1" vertex="1">
          
          <mxGeometry x="193.5" y="615" width="100" height="90" as="geometry" />
          
        </mxCell>
        
        <mxCell id="0ap0NxwxWkgAkii95-62-16" value="" style="endArrow=classic;html=1;exitX=0.5;exitY=1;exitDx=0;exitDy=0;entryX=0.5;entryY=0;entryDx=0;entryDy=0;" parent="0ap0NxwxWkgAkii95-62-1" source="0ap0NxwxWkgAkii95-62-7" target="0ap0NxwxWkgAkii95-62-12" edge="1">
          
          <mxGeometry width="50" height="50" relative="1" as="geometry">
            
            <mxPoint x="253.5" y="495" as="sourcePoint" />
            
            <mxPoint x="253.5" y="535" as="targetPoint" />
            
          </mxGeometry>
          
        </mxCell>
        
        <mxCell id="0ap0NxwxWkgAkii95-62-23" value="" style="endArrow=classic;html=1;entryX=0.5;entryY=0;entryDx=0;entryDy=0;exitX=0.5;exitY=1;exitDx=0;exitDy=0;" parent="0ap0NxwxWkgAkii95-62-1" source="0ap0NxwxWkgAkii95-62-2" target="0ap0NxwxWkgAkii95-62-3" edge="1">
          
          <mxGeometry width="50" height="50" relative="1" as="geometry">
            
            <mxPoint x="150" y="180" as="sourcePoint" />
            
            <mxPoint x="200" y="130" as="targetPoint" />
            
          </mxGeometry>
          
        </mxCell>
        
        <mxCell id="0ap0NxwxWkgAkii95-62-65" style="edgeStyle=orthogonalEdgeStyle;rounded=1;orthogonalLoop=1;jettySize=auto;html=1;exitX=0.5;exitY=1;exitDx=0;exitDy=0;entryX=0.5;entryY=0;entryDx=0;entryDy=0;" parent="0ap0NxwxWkgAkii95-62-1" source="0ap0NxwxWkgAkii95-62-28" target="0ap0NxwxWkgAkii95-62-60" edge="1">
          
          <mxGeometry relative="1" as="geometry" />
          
        </mxCell>
        
        <mxCell id="0ap0NxwxWkgAkii95-62-28" value="Show network configuration" style="shape=rectangle;perimeter=parallelogramPerimeter;whiteSpace=wrap;html=1;" parent="0ap0NxwxWkgAkii95-62-1" vertex="1">
          
          <mxGeometry x="525.5" y="240" width="120" height="60" as="geometry" />
          
        </mxCell>
        
        <mxCell id="0ap0NxwxWkgAkii95-62-49" value="run as standalone" style="text;html=1;strokeColor=none;fillColor=none;align=center;verticalAlign=middle;whiteSpace=wrap;rounded=0;" parent="0ap0NxwxWkgAkii95-62-1" vertex="1">
          
          <mxGeometry x="254.5" y="160" width="110" height="20" as="geometry" />
          
        </mxCell>
        
        <mxCell id="0ap0NxwxWkgAkii95-62-51" value="connect to F5N-server" style="text;html=1;strokeColor=none;fillColor=none;align=center;verticalAlign=middle;whiteSpace=wrap;rounded=0;" parent="0ap0NxwxWkgAkii95-62-1" vertex="1">
          
          <mxGeometry x="463" y="161" width="127" height="20" as="geometry" />
          
        </mxCell>
        
        <mxCell id="0ap0NxwxWkgAkii95-62-57" value="no" style="text;html=1;strokeColor=none;fillColor=none;align=center;verticalAlign=middle;whiteSpace=wrap;rounded=0;" parent="0ap0NxwxWkgAkii95-62-1" vertex="1">
          
          <mxGeometry x="332.5" y="545" width="40" height="20" as="geometry" />
          
        </mxCell>
        
        <mxCell id="0ap0NxwxWkgAkii95-62-58" value="yes" style="text;html=1;strokeColor=none;fillColor=none;align=center;verticalAlign=middle;whiteSpace=wrap;rounded=0;" parent="0ap0NxwxWkgAkii95-62-1" vertex="1">
          
          <mxGeometry x="267.5" y="705" width="40" height="20" as="geometry" />
          
        </mxCell>
        
        <mxCell id="0ap0NxwxWkgAkii95-62-68" style="edgeStyle=orthogonalEdgeStyle;rounded=1;orthogonalLoop=1;jettySize=auto;html=1;exitX=0.5;exitY=1;exitDx=0;exitDy=0;entryX=0.5;entryY=0;entryDx=0;entryDy=0;" parent="0ap0NxwxWkgAkii95-62-1" source="0ap0NxwxWkgAkii95-62-60" target="0ap0NxwxWkgAkii95-62-61" edge="1">
          
          <mxGeometry relative="1" as="geometry" />
          
        </mxCell>
        
        <mxCell id="0ap0NxwxWkgAkii95-62-60" value="Wait for the pipeline object" style="rounded=0;whiteSpace=wrap;html=1;" parent="0ap0NxwxWkgAkii95-62-1" vertex="1">
          
          <mxGeometry x="525.5" y="360" width="120" height="60" as="geometry" />
          
        </mxCell>
        
        <mxCell id="0ap0NxwxWkgAkii95-62-69" style="edgeStyle=orthogonalEdgeStyle;rounded=1;orthogonalLoop=1;jettySize=auto;html=1;exitX=0.5;exitY=1;exitDx=0;exitDy=0;entryX=0.5;entryY=0;entryDx=0;entryDy=0;" parent="0ap0NxwxWkgAkii95-62-1" source="0ap0NxwxWkgAkii95-62-61" target="0ap0NxwxWkgAkii95-62-62" edge="1">
          
          <mxGeometry relative="1" as="geometry" />
          
        </mxCell>
        
        <mxCell id="0ap0NxwxWkgAkii95-62-61" value="Execute the selected steps" style="rounded=0;whiteSpace=wrap;html=1;" parent="0ap0NxwxWkgAkii95-62-1" vertex="1">
          
          <mxGeometry x="525.5" y="465" width="120" height="60" as="geometry" />
          
        </mxCell>
        
        <mxCell id="0ap0NxwxWkgAkii95-62-70" style="edgeStyle=orthogonalEdgeStyle;rounded=1;orthogonalLoop=1;jettySize=auto;html=1;exitX=0.5;exitY=1;exitDx=0;exitDy=0;entryX=0.5;entryY=0;entryDx=0;entryDy=0;" parent="0ap0NxwxWkgAkii95-62-1" source="0ap0NxwxWkgAkii95-62-62" target="0ap0NxwxWkgAkii95-62-63" edge="1">
          
          <mxGeometry relative="1" as="geometry" />
          
        </mxCell>
        
        <mxCell id="0ap0NxwxWkgAkii95-62-62" value="Show the output" style="shape=parallelogram;perimeter=parallelogramPerimeter;whiteSpace=wrap;html=1;" parent="0ap0NxwxWkgAkii95-62-1" vertex="1">
          
          <mxGeometry x="525.5" y="565" width="120" height="60" as="geometry" />
          
        </mxCell>
        
        <mxCell id="0ap0NxwxWkgAkii95-62-63" value="Stop" style="ellipse;whiteSpace=wrap;html=1;" parent="0ap0NxwxWkgAkii95-62-1" vertex="1">
          
          <mxGeometry x="545.5" y="665" width="80" height="40" as="geometry" />
          
        </mxCell>
        
      </root>
      
    </mxGraphModel>
    
  </diagram>
  <diagram name="simplified_f5n_flow_chart" id="zOMHHHNqW5Dg863UlSJU">
    
    <mxGraphModel dx="811" dy="495" grid="0" gridSize="10" guides="1" tooltips="1" connect="1" arrows="1" fold="1" page="1" pageScale="1" pageWidth="850" pageHeight="1100" math="0" shadow="0">
      
      <root>
        
        <mxCell id="it7qOatfTrDok7u9qXRs-0" />
        
        <mxCell id="it7qOatfTrDok7u9qXRs-1" parent="it7qOatfTrDok7u9qXRs-0" />
        
        <mxCell id="it7qOatfTrDok7u9qXRs-2" value="Start" style="ellipse;whiteSpace=wrap;html=1;" parent="it7qOatfTrDok7u9qXRs-1" vertex="1">
          
          <mxGeometry x="371" y="84" width="90" height="40" as="geometry" />
          
        </mxCell>
        
        <mxCell id="it7qOatfTrDok7u9qXRs-3" style="edgeStyle=orthogonalEdgeStyle;orthogonalLoop=1;jettySize=auto;html=1;exitX=0;exitY=0.5;exitDx=0;exitDy=0;entryX=0.5;entryY=0;entryDx=0;entryDy=0;rounded=1;" parent="it7qOatfTrDok7u9qXRs-1" source="it7qOatfTrDok7u9qXRs-5" target="it7qOatfTrDok7u9qXRs-6" edge="1">
          
          <mxGeometry relative="1" as="geometry" />
          
        </mxCell>
        
        <mxCell id="it7qOatfTrDok7u9qXRs-4" style="edgeStyle=orthogonalEdgeStyle;rounded=1;orthogonalLoop=1;jettySize=auto;html=1;exitX=1;exitY=0.5;exitDx=0;exitDy=0;entryX=0.5;entryY=0;entryDx=0;entryDy=0;" parent="it7qOatfTrDok7u9qXRs-1" source="it7qOatfTrDok7u9qXRs-5" target="it7qOatfTrDok7u9qXRs-19" edge="1">
          
          <mxGeometry relative="1" as="geometry" />
          
        </mxCell>
        
        <mxCell id="it7qOatfTrDok7u9qXRs-5" value="&lt;div&gt;Selcet&lt;/div&gt;&lt;div&gt;mode&lt;/div&gt;" style="rhombus;whiteSpace=wrap;html=1;" parent="it7qOatfTrDok7u9qXRs-1" vertex="1">
          
          <mxGeometry x="376" y="140" width="80" height="80" as="geometry" />
          
        </mxCell>
        
        <mxCell id="it7qOatfTrDok7u9qXRs-45" style="edgeStyle=orthogonalEdgeStyle;rounded=1;orthogonalLoop=1;jettySize=auto;html=1;exitX=0.5;exitY=1;exitDx=0;exitDy=0;entryX=0.5;entryY=0;entryDx=0;entryDy=0;" parent="it7qOatfTrDok7u9qXRs-1" source="it7qOatfTrDok7u9qXRs-6" target="it7qOatfTrDok7u9qXRs-8" edge="1">
          
          <mxGeometry relative="1" as="geometry" />
          
        </mxCell>
        
        <mxCell id="it7qOatfTrDok7u9qXRs-6" value="&lt;div&gt;Show pipeline GUI&lt;/div&gt;&lt;div&gt;to select steps&lt;/div&gt;" style="shape=parallelogram;perimeter=parallelogramPerimeter;whiteSpace=wrap;html=1;" parent="it7qOatfTrDok7u9qXRs-1" vertex="1">
          
          <mxGeometry x="249.5" y="213" width="150" height="60" as="geometry" />
          
        </mxCell>
        
        <mxCell id="it7qOatfTrDok7u9qXRs-31" style="edgeStyle=orthogonalEdgeStyle;rounded=0;orthogonalLoop=1;jettySize=auto;html=1;exitX=0.5;exitY=1;exitDx=0;exitDy=0;entryX=0.5;entryY=0;entryDx=0;entryDy=0;" parent="it7qOatfTrDok7u9qXRs-1" source="it7qOatfTrDok7u9qXRs-8" target="it7qOatfTrDok7u9qXRs-15" edge="1">
          
          <mxGeometry relative="1" as="geometry" />
          
        </mxCell>
        
        <mxCell id="it7qOatfTrDok7u9qXRs-8" value="&lt;div&gt;Show configuration&lt;/div&gt;&lt;div&gt;for step&lt;/div&gt;" style="shape=parallelogram;perimeter=parallelogramPerimeter;whiteSpace=wrap;html=1;" parent="it7qOatfTrDok7u9qXRs-1" vertex="1">
          
          <mxGeometry x="249.5" y="293.5" width="150" height="60" as="geometry" />
          
        </mxCell>
        
        <mxCell id="it7qOatfTrDok7u9qXRs-42" style="edgeStyle=orthogonalEdgeStyle;rounded=1;orthogonalLoop=1;jettySize=auto;html=1;exitX=0.5;exitY=1;exitDx=0;exitDy=0;entryX=0.5;entryY=0;entryDx=0;entryDy=0;" parent="it7qOatfTrDok7u9qXRs-1" source="it7qOatfTrDok7u9qXRs-15" target="it7qOatfTrDok7u9qXRs-41" edge="1">
          
          <mxGeometry relative="1" as="geometry" />
          
        </mxCell>
        
        <mxCell id="it7qOatfTrDok7u9qXRs-49" style="edgeStyle=orthogonalEdgeStyle;rounded=0;orthogonalLoop=1;jettySize=auto;html=1;exitX=0;exitY=0.5;exitDx=0;exitDy=0;entryX=0;entryY=0.5;entryDx=0;entryDy=0;" parent="it7qOatfTrDok7u9qXRs-1" source="it7qOatfTrDok7u9qXRs-15" target="it7qOatfTrDok7u9qXRs-8" edge="1">
          
          <mxGeometry relative="1" as="geometry">
            
            <Array as="points">
              
              <mxPoint x="243" y="422" />
              
              <mxPoint x="243" y="324" />
              
            </Array>
            
          </mxGeometry>
          
        </mxCell>
        
        <mxCell id="it7qOatfTrDok7u9qXRs-15" value="all steps configured?" style="rhombus;whiteSpace=wrap;html=1;" parent="it7qOatfTrDok7u9qXRs-1" vertex="1">
          
          <mxGeometry x="274.5" y="377" width="100" height="90" as="geometry" />
          
        </mxCell>
        
        <mxCell id="it7qOatfTrDok7u9qXRs-17" value="" style="endArrow=classic;html=1;entryX=0.5;entryY=0;entryDx=0;entryDy=0;exitX=0.5;exitY=1;exitDx=0;exitDy=0;" parent="it7qOatfTrDok7u9qXRs-1" source="it7qOatfTrDok7u9qXRs-2" target="it7qOatfTrDok7u9qXRs-5" edge="1">
          
          <mxGeometry width="50" height="50" relative="1" as="geometry">
            
            <mxPoint x="150" y="180" as="sourcePoint" />
            
            <mxPoint x="200" y="130" as="targetPoint" />
            
          </mxGeometry>
          
        </mxCell>
        
        <mxCell id="it7qOatfTrDok7u9qXRs-18" style="edgeStyle=orthogonalEdgeStyle;rounded=1;orthogonalLoop=1;jettySize=auto;html=1;exitX=0.5;exitY=1;exitDx=0;exitDy=0;entryX=0.5;entryY=0;entryDx=0;entryDy=0;" parent="it7qOatfTrDok7u9qXRs-1" source="it7qOatfTrDok7u9qXRs-19" target="it7qOatfTrDok7u9qXRs-25" edge="1">
          
          <mxGeometry relative="1" as="geometry" />
          
        </mxCell>
        
        <mxCell id="it7qOatfTrDok7u9qXRs-19" value="Show network configuration" style="shape=parallelogram;perimeter=parallelogramPerimeter;whiteSpace=wrap;html=1;" parent="it7qOatfTrDok7u9qXRs-1" vertex="1">
          
          <mxGeometry x="416" y="213" width="120" height="60" as="geometry" />
          
        </mxCell>
        
        <mxCell id="it7qOatfTrDok7u9qXRs-20" value="run as standalone" style="text;html=1;strokeColor=none;fillColor=none;align=center;verticalAlign=middle;whiteSpace=wrap;rounded=0;" parent="it7qOatfTrDok7u9qXRs-1" vertex="1">
          
          <mxGeometry x="254.5" y="160" width="110" height="20" as="geometry" />
          
        </mxCell>
        
        <mxCell id="it7qOatfTrDok7u9qXRs-21" value="connect to F5N-server" style="text;html=1;strokeColor=none;fillColor=none;align=center;verticalAlign=middle;whiteSpace=wrap;rounded=0;" parent="it7qOatfTrDok7u9qXRs-1" vertex="1">
          
          <mxGeometry x="463" y="161" width="127" height="20" as="geometry" />
          
        </mxCell>
        
        <mxCell id="it7qOatfTrDok7u9qXRs-23" value="yes" style="text;html=1;strokeColor=none;fillColor=none;align=center;verticalAlign=middle;whiteSpace=wrap;rounded=0;" parent="it7qOatfTrDok7u9qXRs-1" vertex="1">
          
          <mxGeometry x="304.5" y="494" width="40" height="20" as="geometry" />
          
        </mxCell>
        
        <mxCell id="it7qOatfTrDok7u9qXRs-24" style="edgeStyle=orthogonalEdgeStyle;rounded=1;orthogonalLoop=1;jettySize=auto;html=1;exitX=0.5;exitY=1;exitDx=0;exitDy=0;entryX=0.5;entryY=0;entryDx=0;entryDy=0;" parent="it7qOatfTrDok7u9qXRs-1" source="it7qOatfTrDok7u9qXRs-25" target="it7qOatfTrDok7u9qXRs-27" edge="1">
          
          <mxGeometry relative="1" as="geometry" />
          
        </mxCell>
        
        <mxCell id="it7qOatfTrDok7u9qXRs-25" value="Wait for the pipeline object" style="rounded=0;whiteSpace=wrap;html=1;" parent="it7qOatfTrDok7u9qXRs-1" vertex="1">
          
          <mxGeometry x="416" y="293.5" width="120" height="60" as="geometry" />
          
        </mxCell>
        
        <mxCell id="it7qOatfTrDok7u9qXRs-26" style="edgeStyle=orthogonalEdgeStyle;rounded=1;orthogonalLoop=1;jettySize=auto;html=1;exitX=0.5;exitY=1;exitDx=0;exitDy=0;entryX=0.5;entryY=0;entryDx=0;entryDy=0;" parent="it7qOatfTrDok7u9qXRs-1" source="it7qOatfTrDok7u9qXRs-27" target="it7qOatfTrDok7u9qXRs-29" edge="1">
          
          <mxGeometry relative="1" as="geometry" />
          
        </mxCell>
        
        <mxCell id="it7qOatfTrDok7u9qXRs-27" value="Execute the selected steps" style="rounded=0;whiteSpace=wrap;html=1;" parent="it7qOatfTrDok7u9qXRs-1" vertex="1">
          
          <mxGeometry x="416" y="372" width="120" height="60" as="geometry" />
          
        </mxCell>
        
        <mxCell id="it7qOatfTrDok7u9qXRs-28" style="edgeStyle=orthogonalEdgeStyle;rounded=1;orthogonalLoop=1;jettySize=auto;html=1;exitX=0.5;exitY=1;exitDx=0;exitDy=0;entryX=0.5;entryY=0;entryDx=0;entryDy=0;" parent="it7qOatfTrDok7u9qXRs-1" source="it7qOatfTrDok7u9qXRs-29" target="it7qOatfTrDok7u9qXRs-30" edge="1">
          
          <mxGeometry relative="1" as="geometry" />
          
        </mxCell>
        
        <mxCell id="it7qOatfTrDok7u9qXRs-29" value="&lt;div&gt;Show/Send&lt;/div&gt;&lt;div&gt; output&lt;/div&gt;" style="shape=parallelogram;perimeter=parallelogramPerimeter;whiteSpace=wrap;html=1;" parent="it7qOatfTrDok7u9qXRs-1" vertex="1">
          
          <mxGeometry x="416" y="454" width="120" height="60" as="geometry" />
          
        </mxCell>
        
        <mxCell id="it7qOatfTrDok7u9qXRs-30" value="Stop" style="ellipse;whiteSpace=wrap;html=1;" parent="it7qOatfTrDok7u9qXRs-1" vertex="1">
          
          <mxGeometry x="436" y="530" width="80" height="40" as="geometry" />
          
        </mxCell>
        
        <mxCell id="pSvAwORm_2kEAl2fpC8r-0" style="edgeStyle=orthogonalEdgeStyle;rounded=0;orthogonalLoop=1;jettySize=auto;html=1;exitX=1;exitY=0.5;exitDx=0;exitDy=0;entryX=0;entryY=0.5;entryDx=0;entryDy=0;" parent="it7qOatfTrDok7u9qXRs-1" source="it7qOatfTrDok7u9qXRs-41" target="it7qOatfTrDok7u9qXRs-27" edge="1">
          
          <mxGeometry relative="1" as="geometry">
            
            <Array as="points">
              
              <mxPoint x="396" y="514" />
              
              <mxPoint x="396" y="402" />
              
            </Array>
            
          </mxGeometry>
          
        </mxCell>
        
        <mxCell id="it7qOatfTrDok7u9qXRs-41" value="Create pipeline object" style="rounded=0;whiteSpace=wrap;html=1;" parent="it7qOatfTrDok7u9qXRs-1" vertex="1">
          
          <mxGeometry x="264.5" y="484" width="120" height="60" as="geometry" />
          
        </mxCell>
        
        <mxCell id="it7qOatfTrDok7u9qXRs-50" value="no" style="text;html=1;strokeColor=none;fillColor=none;align=center;verticalAlign=middle;whiteSpace=wrap;rounded=0;" parent="it7qOatfTrDok7u9qXRs-1" vertex="1">
          
          <mxGeometry x="212.5" y="388" width="40" height="20" as="geometry" />
          
        </mxCell>
        
      </root>
      
    </mxGraphModel>
    
  </diagram>
  <diagram name="only_standalone" id="44C2R7LJ3SM3mJRwq2Dk">
    
    <mxGraphModel dx="811" dy="495" grid="0" gridSize="10" guides="1" tooltips="1" connect="1" arrows="1" fold="1" page="1" pageScale="1" pageWidth="827" pageHeight="110" math="0" shadow="0">
      
      <root>
        
        <mxCell id="zulKE-3Q0ZFPJ0QVmKUc-0" />
        
        <mxCell id="zulKE-3Q0ZFPJ0QVmKUc-1" parent="zulKE-3Q0ZFPJ0QVmKUc-0" />
        
        <mxCell id="8yxQSL3KDmyCLQ_qSUkQ-0" value="" style="group" parent="zulKE-3Q0ZFPJ0QVmKUc-1" vertex="1" connectable="0">
          
          <mxGeometry x="37" y="6" width="745" height="85" as="geometry" />
          
        </mxCell>
        
        <mxCell id="zulKE-3Q0ZFPJ0QVmKUc-2" value="&lt;font style=&quot;font-size: 11px&quot;&gt;Start&lt;/font&gt;" style="ellipse;whiteSpace=wrap;html=1;" parent="8yxQSL3KDmyCLQ_qSUkQ-0" vertex="1">
          
          <mxGeometry y="19.318181818181817" width="80.5889423076923" height="30.909090909090907" as="geometry" />
          
        </mxCell>
        
        <mxCell id="zulKE-3Q0ZFPJ0QVmKUc-7" value="&lt;div style=&quot;font-size: 11px&quot;&gt;&lt;font style=&quot;font-size: 11px&quot;&gt;Show pipeline GUI&lt;/font&gt;&lt;/div&gt;&lt;div style=&quot;font-size: 11px&quot;&gt;&lt;font style=&quot;font-size: 11px&quot;&gt;to select steps&lt;/font&gt;&lt;/div&gt;" style="shape=parallelogram;perimeter=parallelogramPerimeter;whiteSpace=wrap;html=1;" parent="8yxQSL3KDmyCLQ_qSUkQ-0" vertex="1">
          
          <mxGeometry x="95.81129807692308" y="11.59090909090909" width="134.31490384615384" height="46.36363636363636" as="geometry" />
          
        </mxCell>
        
        <mxCell id="spz0D1i2KTIUEAec6_q3-1" style="edgeStyle=orthogonalEdgeStyle;rounded=0;orthogonalLoop=1;jettySize=auto;html=1;exitX=1;exitY=0.5;exitDx=0;exitDy=0;entryX=0;entryY=0.5;entryDx=0;entryDy=0;" parent="8yxQSL3KDmyCLQ_qSUkQ-0" source="zulKE-3Q0ZFPJ0QVmKUc-2" target="zulKE-3Q0ZFPJ0QVmKUc-7" edge="1">
          
          <mxGeometry relative="1" as="geometry" />
          
        </mxCell>
        
        <mxCell id="zulKE-3Q0ZFPJ0QVmKUc-9" value="&lt;div style=&quot;font-size: 11px&quot;&gt;&lt;font style=&quot;font-size: 11px&quot;&gt;Show configuration&lt;/font&gt;&lt;/div&gt;&lt;div style=&quot;font-size: 11px&quot;&gt;&lt;font style=&quot;font-size: 11px&quot;&gt;for step&lt;/font&gt;&lt;/div&gt;" style="shape=parallelogram;perimeter=parallelogramPerimeter;whiteSpace=wrap;html=1;" parent="8yxQSL3KDmyCLQ_qSUkQ-0" vertex="1">
          
          <mxGeometry x="244.453125" y="11.59090909090909" width="134.31490384615384" height="46.36363636363636" as="geometry" />
          
        </mxCell>
        
        <mxCell id="spz0D1i2KTIUEAec6_q3-2" style="edgeStyle=orthogonalEdgeStyle;rounded=0;orthogonalLoop=1;jettySize=auto;html=1;exitX=1;exitY=0.5;exitDx=0;exitDy=0;entryX=0;entryY=0.5;entryDx=0;entryDy=0;" parent="8yxQSL3KDmyCLQ_qSUkQ-0" source="zulKE-3Q0ZFPJ0QVmKUc-7" target="zulKE-3Q0ZFPJ0QVmKUc-9" edge="1">
          
          <mxGeometry relative="1" as="geometry" />
          
        </mxCell>
        
        <mxCell id="spz0D1i2KTIUEAec6_q3-6" style="edgeStyle=orthogonalEdgeStyle;rounded=0;orthogonalLoop=1;jettySize=auto;html=1;exitX=0.5;exitY=1;exitDx=0;exitDy=0;entryX=0.5;entryY=1;entryDx=0;entryDy=0;" parent="8yxQSL3KDmyCLQ_qSUkQ-0" source="zulKE-3Q0ZFPJ0QVmKUc-12" target="zulKE-3Q0ZFPJ0QVmKUc-9" edge="1">
          
          <mxGeometry relative="1" as="geometry" />
          
        </mxCell>
        
        <mxCell id="zulKE-3Q0ZFPJ0QVmKUc-12" value="&lt;font style=&quot;font-size: 11px&quot;&gt;all steps configured?&lt;/font&gt;" style="rhombus;whiteSpace=wrap;html=1;" parent="8yxQSL3KDmyCLQ_qSUkQ-0" vertex="1">
          
          <mxGeometry x="400.25841346153845" width="89.54326923076923" height="69.54545454545455" as="geometry" />
          
        </mxCell>
        
        <mxCell id="spz0D1i2KTIUEAec6_q3-3" style="edgeStyle=orthogonalEdgeStyle;rounded=0;orthogonalLoop=1;jettySize=auto;html=1;exitX=1;exitY=0.5;exitDx=0;exitDy=0;entryX=0;entryY=0.5;entryDx=0;entryDy=0;" parent="8yxQSL3KDmyCLQ_qSUkQ-0" source="zulKE-3Q0ZFPJ0QVmKUc-9" target="zulKE-3Q0ZFPJ0QVmKUc-12" edge="1">
          
          <mxGeometry relative="1" as="geometry" />
          
        </mxCell>
        
        <mxCell id="zulKE-3Q0ZFPJ0QVmKUc-18" value="&lt;font style=&quot;font-size: 11px&quot;&gt;yes&lt;/font&gt;" style="text;html=1;strokeColor=none;fillColor=none;align=center;verticalAlign=middle;whiteSpace=wrap;rounded=0;" parent="8yxQSL3KDmyCLQ_qSUkQ-0" vertex="1">
          
          <mxGeometry x="488.0108173076923" y="18.454545454545453" width="35.81730769230769" height="15.454545454545453" as="geometry" />
          
        </mxCell>
        
        <mxCell id="zulKE-3Q0ZFPJ0QVmKUc-25" value="&lt;font style=&quot;font-size: 11px&quot;&gt;Stop&lt;/font&gt;" style="ellipse;whiteSpace=wrap;html=1;" parent="8yxQSL3KDmyCLQ_qSUkQ-0" vertex="1">
          
          <mxGeometry x="673.3653846153846" y="19.318181818181817" width="71.63461538461539" height="30.909090909090907" as="geometry" />
          
        </mxCell>
        
        <mxCell id="zulKE-3Q0ZFPJ0QVmKUc-28" value="&lt;font style=&quot;font-size: 11px&quot;&gt;no&lt;/font&gt;" style="text;html=1;strokeColor=none;fillColor=none;align=center;verticalAlign=middle;whiteSpace=wrap;rounded=0;" parent="8yxQSL3KDmyCLQ_qSUkQ-0" vertex="1">
          
          <mxGeometry x="398.4675480769231" y="69.54545454545455" width="35.81730769230769" height="15.454545454545453" as="geometry" />
          
        </mxCell>
        
        <mxCell id="spz0D1i2KTIUEAec6_q3-5" style="edgeStyle=orthogonalEdgeStyle;rounded=0;orthogonalLoop=1;jettySize=auto;html=1;exitX=1;exitY=0.5;exitDx=0;exitDy=0;" parent="8yxQSL3KDmyCLQ_qSUkQ-0" source="zulKE-3Q0ZFPJ0QVmKUc-33" target="zulKE-3Q0ZFPJ0QVmKUc-25" edge="1">
          
          <mxGeometry relative="1" as="geometry" />
          
        </mxCell>
        
        <mxCell id="zulKE-3Q0ZFPJ0QVmKUc-33" value="&lt;font style=&quot;font-size: 11px&quot;&gt;Execute the selected steps&lt;/font&gt;" style="rounded=0;whiteSpace=wrap;html=1;" parent="8yxQSL3KDmyCLQ_qSUkQ-0" vertex="1">
          
          <mxGeometry x="529.2007211538462" y="11.59090909090909" width="107.45192307692308" height="46.36363636363636" as="geometry" />
          
        </mxCell>
        
        <mxCell id="spz0D1i2KTIUEAec6_q3-4" style="edgeStyle=orthogonalEdgeStyle;rounded=0;orthogonalLoop=1;jettySize=auto;html=1;exitX=1;exitY=0.5;exitDx=0;exitDy=0;entryX=0;entryY=0.5;entryDx=0;entryDy=0;" parent="8yxQSL3KDmyCLQ_qSUkQ-0" source="zulKE-3Q0ZFPJ0QVmKUc-12" target="zulKE-3Q0ZFPJ0QVmKUc-33" edge="1">
          
          <mxGeometry relative="1" as="geometry" />
          
        </mxCell>
        
      </root>
      
    </mxGraphModel>
    
  </diagram>
  <diagram name="f5n_server_flow_chart" id="X5OKo9QT9v9HpvdByqKz">
    
    <mxGraphModel dx="1661" dy="1595" grid="1" gridSize="10" guides="1" tooltips="1" connect="1" arrows="1" fold="1" page="1" pageScale="1" pageWidth="850" pageHeight="1100" math="0" shadow="0">
      
      <root>
        
        <mxCell id="AqGu3uOBld3RrU8wCrOa-0" />
        
        <mxCell id="AqGu3uOBld3RrU8wCrOa-1" parent="AqGu3uOBld3RrU8wCrOa-0" />
        
        <mxCell id="ke97CVTmpRLMtUJ5iaf1-5" style="edgeStyle=orthogonalEdgeStyle;rounded=0;orthogonalLoop=1;jettySize=auto;html=1;exitX=0.5;exitY=1;exitDx=0;exitDy=0;" parent="AqGu3uOBld3RrU8wCrOa-1" source="AqGu3uOBld3RrU8wCrOa-2" target="ke97CVTmpRLMtUJ5iaf1-2" edge="1">
          
          <mxGeometry relative="1" as="geometry" />
          
        </mxCell>
        
        <mxCell id="AqGu3uOBld3RrU8wCrOa-2" value="Start" style="ellipse;whiteSpace=wrap;html=1;" parent="AqGu3uOBld3RrU8wCrOa-1" vertex="1">
          
          <mxGeometry x="114.5" y="-40" width="90" height="40" as="geometry" />
          
        </mxCell>
        
        <mxCell id="ke97CVTmpRLMtUJ5iaf1-3" style="edgeStyle=orthogonalEdgeStyle;rounded=0;orthogonalLoop=1;jettySize=auto;html=1;exitX=0.5;exitY=1;exitDx=0;exitDy=0;entryX=0.579;entryY=0;entryDx=0;entryDy=0;entryPerimeter=0;" parent="AqGu3uOBld3RrU8wCrOa-1" source="AqGu3uOBld3RrU8wCrOa-6" target="AqGu3uOBld3RrU8wCrOa-7" edge="1">
          
          <mxGeometry relative="1" as="geometry" />
          
        </mxCell>
        
        <mxCell id="AqGu3uOBld3RrU8wCrOa-6" value="Show pipeline GUI to&lt;br&gt;select steps" style="shape=parallelogram;perimeter=parallelogramPerimeter;whiteSpace=wrap;html=1;" parent="AqGu3uOBld3RrU8wCrOa-1" vertex="1">
          
          <mxGeometry x="54.5" y="110" width="190" height="60" as="geometry" />
          
        </mxCell>
        
        <mxCell id="AqGu3uOBld3RrU8wCrOa-7" value="Create Pipeline Object" style="rounded=0;whiteSpace=wrap;html=1;" parent="AqGu3uOBld3RrU8wCrOa-1" vertex="1">
          
          <mxGeometry x="80" y="210" width="120" height="60" as="geometry" />
          
        </mxCell>
        
        <mxCell id="AqGu3uOBld3RrU8wCrOa-8" value="Show configuration for&lt;br&gt;step" style="shape=parallelogram;perimeter=parallelogramPerimeter;whiteSpace=wrap;html=1;" parent="AqGu3uOBld3RrU8wCrOa-1" vertex="1">
          
          <mxGeometry x="50" y="310" width="180" height="60" as="geometry" />
          
        </mxCell>
        
        <mxCell id="AqGu3uOBld3RrU8wCrOa-9" value="Update Pipeline Object" style="rounded=0;whiteSpace=wrap;html=1;" parent="AqGu3uOBld3RrU8wCrOa-1" vertex="1">
          
          <mxGeometry x="80" y="410" width="120" height="60" as="geometry" />
          
        </mxCell>
        
        <mxCell id="AqGu3uOBld3RrU8wCrOa-11" value="" style="endArrow=classic;html=1;exitX=0.5;exitY=1;exitDx=0;exitDy=0;entryX=0.5;entryY=0;entryDx=0;entryDy=0;" parent="AqGu3uOBld3RrU8wCrOa-1" source="AqGu3uOBld3RrU8wCrOa-7" target="AqGu3uOBld3RrU8wCrOa-8" edge="1">
          
          <mxGeometry width="50" height="50" relative="1" as="geometry">
            
            <mxPoint x="149.78999999999996" y="181.79999999999995" as="sourcePoint" />
            
            <mxPoint x="150" y="220" as="targetPoint" />
            
          </mxGeometry>
          
        </mxCell>
        
        <mxCell id="AqGu3uOBld3RrU8wCrOa-12" value="" style="endArrow=classic;html=1;exitX=0.5;exitY=1;exitDx=0;exitDy=0;entryX=0.5;entryY=0;entryDx=0;entryDy=0;" parent="AqGu3uOBld3RrU8wCrOa-1" source="AqGu3uOBld3RrU8wCrOa-8" target="AqGu3uOBld3RrU8wCrOa-9" edge="1">
          
          <mxGeometry width="50" height="50" relative="1" as="geometry">
            
            <mxPoint x="150" y="280" as="sourcePoint" />
            
            <mxPoint x="150" y="320" as="targetPoint" />
            
          </mxGeometry>
          
        </mxCell>
        
        <mxCell id="AqGu3uOBld3RrU8wCrOa-14" style="edgeStyle=orthogonalEdgeStyle;rounded=1;orthogonalLoop=1;jettySize=auto;html=1;exitX=1;exitY=0.5;exitDx=0;exitDy=0;entryX=1;entryY=0.5;entryDx=0;entryDy=0;" parent="AqGu3uOBld3RrU8wCrOa-1" source="AqGu3uOBld3RrU8wCrOa-15" target="AqGu3uOBld3RrU8wCrOa-8" edge="1">
          
          <mxGeometry relative="1" as="geometry">
            
            <Array as="points">
              
              <mxPoint x="236.5" y="545" />
              
              <mxPoint x="236.5" y="339" />
              
            </Array>
            
          </mxGeometry>
          
        </mxCell>
        
        <mxCell id="ke97CVTmpRLMtUJ5iaf1-1" style="edgeStyle=orthogonalEdgeStyle;orthogonalLoop=1;jettySize=auto;html=1;exitX=0.5;exitY=1;exitDx=0;exitDy=0;rounded=1;" parent="AqGu3uOBld3RrU8wCrOa-1" source="AqGu3uOBld3RrU8wCrOa-15" target="ke97CVTmpRLMtUJ5iaf1-0" edge="1">
          
          <mxGeometry relative="1" as="geometry" />
          
        </mxCell>
        
        <mxCell id="ke97CVTmpRLMtUJ5iaf1-13" style="edgeStyle=orthogonalEdgeStyle;rounded=1;orthogonalLoop=1;jettySize=auto;html=1;exitX=0.5;exitY=1;exitDx=0;exitDy=0;entryX=0;entryY=0.5;entryDx=0;entryDy=0;" parent="AqGu3uOBld3RrU8wCrOa-1" source="AqGu3uOBld3RrU8wCrOa-15" target="ke97CVTmpRLMtUJ5iaf1-11" edge="1">
          
          <mxGeometry relative="1" as="geometry" />
          
        </mxCell>
        
        <mxCell id="AqGu3uOBld3RrU8wCrOa-15" value="all steps configured?" style="rhombus;whiteSpace=wrap;html=1;" parent="AqGu3uOBld3RrU8wCrOa-1" vertex="1">
          
          <mxGeometry x="90" y="500" width="100" height="90" as="geometry" />
          
        </mxCell>
        
        <mxCell id="AqGu3uOBld3RrU8wCrOa-16" value="" style="endArrow=classic;html=1;exitX=0.5;exitY=1;exitDx=0;exitDy=0;entryX=0.5;entryY=0;entryDx=0;entryDy=0;" parent="AqGu3uOBld3RrU8wCrOa-1" source="AqGu3uOBld3RrU8wCrOa-9" target="AqGu3uOBld3RrU8wCrOa-15" edge="1">
          
          <mxGeometry width="50" height="50" relative="1" as="geometry">
            
            <mxPoint x="150" y="380" as="sourcePoint" />
            
            <mxPoint x="150" y="420" as="targetPoint" />
            
          </mxGeometry>
          
        </mxCell>
        
        <mxCell id="AqGu3uOBld3RrU8wCrOa-22" value="no" style="text;html=1;strokeColor=none;fillColor=none;align=center;verticalAlign=middle;whiteSpace=wrap;rounded=0;" parent="AqGu3uOBld3RrU8wCrOa-1" vertex="1">
          
          <mxGeometry x="229" y="430" width="40" height="20" as="geometry" />
          
        </mxCell>
        
        <mxCell id="SKii72pT_YqmBwZ2JDrh-3" style="edgeStyle=orthogonalEdgeStyle;rounded=1;orthogonalLoop=1;jettySize=auto;html=1;exitX=0;exitY=0.5;exitDx=0;exitDy=0;entryX=0;entryY=0.5;entryDx=0;entryDy=0;" parent="AqGu3uOBld3RrU8wCrOa-1" source="ke97CVTmpRLMtUJ5iaf1-0" target="ke97CVTmpRLMtUJ5iaf1-6" edge="1">
          
          <mxGeometry relative="1" as="geometry">
            
            <Array as="points">
              
              <mxPoint x="-190" y="180" />
              
              <mxPoint x="-190" y="54" />
              
            </Array>
            
          </mxGeometry>
          
        </mxCell>
        
        <mxCell id="ke97CVTmpRLMtUJ5iaf1-0" value="List Jobs" style="rounded=0;whiteSpace=wrap;html=1;" parent="AqGu3uOBld3RrU8wCrOa-1" vertex="1">
          
          <mxGeometry x="-126.5" y="150" width="120" height="60" as="geometry" />
          
        </mxCell>
        
        <mxCell id="ke97CVTmpRLMtUJ5iaf1-4" style="edgeStyle=orthogonalEdgeStyle;rounded=0;orthogonalLoop=1;jettySize=auto;html=1;exitX=0.5;exitY=1;exitDx=0;exitDy=0;entryX=0.578;entryY=-0.002;entryDx=0;entryDy=0;entryPerimeter=0;" parent="AqGu3uOBld3RrU8wCrOa-1" source="ke97CVTmpRLMtUJ5iaf1-2" target="AqGu3uOBld3RrU8wCrOa-6" edge="1">
          
          <mxGeometry relative="1" as="geometry" />
          
        </mxCell>
        
        <mxCell id="SKii72pT_YqmBwZ2JDrh-1" style="edgeStyle=orthogonalEdgeStyle;rounded=0;orthogonalLoop=1;jettySize=auto;html=1;exitX=0;exitY=0.5;exitDx=0;exitDy=0;entryX=1;entryY=0.5;entryDx=0;entryDy=0;" parent="AqGu3uOBld3RrU8wCrOa-1" source="ke97CVTmpRLMtUJ5iaf1-2" target="ke97CVTmpRLMtUJ5iaf1-6" edge="1">
          
          <mxGeometry relative="1" as="geometry" />
          
        </mxCell>
        
        <mxCell id="ke97CVTmpRLMtUJ5iaf1-2" value="&lt;div&gt;Configure MinIT data &lt;br&gt;&lt;/div&gt;&lt;div&gt;directory&lt;/div&gt;" style="shape=parallelogram;perimeter=parallelogramPerimeter;whiteSpace=wrap;html=1;" parent="AqGu3uOBld3RrU8wCrOa-1" vertex="1">
          
          <mxGeometry x="64.5" y="25" width="190" height="60" as="geometry" />
          
        </mxCell>
        
        <mxCell id="SKii72pT_YqmBwZ2JDrh-2" style="edgeStyle=orthogonalEdgeStyle;rounded=0;orthogonalLoop=1;jettySize=auto;html=1;exitX=0.5;exitY=1;exitDx=0;exitDy=0;entryX=0.5;entryY=0;entryDx=0;entryDy=0;" parent="AqGu3uOBld3RrU8wCrOa-1" source="ke97CVTmpRLMtUJ5iaf1-6" target="ke97CVTmpRLMtUJ5iaf1-0" edge="1">
          
          <mxGeometry relative="1" as="geometry" />
          
        </mxCell>
        
        <mxCell id="ke97CVTmpRLMtUJ5iaf1-6" value="Listen for new data sets written as the sequencing happens" style="rounded=0;whiteSpace=wrap;html=1;" parent="AqGu3uOBld3RrU8wCrOa-1" vertex="1">
          
          <mxGeometry x="-148.5" y="12.5" width="164" height="85" as="geometry" />
          
        </mxCell>
        
        <mxCell id="6CQ2kpYmcWkfH0W4W7yu-4" style="edgeStyle=orthogonalEdgeStyle;rounded=1;orthogonalLoop=1;jettySize=auto;html=1;exitX=0.5;exitY=1;exitDx=0;exitDy=0;entryX=0.5;entryY=0;entryDx=0;entryDy=0;" parent="AqGu3uOBld3RrU8wCrOa-1" source="ke97CVTmpRLMtUJ5iaf1-11" target="6CQ2kpYmcWkfH0W4W7yu-1" edge="1">
          
          <mxGeometry relative="1" as="geometry" />
          
        </mxCell>
        
        <mxCell id="ke97CVTmpRLMtUJ5iaf1-11" value="Listen for clients" style="rounded=0;whiteSpace=wrap;html=1;" parent="AqGu3uOBld3RrU8wCrOa-1" vertex="1">
          
          <mxGeometry x="360" y="25" width="120" height="60" as="geometry" />
          
        </mxCell>
        
        <mxCell id="6CQ2kpYmcWkfH0W4W7yu-5" style="edgeStyle=orthogonalEdgeStyle;rounded=1;orthogonalLoop=1;jettySize=auto;html=1;exitX=0;exitY=0.5;exitDx=0;exitDy=0;entryX=0.5;entryY=0;entryDx=0;entryDy=0;" parent="AqGu3uOBld3RrU8wCrOa-1" source="6CQ2kpYmcWkfH0W4W7yu-1" target="6CQ2kpYmcWkfH0W4W7yu-2" edge="1">
          
          <mxGeometry relative="1" as="geometry" />
          
        </mxCell>
        
        <mxCell id="6CQ2kpYmcWkfH0W4W7yu-14" style="edgeStyle=orthogonalEdgeStyle;rounded=1;orthogonalLoop=1;jettySize=auto;html=1;exitX=1;exitY=0.5;exitDx=0;exitDy=0;entryX=0.53;entryY=0.019;entryDx=0;entryDy=0;entryPerimeter=0;" parent="AqGu3uOBld3RrU8wCrOa-1" source="6CQ2kpYmcWkfH0W4W7yu-1" target="6CQ2kpYmcWkfH0W4W7yu-3" edge="1">
          
          <mxGeometry relative="1" as="geometry" />
          
        </mxCell>
        
        <mxCell id="6CQ2kpYmcWkfH0W4W7yu-1" value="A new client?" style="rhombus;whiteSpace=wrap;html=1;" parent="AqGu3uOBld3RrU8wCrOa-1" vertex="1">
          
          <mxGeometry x="370" y="130" width="100" height="80" as="geometry" />
          
        </mxCell>
        
        <mxCell id="6CQ2kpYmcWkfH0W4W7yu-15" style="edgeStyle=orthogonalEdgeStyle;rounded=1;orthogonalLoop=1;jettySize=auto;html=1;exitX=0.5;exitY=1;exitDx=0;exitDy=0;entryX=1;entryY=0.5;entryDx=0;entryDy=0;" parent="AqGu3uOBld3RrU8wCrOa-1" source="6CQ2kpYmcWkfH0W4W7yu-2" target="ke97CVTmpRLMtUJ5iaf1-11" edge="1">
          
          <mxGeometry relative="1" as="geometry">
            
            <Array as="points">
              
              <mxPoint x="350" y="340" />
              
              <mxPoint x="580" y="340" />
              
              <mxPoint x="580" y="54" />
              
            </Array>
            
          </mxGeometry>
          
        </mxCell>
        
        <mxCell id="6CQ2kpYmcWkfH0W4W7yu-2" value="Send a job" style="rounded=0;whiteSpace=wrap;html=1;" parent="AqGu3uOBld3RrU8wCrOa-1" vertex="1">
          
          <mxGeometry x="290" y="240" width="120" height="60" as="geometry" />
          
        </mxCell>
        
        <mxCell id="6CQ2kpYmcWkfH0W4W7yu-3" value="Update job status" style="rounded=0;whiteSpace=wrap;html=1;" parent="AqGu3uOBld3RrU8wCrOa-1" vertex="1">
          
          <mxGeometry x="429" y="240" width="120" height="60" as="geometry" />
          
        </mxCell>
        
        <mxCell id="6CQ2kpYmcWkfH0W4W7yu-9" value="yes" style="text;html=1;resizable=0;points=[];autosize=1;align=left;verticalAlign=top;spacingTop=-4;" parent="AqGu3uOBld3RrU8wCrOa-1" vertex="1">
          
          <mxGeometry x="326" y="196" width="30" height="20" as="geometry" />
          
        </mxCell>
        
        <mxCell id="6CQ2kpYmcWkfH0W4W7yu-10" value="no" style="text;html=1;resizable=0;points=[];autosize=1;align=left;verticalAlign=top;spacingTop=-4;" parent="AqGu3uOBld3RrU8wCrOa-1" vertex="1">
          
          <mxGeometry x="494" y="204" width="30" height="20" as="geometry" />
          
        </mxCell>
        
        <mxCell id="6CQ2kpYmcWkfH0W4W7yu-11" value="" style="endArrow=none;html=1;entryX=0.5;entryY=1;entryDx=0;entryDy=0;" parent="AqGu3uOBld3RrU8wCrOa-1" target="6CQ2kpYmcWkfH0W4W7yu-3" edge="1">
          
          <mxGeometry width="50" height="50" relative="1" as="geometry">
            
            <mxPoint x="489" y="340" as="sourcePoint" />
            
            <mxPoint x="-80" y="640" as="targetPoint" />
            
          </mxGeometry>
          
        </mxCell>
        
        <mxCell id="SKii72pT_YqmBwZ2JDrh-4" value="yes" style="text;html=1;resizable=0;points=[];autosize=1;align=left;verticalAlign=top;spacingTop=-4;" parent="AqGu3uOBld3RrU8wCrOa-1" vertex="1">
          
          <mxGeometry x="32" y="591" width="30" height="20" as="geometry" />
          
        </mxCell>
        
        <mxCell id="SKii72pT_YqmBwZ2JDrh-5" value="yes" style="text;html=1;resizable=0;points=[];autosize=1;align=left;verticalAlign=top;spacingTop=-4;" parent="AqGu3uOBld3RrU8wCrOa-1" vertex="1">
          
          <mxGeometry x="211" y="592" width="30" height="20" as="geometry" />
          
        </mxCell>
        
        <mxCell id="SKii72pT_YqmBwZ2JDrh-6" value="repeat" style="text;html=1;resizable=0;points=[];autosize=1;align=left;verticalAlign=top;spacingTop=-4;" parent="AqGu3uOBld3RrU8wCrOa-1" vertex="1">
          
          <mxGeometry x="-190" y="114" width="50" height="20" as="geometry" />
          
        </mxCell>
        
        <mxCell id="SKii72pT_YqmBwZ2JDrh-7" value="repeat" style="text;html=1;resizable=0;points=[];autosize=1;align=left;verticalAlign=top;spacingTop=-4;" parent="AqGu3uOBld3RrU8wCrOa-1" vertex="1">
          
          <mxGeometry x="584" y="130" width="50" height="20" as="geometry" />
          
        </mxCell>
        
      </root>
      
    </mxGraphModel>
    
  </diagram>
  <diagram name="simplified_f5n_server_flow_chart" id="aM2cDk5jeuMmInfS1tVT">
    
    <mxGraphModel dx="811" dy="495" grid="0" gridSize="10" guides="1" tooltips="1" connect="1" arrows="1" fold="1" page="1" pageScale="1" pageWidth="850" pageHeight="1100" math="0" shadow="0">
      
      <root>
        
        <mxCell id="ieE3aIt6BzHib7C03p7x-0" />
        
        <mxCell id="ieE3aIt6BzHib7C03p7x-1" parent="ieE3aIt6BzHib7C03p7x-0" />
        
        <mxCell id="QyhUvJkkk8mO21wdZAiP-3" style="edgeStyle=orthogonalEdgeStyle;rounded=0;orthogonalLoop=1;jettySize=auto;html=1;exitX=0.5;exitY=1;exitDx=0;exitDy=0;entryX=0.5;entryY=0;entryDx=0;entryDy=0;" parent="ieE3aIt6BzHib7C03p7x-1" source="ieE3aIt6BzHib7C03p7x-3" target="ieE3aIt6BzHib7C03p7x-21" edge="1">
          
          <mxGeometry relative="1" as="geometry" />
          
        </mxCell>
        
        <mxCell id="ieE3aIt6BzHib7C03p7x-3" value="Start" style="ellipse;whiteSpace=wrap;html=1;" parent="ieE3aIt6BzHib7C03p7x-1" vertex="1">
          
          <mxGeometry x="85.5" y="30" width="90" height="40" as="geometry" />
          
        </mxCell>
        
        <mxCell id="QyhUvJkkk8mO21wdZAiP-1" style="edgeStyle=orthogonalEdgeStyle;rounded=0;orthogonalLoop=1;jettySize=auto;html=1;exitX=0.5;exitY=1;exitDx=0;exitDy=0;entryX=0.5;entryY=0;entryDx=0;entryDy=0;" parent="ieE3aIt6BzHib7C03p7x-1" source="ieE3aIt6BzHib7C03p7x-5" target="ieE3aIt6BzHib7C03p7x-7" edge="1">
          
          <mxGeometry relative="1" as="geometry" />
          
        </mxCell>
        
        <mxCell id="ieE3aIt6BzHib7C03p7x-5" value="&amp;nbsp; Show pipeline GUI&lt;div&gt;to select steps&lt;/div&gt;" style="shape=parallelogram;perimeter=parallelogramPerimeter;whiteSpace=wrap;html=1;" parent="ieE3aIt6BzHib7C03p7x-1" vertex="1">
          
          <mxGeometry x="60.5" y="167.5" width="140" height="60" as="geometry" />
          
        </mxCell>
        
        <mxCell id="QyhUvJkkk8mO21wdZAiP-2" style="edgeStyle=orthogonalEdgeStyle;rounded=0;orthogonalLoop=1;jettySize=auto;html=1;exitX=0.5;exitY=1;exitDx=0;exitDy=0;entryX=0.5;entryY=0;entryDx=0;entryDy=0;" parent="ieE3aIt6BzHib7C03p7x-1" source="ieE3aIt6BzHib7C03p7x-7" target="ieE3aIt6BzHib7C03p7x-14" edge="1">
          
          <mxGeometry relative="1" as="geometry" />
          
        </mxCell>
        
        <mxCell id="ieE3aIt6BzHib7C03p7x-7" value="&amp;nbsp; Show configuration&lt;div&gt;for step&lt;/div&gt;" style="shape=parallelogram;perimeter=parallelogramPerimeter;whiteSpace=wrap;html=1;" parent="ieE3aIt6BzHib7C03p7x-1" vertex="1">
          
          <mxGeometry x="60.5" y="244.5" width="140" height="60" as="geometry" />
          
        </mxCell>
        
        <mxCell id="bPoVnghDCvQLUT4MfoRL-0" style="edgeStyle=orthogonalEdgeStyle;rounded=0;orthogonalLoop=1;jettySize=auto;html=1;exitX=0;exitY=0.5;exitDx=0;exitDy=0;entryX=0;entryY=0.25;entryDx=0;entryDy=0;" parent="ieE3aIt6BzHib7C03p7x-1" source="ieE3aIt6BzHib7C03p7x-14" target="ieE3aIt6BzHib7C03p7x-7" edge="1">
          
          <mxGeometry relative="1" as="geometry">
            
            <Array as="points">
              
              <mxPoint x="46" y="368.5" />
              
              <mxPoint x="46" y="263.5" />
              
            </Array>
            
          </mxGeometry>
          
        </mxCell>
        
        <mxCell id="fD6yXuoUXdoSFh_ACuwK-3" style="edgeStyle=orthogonalEdgeStyle;rounded=0;orthogonalLoop=1;jettySize=auto;html=1;exitX=1;exitY=0.5;exitDx=0;exitDy=0;entryX=0;entryY=0.5;entryDx=0;entryDy=0;" parent="ieE3aIt6BzHib7C03p7x-1" source="ieE3aIt6BzHib7C03p7x-14" target="fD6yXuoUXdoSFh_ACuwK-0" edge="1">
          
          <mxGeometry relative="1" as="geometry" />
          
        </mxCell>
        
        <mxCell id="fD6yXuoUXdoSFh_ACuwK-7" style="edgeStyle=orthogonalEdgeStyle;rounded=0;orthogonalLoop=1;jettySize=auto;html=1;exitX=1;exitY=0.5;exitDx=0;exitDy=0;entryX=0;entryY=1;entryDx=0;entryDy=0;" parent="ieE3aIt6BzHib7C03p7x-1" source="ieE3aIt6BzHib7C03p7x-14" target="ieE3aIt6BzHib7C03p7x-28" edge="1">
          
          <mxGeometry relative="1" as="geometry">
            
            <Array as="points">
              
              <mxPoint x="236" y="368.5" />
              
              <mxPoint x="236" y="233.5" />
              
            </Array>
            
          </mxGeometry>
          
        </mxCell>
        
        <mxCell id="ieE3aIt6BzHib7C03p7x-14" value="all steps configured?" style="rhombus;whiteSpace=wrap;html=1;" parent="ieE3aIt6BzHib7C03p7x-1" vertex="1">
          
          <mxGeometry x="85.5" y="323.5" width="90" height="90" as="geometry" />
          
        </mxCell>
        
        <mxCell id="QyhUvJkkk8mO21wdZAiP-0" style="edgeStyle=orthogonalEdgeStyle;rounded=0;orthogonalLoop=1;jettySize=auto;html=1;exitX=0.5;exitY=1;exitDx=0;exitDy=0;entryX=0.5;entryY=0;entryDx=0;entryDy=0;" parent="ieE3aIt6BzHib7C03p7x-1" source="ieE3aIt6BzHib7C03p7x-21" target="ieE3aIt6BzHib7C03p7x-5" edge="1">
          
          <mxGeometry relative="1" as="geometry" />
          
        </mxCell>
        
        <mxCell id="ieE3aIt6BzHib7C03p7x-21" value="&lt;div&gt;Set MinIT data &lt;br&gt;&lt;/div&gt;&lt;div&gt;directory&lt;/div&gt;" style="shape=parallelogram;perimeter=parallelogramPerimeter;whiteSpace=wrap;html=1;" parent="ieE3aIt6BzHib7C03p7x-1" vertex="1">
          
          <mxGeometry x="60.5" y="88.5" width="140" height="60" as="geometry" />
          
        </mxCell>
        
        <mxCell id="fD6yXuoUXdoSFh_ACuwK-15" style="edgeStyle=orthogonalEdgeStyle;rounded=0;orthogonalLoop=1;jettySize=auto;html=1;exitX=0.5;exitY=1;exitDx=0;exitDy=0;entryX=0.5;entryY=0;entryDx=0;entryDy=0;" parent="ieE3aIt6BzHib7C03p7x-1" source="ieE3aIt6BzHib7C03p7x-23" target="fD6yXuoUXdoSFh_ACuwK-0" edge="1">
          
          <mxGeometry relative="1" as="geometry" />
          
        </mxCell>
        
        <mxCell id="ieE3aIt6BzHib7C03p7x-23" value="Create pipeline object (new job)" style="rounded=0;whiteSpace=wrap;html=1;" parent="ieE3aIt6BzHib7C03p7x-1" vertex="1">
          
          <mxGeometry x="268.5" y="264.5" width="100" height="40" as="geometry" />
          
        </mxCell>
        
        <mxCell id="fD6yXuoUXdoSFh_ACuwK-5" style="edgeStyle=orthogonalEdgeStyle;rounded=0;orthogonalLoop=1;jettySize=auto;html=1;exitX=1;exitY=0.5;exitDx=0;exitDy=0;entryX=0.5;entryY=1;entryDx=0;entryDy=0;" parent="ieE3aIt6BzHib7C03p7x-1" source="ieE3aIt6BzHib7C03p7x-28" target="ieE3aIt6BzHib7C03p7x-30" edge="1">
          
          <mxGeometry relative="1" as="geometry" />
          
        </mxCell>
        
        <mxCell id="fD6yXuoUXdoSFh_ACuwK-10" style="edgeStyle=orthogonalEdgeStyle;rounded=0;orthogonalLoop=1;jettySize=auto;html=1;exitX=0;exitY=0.5;exitDx=0;exitDy=0;entryX=0.5;entryY=1;entryDx=0;entryDy=0;" parent="ieE3aIt6BzHib7C03p7x-1" source="ieE3aIt6BzHib7C03p7x-28" target="ieE3aIt6BzHib7C03p7x-31" edge="1">
          
          <mxGeometry relative="1" as="geometry" />
          
        </mxCell>
        
        <mxCell id="ieE3aIt6BzHib7C03p7x-28" value="A new client?" style="rhombus;whiteSpace=wrap;html=1;" parent="ieE3aIt6BzHib7C03p7x-1" vertex="1">
          
          <mxGeometry x="273.5" y="165.5" width="90" height="90" as="geometry" />
          
        </mxCell>
        
        <mxCell id="ieE3aIt6BzHib7C03p7x-30" value="Send a job" style="rounded=0;whiteSpace=wrap;html=1;" parent="ieE3aIt6BzHib7C03p7x-1" vertex="1">
          
          <mxGeometry x="345" y="118.5" width="80" height="40" as="geometry" />
          
        </mxCell>
        
        <mxCell id="fD6yXuoUXdoSFh_ACuwK-12" style="edgeStyle=orthogonalEdgeStyle;rounded=0;orthogonalLoop=1;jettySize=auto;html=1;exitX=1;exitY=0.5;exitDx=0;exitDy=0;entryX=0.5;entryY=0;entryDx=0;entryDy=0;" parent="ieE3aIt6BzHib7C03p7x-1" source="ieE3aIt6BzHib7C03p7x-31" target="ieE3aIt6BzHib7C03p7x-28" edge="1">
          
          <mxGeometry relative="1" as="geometry" />
          
        </mxCell>
        
        <mxCell id="ieE3aIt6BzHib7C03p7x-31" value="Update job status" style="rounded=0;whiteSpace=wrap;html=1;" parent="ieE3aIt6BzHib7C03p7x-1" vertex="1">
          
          <mxGeometry x="212" y="118.5" width="80" height="40" as="geometry" />
          
        </mxCell>
        
        <mxCell id="bPoVnghDCvQLUT4MfoRL-2" value="no" style="text;html=1;resizable=0;points=[];autosize=1;align=left;verticalAlign=top;spacingTop=-4;" parent="ieE3aIt6BzHib7C03p7x-1" vertex="1">
          
          <mxGeometry x="46" y="309.5" width="30" height="20" as="geometry" />
          
        </mxCell>
        
        <mxCell id="bPoVnghDCvQLUT4MfoRL-3" value="yes" style="text;html=1;resizable=0;points=[];autosize=1;align=left;verticalAlign=top;spacingTop=-4;" parent="ieE3aIt6BzHib7C03p7x-1" vertex="1">
          
          <mxGeometry x="182" y="349.5" width="30" height="20" as="geometry" />
          
        </mxCell>
        
        <mxCell id="bPoVnghDCvQLUT4MfoRL-5" value="no" style="text;html=1;resizable=0;points=[];autosize=1;align=left;verticalAlign=top;spacingTop=-4;" parent="ieE3aIt6BzHib7C03p7x-1" vertex="1">
          
          <mxGeometry x="234" y="177.5" width="30" height="20" as="geometry" />
          
        </mxCell>
        
        <mxCell id="bPoVnghDCvQLUT4MfoRL-6" value="yes" style="text;html=1;resizable=0;points=[];autosize=1;align=left;verticalAlign=top;spacingTop=-4;" parent="ieE3aIt6BzHib7C03p7x-1" vertex="1">
          
          <mxGeometry x="385" y="323.5" width="30" height="20" as="geometry" />
          
        </mxCell>
        
        <mxCell id="fD6yXuoUXdoSFh_ACuwK-4" style="edgeStyle=orthogonalEdgeStyle;rounded=0;orthogonalLoop=1;jettySize=auto;html=1;exitX=1;exitY=0.5;exitDx=0;exitDy=0;entryX=1;entryY=0.5;entryDx=0;entryDy=0;" parent="ieE3aIt6BzHib7C03p7x-1" source="fD6yXuoUXdoSFh_ACuwK-0" target="ieE3aIt6BzHib7C03p7x-23" edge="1">
          
          <mxGeometry relative="1" as="geometry" />
          
        </mxCell>
        
        <mxCell id="fD6yXuoUXdoSFh_ACuwK-0" value="&lt;div&gt;A new &lt;br&gt;&lt;/div&gt;&lt;div&gt;data set?&lt;/div&gt;" style="rhombus;whiteSpace=wrap;html=1;" parent="ieE3aIt6BzHib7C03p7x-1" vertex="1">
          
          <mxGeometry x="273.5" y="323.5" width="90" height="90" as="geometry" />
          
        </mxCell>
        
        <mxCell id="fD6yXuoUXdoSFh_ACuwK-11" value="yes" style="text;html=1;resizable=0;points=[];autosize=1;align=left;verticalAlign=top;spacingTop=-4;" parent="ieE3aIt6BzHib7C03p7x-1" vertex="1">
          
          <mxGeometry x="386" y="180.5" width="30" height="20" as="geometry" />
          
        </mxCell>
        
        <mxCell id="fD6yXuoUXdoSFh_ACuwK-14" value="" style="endArrow=none;html=1;entryX=0;entryY=0.5;entryDx=0;entryDy=0;" parent="ieE3aIt6BzHib7C03p7x-1" target="ieE3aIt6BzHib7C03p7x-30" edge="1">
          
          <mxGeometry width="50" height="50" relative="1" as="geometry">
            
            <mxPoint x="319" y="138.5" as="sourcePoint" />
            
            <mxPoint x="368.5" y="73.5" as="targetPoint" />
            
          </mxGeometry>
          
        </mxCell>
        
      </root>
      
    </mxGraphModel>
    
  </diagram>
  <diagram id="R7F1pZ8nEgY7N4BccvcM" name="Pipeline_graph">
    
    <mxGraphModel dx="811" dy="495" grid="0" gridSize="10" guides="1" tooltips="1" connect="1" arrows="1" fold="1" page="1" pageScale="1" pageWidth="827" pageHeight="345" math="0" shadow="0">
      
      <root>
        
        <mxCell id="ZsYDu36mWSQMwu_I-Q52-0" />
        
        <mxCell id="ZsYDu36mWSQMwu_I-Q52-1" parent="ZsYDu36mWSQMwu_I-Q52-0" />
        
        <mxCell id="ZsYDu36mWSQMwu_I-Q52-4" value="" style="rounded=1;whiteSpace=wrap;html=1;dashed=1;align=center;" parent="ZsYDu36mWSQMwu_I-Q52-1" vertex="1">
          
          <mxGeometry x="22" y="20" width="110" height="50" as="geometry" />
          
        </mxCell>
        
        <mxCell id="ZsYDu36mWSQMwu_I-Q52-71" value="" style="rounded=0;whiteSpace=wrap;html=1;dashed=1;fillColor=#fff2cc;strokeColor=#d6b656;" parent="ZsYDu36mWSQMwu_I-Q52-1" vertex="1">
          
          <mxGeometry x="58" y="123" width="180" height="156" as="geometry" />
          
        </mxCell>
        
        <mxCell id="ZsYDu36mWSQMwu_I-Q52-10" style="edgeStyle=orthogonalEdgeStyle;rounded=1;orthogonalLoop=1;jettySize=auto;html=1;exitX=0;exitY=0.58;exitDx=0;exitDy=0;entryX=0;entryY=0.5;entryDx=0;entryDy=0;exitPerimeter=0;" parent="ZsYDu36mWSQMwu_I-Q52-1" source="ZsYDu36mWSQMwu_I-Q52-5" target="ZsYDu36mWSQMwu_I-Q52-8" edge="1">
          
          <mxGeometry relative="1" as="geometry">
            
            <Array as="points">
              
              <mxPoint x="13" y="318" />
              
              <mxPoint x="13" y="45" />
              
            </Array>
            
          </mxGeometry>
          
        </mxCell>
        
        <mxCell id="ZsYDu36mWSQMwu_I-Q52-59" style="edgeStyle=orthogonalEdgeStyle;rounded=1;orthogonalLoop=1;jettySize=auto;html=1;exitX=1;exitY=0.5;exitDx=0;exitDy=0;entryX=0.146;entryY=1.001;entryDx=0;entryDy=0;entryPerimeter=0;" parent="ZsYDu36mWSQMwu_I-Q52-1" source="ZsYDu36mWSQMwu_I-Q52-5" target="ZsYDu36mWSQMwu_I-Q52-39" edge="1">
          
          <mxGeometry relative="1" as="geometry" />
          
        </mxCell>
        
        <mxCell id="ZsYDu36mWSQMwu_I-Q52-61" style="edgeStyle=orthogonalEdgeStyle;rounded=1;orthogonalLoop=1;jettySize=auto;html=1;exitX=1;exitY=0.25;exitDx=0;exitDy=0;entryX=0.136;entryY=1;entryDx=0;entryDy=0;entryPerimeter=0;" parent="ZsYDu36mWSQMwu_I-Q52-1" source="ZsYDu36mWSQMwu_I-Q52-5" target="ZsYDu36mWSQMwu_I-Q52-22" edge="1">
          
          <mxGeometry relative="1" as="geometry" />
          
        </mxCell>
        
        <mxCell id="ZsYDu36mWSQMwu_I-Q52-5" value="&lt;i&gt;Reference Genome&lt;/i&gt;" style="rounded=1;whiteSpace=wrap;html=1;fillColor=#ffe6cc;strokeColor=#d79b00;" parent="ZsYDu36mWSQMwu_I-Q52-1" vertex="1">
          
          <mxGeometry x="242" y="289" width="110" height="50" as="geometry" />
          
        </mxCell>
        
        <mxCell id="ZsYDu36mWSQMwu_I-Q52-20" style="edgeStyle=orthogonalEdgeStyle;rounded=1;orthogonalLoop=1;jettySize=auto;html=1;exitX=1;exitY=0.5;exitDx=0;exitDy=0;entryX=0;entryY=0.5;entryDx=0;entryDy=0;" parent="ZsYDu36mWSQMwu_I-Q52-1" source="ZsYDu36mWSQMwu_I-Q52-6" target="ZsYDu36mWSQMwu_I-Q52-19" edge="1">
          
          <mxGeometry relative="1" as="geometry" />
          
        </mxCell>
        
        <mxCell id="ZsYDu36mWSQMwu_I-Q52-6" value="&lt;i&gt;Fast5 files&lt;/i&gt;" style="rounded=1;whiteSpace=wrap;html=1;fillColor=#ffe6cc;strokeColor=#d79b00;" parent="ZsYDu36mWSQMwu_I-Q52-1" vertex="1">
          
          <mxGeometry x="118" y="132" width="110" height="50" as="geometry" />
          
        </mxCell>
        
        <mxCell id="ZsYDu36mWSQMwu_I-Q52-56" style="edgeStyle=orthogonalEdgeStyle;rounded=1;orthogonalLoop=1;jettySize=auto;html=1;exitX=0.25;exitY=0;exitDx=0;exitDy=0;entryX=0.25;entryY=1;entryDx=0;entryDy=0;" parent="ZsYDu36mWSQMwu_I-Q52-1" source="ZsYDu36mWSQMwu_I-Q52-7" target="ZsYDu36mWSQMwu_I-Q52-8" edge="1">
          
          <mxGeometry relative="1" as="geometry">
            
            <Array as="points">
              
              <mxPoint x="90" y="90" />
              
              <mxPoint x="208" y="90" />
              
            </Array>
            
          </mxGeometry>
          
        </mxCell>
        
        <mxCell id="ZsYDu36mWSQMwu_I-Q52-58" style="edgeStyle=orthogonalEdgeStyle;rounded=1;orthogonalLoop=1;jettySize=auto;html=1;exitX=1;exitY=0.5;exitDx=0;exitDy=0;entryX=0.055;entryY=0.993;entryDx=0;entryDy=0;entryPerimeter=0;" parent="ZsYDu36mWSQMwu_I-Q52-1" source="ZsYDu36mWSQMwu_I-Q52-7" target="ZsYDu36mWSQMwu_I-Q52-22" edge="1">
          
          <mxGeometry relative="1" as="geometry" />
          
        </mxCell>
        
        <mxCell id="ZsYDu36mWSQMwu_I-Q52-60" style="edgeStyle=orthogonalEdgeStyle;rounded=1;orthogonalLoop=1;jettySize=auto;html=1;exitX=1;exitY=0.75;exitDx=0;exitDy=0;entryX=0.053;entryY=1.015;entryDx=0;entryDy=0;entryPerimeter=0;" parent="ZsYDu36mWSQMwu_I-Q52-1" source="ZsYDu36mWSQMwu_I-Q52-7" target="ZsYDu36mWSQMwu_I-Q52-39" edge="1">
          
          <mxGeometry relative="1" as="geometry" />
          
        </mxCell>
        
        <mxCell id="ZsYDu36mWSQMwu_I-Q52-63" style="edgeStyle=orthogonalEdgeStyle;rounded=1;orthogonalLoop=1;jettySize=auto;html=1;exitX=1;exitY=0.25;exitDx=0;exitDy=0;entryX=0.5;entryY=1;entryDx=0;entryDy=0;" parent="ZsYDu36mWSQMwu_I-Q52-1" source="ZsYDu36mWSQMwu_I-Q52-7" target="ZsYDu36mWSQMwu_I-Q52-19" edge="1">
          
          <mxGeometry relative="1" as="geometry" />
          
        </mxCell>
        
        <mxCell id="ZsYDu36mWSQMwu_I-Q52-7" value="&lt;i&gt;reads.fasta&lt;/i&gt;" style="rounded=1;whiteSpace=wrap;html=1;fillColor=#ffe6cc;strokeColor=#d79b00;" parent="ZsYDu36mWSQMwu_I-Q52-1" vertex="1">
          
          <mxGeometry x="63" y="218" width="110" height="50" as="geometry" />
          
        </mxCell>
        
        <mxCell id="ZsYDu36mWSQMwu_I-Q52-14" style="edgeStyle=orthogonalEdgeStyle;rounded=1;orthogonalLoop=1;jettySize=auto;html=1;exitX=1;exitY=0.5;exitDx=0;exitDy=0;entryX=0;entryY=0.5;entryDx=0;entryDy=0;" parent="ZsYDu36mWSQMwu_I-Q52-1" source="ZsYDu36mWSQMwu_I-Q52-8" target="ZsYDu36mWSQMwu_I-Q52-13" edge="1">
          
          <mxGeometry relative="1" as="geometry" />
          
        </mxCell>
        
        <mxCell id="ZsYDu36mWSQMwu_I-Q52-8" value="&lt;div align=&quot;center&quot;&gt;Reads Alignment&lt;/div&gt;&lt;div align=&quot;center&quot;&gt;&lt;i&gt;[Minimap2]&lt;/i&gt;&lt;br&gt;&lt;/div&gt;" style="rounded=1;whiteSpace=wrap;html=1;align=center;" parent="ZsYDu36mWSQMwu_I-Q52-1" vertex="1">
          
          <mxGeometry x="180.5" y="20" width="110" height="50" as="geometry" />
          
        </mxCell>
        
        <mxCell id="ZsYDu36mWSQMwu_I-Q52-11" value="&lt;i&gt;ref.i&lt;/i&gt;" style="text;html=1;resizable=0;points=[];autosize=1;align=left;verticalAlign=top;spacingTop=-4;" parent="ZsYDu36mWSQMwu_I-Q52-1" vertex="1">
          
          <mxGeometry x="140" y="28" width="40" height="20" as="geometry" />
          
        </mxCell>
        
        <mxCell id="ZsYDu36mWSQMwu_I-Q52-17" style="edgeStyle=orthogonalEdgeStyle;rounded=1;orthogonalLoop=1;jettySize=auto;html=1;exitX=1;exitY=0.5;exitDx=0;exitDy=0;entryX=0;entryY=0.5;entryDx=0;entryDy=0;" parent="ZsYDu36mWSQMwu_I-Q52-1" source="ZsYDu36mWSQMwu_I-Q52-13" target="ZsYDu36mWSQMwu_I-Q52-16" edge="1">
          
          <mxGeometry relative="1" as="geometry" />
          
        </mxCell>
        
        <mxCell id="ZsYDu36mWSQMwu_I-Q52-13" value="Sort Alignments&lt;br&gt;&lt;div&gt;&lt;i&gt;[Samtools]&lt;br&gt;&lt;/i&gt;&lt;/div&gt;" style="rounded=1;whiteSpace=wrap;html=1;" parent="ZsYDu36mWSQMwu_I-Q52-1" vertex="1">
          
          <mxGeometry x="385" y="20" width="110" height="50" as="geometry" />
          
        </mxCell>
        
        <mxCell id="ZsYDu36mWSQMwu_I-Q52-15" value="&lt;div&gt;&lt;i&gt;Aligned reads&lt;/i&gt;&lt;/div&gt;" style="text;html=1;resizable=0;points=[];autosize=1;align=left;verticalAlign=top;spacingTop=-4;" parent="ZsYDu36mWSQMwu_I-Q52-1" vertex="1">
          
          <mxGeometry x="297" y="27" width="83" height="14" as="geometry" />
          
        </mxCell>
        
        <mxCell id="ZsYDu36mWSQMwu_I-Q52-64" style="edgeStyle=orthogonalEdgeStyle;rounded=1;orthogonalLoop=1;jettySize=auto;html=1;exitX=0.25;exitY=1;exitDx=0;exitDy=0;" parent="ZsYDu36mWSQMwu_I-Q52-1" source="ZsYDu36mWSQMwu_I-Q52-16" target="ZsYDu36mWSQMwu_I-Q52-22" edge="1">
          
          <mxGeometry relative="1" as="geometry">
            
            <Array as="points">
              
              <mxPoint x="650" y="88" />
              
              <mxPoint x="460" y="88" />
              
            </Array>
            
          </mxGeometry>
          
        </mxCell>
        
        <mxCell id="ZsYDu36mWSQMwu_I-Q52-16" value="Index Sorted Alignments&lt;br&gt;&lt;div&gt;&lt;i&gt;[Samtools]&lt;br&gt;&lt;/i&gt;&lt;/div&gt;" style="rounded=1;whiteSpace=wrap;html=1;" parent="ZsYDu36mWSQMwu_I-Q52-1" vertex="1">
          
          <mxGeometry x="622" y="20" width="110" height="50" as="geometry" />
          
        </mxCell>
        
        <mxCell id="ZsYDu36mWSQMwu_I-Q52-18" value="&lt;div&gt;&lt;i&gt;Sorted&lt;/i&gt;&lt;/div&gt;&lt;div&gt;&lt;i&gt; alignments&lt;/i&gt;&lt;/div&gt;" style="text;html=1;resizable=0;points=[];autosize=1;align=left;verticalAlign=top;spacingTop=-4;" parent="ZsYDu36mWSQMwu_I-Q52-1" vertex="1">
          
          <mxGeometry x="526" y="28" width="68" height="28" as="geometry" />
          
        </mxCell>
        
        <mxCell id="ZsYDu36mWSQMwu_I-Q52-19" value="&lt;div style=&quot;font-size: 11px&quot;&gt;&lt;font style=&quot;font-size: 11px&quot;&gt;Index base called reads &amp;amp; signal data&lt;/font&gt;&lt;/div&gt;&lt;div style=&quot;font-size: 11px&quot;&gt;&lt;font style=&quot;font-size: 11px&quot;&gt;&lt;i&gt;[F5C / Nanopolish&lt;/i&gt;&lt;/font&gt;&lt;i&gt;]&lt;/i&gt;&lt;/div&gt;" style="rounded=1;whiteSpace=wrap;html=1;" parent="ZsYDu36mWSQMwu_I-Q52-1" vertex="1">
          
          <mxGeometry x="251" y="132" width="110" height="50" as="geometry" />
          
        </mxCell>
        
        <mxCell id="FIVVujpShuAMEZpwBELW-2" style="edgeStyle=orthogonalEdgeStyle;rounded=0;orthogonalLoop=1;jettySize=auto;html=1;exitX=0.682;exitY=1.028;exitDx=0;exitDy=0;entryX=0.5;entryY=0;entryDx=0;entryDy=0;exitPerimeter=0;" parent="ZsYDu36mWSQMwu_I-Q52-1" source="ZsYDu36mWSQMwu_I-Q52-22" target="FIVVujpShuAMEZpwBELW-0" edge="1">
          
          <mxGeometry relative="1" as="geometry" />
          
        </mxCell>
        
        <mxCell id="ZsYDu36mWSQMwu_I-Q52-22" value="&lt;div&gt;Call Methylation &lt;br&gt;&lt;/div&gt;&lt;i&gt;[F5C]&lt;/i&gt;" style="rounded=1;whiteSpace=wrap;html=1;" parent="ZsYDu36mWSQMwu_I-Q52-1" vertex="1">
          
          <mxGeometry x="369" y="132" width="110" height="50" as="geometry" />
          
        </mxCell>
        
        <mxCell id="FIVVujpShuAMEZpwBELW-3" style="edgeStyle=orthogonalEdgeStyle;rounded=0;orthogonalLoop=1;jettySize=auto;html=1;exitX=0.718;exitY=1;exitDx=0;exitDy=0;entryX=0.5;entryY=0;entryDx=0;entryDy=0;exitPerimeter=0;" parent="ZsYDu36mWSQMwu_I-Q52-1" source="ZsYDu36mWSQMwu_I-Q52-39" target="FIVVujpShuAMEZpwBELW-1" edge="1">
          
          <mxGeometry relative="1" as="geometry" />
          
        </mxCell>
        
        <mxCell id="ZsYDu36mWSQMwu_I-Q52-39" value="&lt;div&gt;Align Events&lt;/div&gt;&lt;i&gt;[F5C]&lt;/i&gt;" style="rounded=1;whiteSpace=wrap;html=1;" parent="ZsYDu36mWSQMwu_I-Q52-1" vertex="1">
          
          <mxGeometry x="501" y="132" width="110" height="50" as="geometry" />
          
        </mxCell>
        
        <mxCell id="ZsYDu36mWSQMwu_I-Q52-72" value="&lt;i&gt;MinIT output&lt;/i&gt;" style="text;html=1;resizable=0;points=[];autosize=1;align=left;verticalAlign=top;spacingTop=-4;" parent="ZsYDu36mWSQMwu_I-Q52-1" vertex="1">
          
          <mxGeometry x="162" y="106" width="80" height="20" as="geometry" />
          
        </mxCell>
        
        <mxCell id="FIVVujpShuAMEZpwBELW-0" value="&lt;i&gt;Methylation ouput&lt;/i&gt;" style="rounded=1;whiteSpace=wrap;html=1;fillColor=#ffe6cc;strokeColor=#d79b00;" parent="ZsYDu36mWSQMwu_I-Q52-1" vertex="1">
          
          <mxGeometry x="389" y="197" width="110" height="50" as="geometry" />
          
        </mxCell>
        
        <mxCell id="B33jCQEvnbPhxR0CoCgl-8" style="edgeStyle=orthogonalEdgeStyle;rounded=0;orthogonalLoop=1;jettySize=auto;html=1;exitX=1;exitY=0.5;exitDx=0;exitDy=0;entryX=0;entryY=0.5;entryDx=0;entryDy=0;" parent="ZsYDu36mWSQMwu_I-Q52-1" source="FIVVujpShuAMEZpwBELW-1" target="B33jCQEvnbPhxR0CoCgl-1" edge="1">
          
          <mxGeometry relative="1" as="geometry" />
          
        </mxCell>
        
        <mxCell id="FIVVujpShuAMEZpwBELW-1" value="&lt;i&gt;Aligned events&lt;/i&gt;" style="rounded=1;whiteSpace=wrap;html=1;fillColor=#ffe6cc;strokeColor=#d79b00;" parent="ZsYDu36mWSQMwu_I-Q52-1" vertex="1">
          
          <mxGeometry x="523" y="197" width="110" height="50" as="geometry" />
          
        </mxCell>
        
        <mxCell id="B33jCQEvnbPhxR0CoCgl-0" value="&lt;i&gt;Variants output&lt;br&gt;&lt;/i&gt;" style="rounded=1;whiteSpace=wrap;html=1;fillColor=#ffe6cc;strokeColor=#d79b00;" parent="ZsYDu36mWSQMwu_I-Q52-1" vertex="1">
          
          <mxGeometry x="702" y="265" width="110" height="50" as="geometry" />
          
        </mxCell>
        
        <mxCell id="B33jCQEvnbPhxR0CoCgl-4" style="edgeStyle=orthogonalEdgeStyle;rounded=0;orthogonalLoop=1;jettySize=auto;html=1;exitX=0.75;exitY=1;exitDx=0;exitDy=0;entryX=0.5;entryY=0;entryDx=0;entryDy=0;" parent="ZsYDu36mWSQMwu_I-Q52-1" source="B33jCQEvnbPhxR0CoCgl-1" target="B33jCQEvnbPhxR0CoCgl-0" edge="1">
          
          <mxGeometry relative="1" as="geometry" />
          
        </mxCell>
        
        <mxCell id="B33jCQEvnbPhxR0CoCgl-1" value="&lt;div&gt;Call Variants&lt;/div&gt;&lt;div&gt;&lt;i&gt;[Nanopolish]&lt;/i&gt;&lt;/div&gt;" style="rounded=1;whiteSpace=wrap;html=1;" parent="ZsYDu36mWSQMwu_I-Q52-1" vertex="1">
          
          <mxGeometry x="678" y="197" width="110" height="50" as="geometry" />
          
        </mxCell>
        
        <mxCell id="B33jCQEvnbPhxR0CoCgl-2" style="edgeStyle=orthogonalEdgeStyle;rounded=1;orthogonalLoop=1;jettySize=auto;html=1;exitX=1;exitY=0.75;exitDx=0;exitDy=0;entryX=0.157;entryY=1.034;entryDx=0;entryDy=0;entryPerimeter=0;" parent="ZsYDu36mWSQMwu_I-Q52-1" source="ZsYDu36mWSQMwu_I-Q52-5" target="B33jCQEvnbPhxR0CoCgl-1" edge="1">
          
          <mxGeometry relative="1" as="geometry">
            
            <mxPoint x="137" y="320" as="sourcePoint" />
            
            <mxPoint x="576" y="283" as="targetPoint" />
            
          </mxGeometry>
          
        </mxCell>
        
        <mxCell id="B33jCQEvnbPhxR0CoCgl-3" style="edgeStyle=orthogonalEdgeStyle;rounded=1;orthogonalLoop=1;jettySize=auto;html=1;" parent="ZsYDu36mWSQMwu_I-Q52-1" edge="1">
          
          <mxGeometry relative="1" as="geometry">
            
            <mxPoint x="172" y="267" as="sourcePoint" />
            
            <mxPoint x="685" y="250" as="targetPoint" />
            
            <Array as="points">
              
              <mxPoint x="172" y="267" />
              
              <mxPoint x="685" y="267" />
              
            </Array>
            
          </mxGeometry>
          
        </mxCell>
        
        <mxCell id="B33jCQEvnbPhxR0CoCgl-5" value="" style="endArrow=classic;html=1;exitX=0.75;exitY=1;exitDx=0;exitDy=0;entryX=0.25;entryY=0;entryDx=0;entryDy=0;" parent="ZsYDu36mWSQMwu_I-Q52-1" source="ZsYDu36mWSQMwu_I-Q52-16" target="B33jCQEvnbPhxR0CoCgl-1" edge="1">
          
          <mxGeometry width="50" height="50" relative="1" as="geometry">
            
            <mxPoint x="628" y="148" as="sourcePoint" />
            
            <mxPoint x="709" y="197" as="targetPoint" />
            
          </mxGeometry>
          
        </mxCell>
        
        <mxCell id="B33jCQEvnbPhxR0CoCgl-7" value="&lt;div style=&quot;font-size: 11px&quot; align=&quot;center&quot;&gt;&lt;font style=&quot;font-size: 11px&quot;&gt;&lt;i&gt;&lt;font style=&quot;font-size: 11px&quot;&gt;Before using &lt;br&gt;&lt;/font&gt;&lt;/i&gt;&lt;/font&gt;&lt;/div&gt;&lt;div style=&quot;font-size: 11px&quot; align=&quot;center&quot;&gt;&lt;font style=&quot;font-size: 11px&quot;&gt;&lt;i&gt;&lt;font style=&quot;font-size: 11px&quot;&gt;F5C or Nanopolish&lt;/font&gt;&lt;/i&gt;&lt;/font&gt;&lt;/div&gt;" style="text;html=1;resizable=0;points=[];autosize=1;align=center;verticalAlign=top;spacingTop=-4;" parent="ZsYDu36mWSQMwu_I-Q52-1" vertex="1">
          
          <mxGeometry x="254" y="97" width="102" height="28" as="geometry" />
          
        </mxCell>
        
        <mxCell id="B33jCQEvnbPhxR0CoCgl-9" value="&lt;font style=&quot;font-size: 10px&quot;&gt;&lt;i&gt;optional&lt;/i&gt;&lt;/font&gt;" style="text;html=1;resizable=0;points=[];autosize=1;align=center;verticalAlign=top;spacingTop=-4;" parent="ZsYDu36mWSQMwu_I-Q52-1" vertex="1">
          
          <mxGeometry x="630" y="200" width="45" height="15" as="geometry" />
          
        </mxCell>
        
        <mxCell id="B33jCQEvnbPhxR0CoCgl-10" style="edgeStyle=orthogonalEdgeStyle;rounded=1;orthogonalLoop=1;jettySize=auto;html=1;exitX=0.5;exitY=1;exitDx=0;exitDy=0;entryX=1;entryY=0.5;entryDx=0;entryDy=0;" parent="ZsYDu36mWSQMwu_I-Q52-1" source="ZsYDu36mWSQMwu_I-Q52-16" target="ZsYDu36mWSQMwu_I-Q52-39" edge="1">
          
          <mxGeometry relative="1" as="geometry">
            
            <mxPoint x="642.45" y="78.85000000000002" as="sourcePoint" />
            
            <mxPoint x="470" y="142" as="targetPoint" />
            
            <Array as="points">
              
              <mxPoint x="677" y="157" />
              
            </Array>
            
          </mxGeometry>
          
        </mxCell>
        
        <mxCell id="B33jCQEvnbPhxR0CoCgl-11" value="&lt;div&gt;&lt;i&gt;Aligned &amp;amp; indexed reads&lt;/i&gt;&lt;/div&gt;" style="text;html=1;resizable=0;points=[];autosize=1;align=left;verticalAlign=top;spacingTop=-4;" parent="ZsYDu36mWSQMwu_I-Q52-1" vertex="1">
          
          <mxGeometry x="577" y="91" width="140" height="14" as="geometry" />
          
        </mxCell>
        
        <mxCell id="B33jCQEvnbPhxR0CoCgl-12" value="&lt;font style=&quot;font-size: 11px&quot;&gt;&lt;i&gt;optional&lt;/i&gt;&lt;/font&gt;" style="text;html=1;resizable=0;points=[];autosize=1;align=center;verticalAlign=top;spacingTop=-4;" parent="ZsYDu36mWSQMwu_I-Q52-1" vertex="1">
          
          <mxGeometry x="48" y="26" width="49" height="15" as="geometry" />
          
        </mxCell>
        
        <mxCell id="B33jCQEvnbPhxR0CoCgl-17" value="&lt;div align=&quot;center&quot;&gt;Partition Reference&lt;/div&gt;" style="text;html=1;resizable=0;points=[];autosize=1;align=center;verticalAlign=top;spacingTop=-4;" parent="ZsYDu36mWSQMwu_I-Q52-1" vertex="1">
          
          <mxGeometry x="21" y="45" width="113" height="14" as="geometry" />
          
        </mxCell>
        
      </root>
      
    </mxGraphModel>
    
  </diagram>
  <diagram name="without_variant_calling" id="PYloj9qg9GsCrFeisVvK">
    
    <mxGraphModel dx="811" dy="495" grid="0" gridSize="10" guides="1" tooltips="1" connect="1" arrows="1" fold="1" page="1" pageScale="1" pageWidth="827" pageHeight="345" math="0" shadow="0">
      
      <root>
        
        <mxCell id="3kecb-mI4Jbi1s-eHNr--0" />
        
        <mxCell id="3kecb-mI4Jbi1s-eHNr--1" parent="3kecb-mI4Jbi1s-eHNr--0" />
        
        <mxCell id="3kecb-mI4Jbi1s-eHNr--2" value="" style="rounded=1;whiteSpace=wrap;html=1;dashed=1;align=center;" vertex="1" parent="3kecb-mI4Jbi1s-eHNr--1">
          
          <mxGeometry x="45" y="142" width="110" height="50" as="geometry" />
          
        </mxCell>
        
        <mxCell id="3kecb-mI4Jbi1s-eHNr--3" value="" style="rounded=0;whiteSpace=wrap;html=1;dashed=1;fillColor=#fff2cc;strokeColor=#d6b656;" vertex="1" parent="3kecb-mI4Jbi1s-eHNr--1">
          
          <mxGeometry x="167" y="123" width="175" height="156" as="geometry" />
          
        </mxCell>
        
        <mxCell id="3kecb-mI4Jbi1s-eHNr--4" style="edgeStyle=orthogonalEdgeStyle;rounded=1;orthogonalLoop=1;jettySize=auto;html=1;exitX=0;exitY=0.58;exitDx=0;exitDy=0;entryX=0;entryY=0.5;entryDx=0;entryDy=0;exitPerimeter=0;" edge="1" parent="3kecb-mI4Jbi1s-eHNr--1" source="3kecb-mI4Jbi1s-eHNr--7" target="3kecb-mI4Jbi1s-eHNr--16">
          
          <mxGeometry relative="1" as="geometry">
            
            <Array as="points">
              
              <mxPoint x="96" y="318" />
              
              <mxPoint x="96" y="45" />
              
            </Array>
            
          </mxGeometry>
          
        </mxCell>
        
        <mxCell id="3kecb-mI4Jbi1s-eHNr--5" style="edgeStyle=orthogonalEdgeStyle;rounded=1;orthogonalLoop=1;jettySize=auto;html=1;exitX=1;exitY=0.5;exitDx=0;exitDy=0;entryX=0.146;entryY=1.001;entryDx=0;entryDy=0;entryPerimeter=0;" edge="1" parent="3kecb-mI4Jbi1s-eHNr--1" source="3kecb-mI4Jbi1s-eHNr--7" target="3kecb-mI4Jbi1s-eHNr--28">
          
          <mxGeometry relative="1" as="geometry" />
          
        </mxCell>
        
        <mxCell id="3kecb-mI4Jbi1s-eHNr--6" style="edgeStyle=orthogonalEdgeStyle;rounded=1;orthogonalLoop=1;jettySize=auto;html=1;exitX=1;exitY=0.25;exitDx=0;exitDy=0;entryX=0.136;entryY=1;entryDx=0;entryDy=0;entryPerimeter=0;" edge="1" parent="3kecb-mI4Jbi1s-eHNr--1" source="3kecb-mI4Jbi1s-eHNr--7" target="3kecb-mI4Jbi1s-eHNr--26">
          
          <mxGeometry relative="1" as="geometry" />
          
        </mxCell>
        
        <mxCell id="3kecb-mI4Jbi1s-eHNr--7" value="&lt;i&gt;Reference Genome&lt;/i&gt;" style="rounded=1;whiteSpace=wrap;html=1;fillColor=#ffe6cc;strokeColor=#d79b00;" vertex="1" parent="3kecb-mI4Jbi1s-eHNr--1">
          
          <mxGeometry x="242" y="289" width="110" height="50" as="geometry" />
          
        </mxCell>
        
        <mxCell id="3kecb-mI4Jbi1s-eHNr--8" style="edgeStyle=orthogonalEdgeStyle;rounded=1;orthogonalLoop=1;jettySize=auto;html=1;exitX=1;exitY=0.5;exitDx=0;exitDy=0;entryX=0;entryY=0.5;entryDx=0;entryDy=0;" edge="1" parent="3kecb-mI4Jbi1s-eHNr--1" source="3kecb-mI4Jbi1s-eHNr--9" target="3kecb-mI4Jbi1s-eHNr--24">
          
          <mxGeometry relative="1" as="geometry" />
          
        </mxCell>
        
        <mxCell id="3kecb-mI4Jbi1s-eHNr--9" value="&lt;i&gt;Fast5 files&lt;/i&gt;" style="rounded=1;whiteSpace=wrap;html=1;fillColor=#ffe6cc;strokeColor=#d79b00;" vertex="1" parent="3kecb-mI4Jbi1s-eHNr--1">
          
          <mxGeometry x="222" y="132" width="110" height="50" as="geometry" />
          
        </mxCell>
        
        <mxCell id="3kecb-mI4Jbi1s-eHNr--11" style="edgeStyle=orthogonalEdgeStyle;rounded=1;orthogonalLoop=1;jettySize=auto;html=1;exitX=1;exitY=0.5;exitDx=0;exitDy=0;entryX=0.055;entryY=0.993;entryDx=0;entryDy=0;entryPerimeter=0;" edge="1" parent="3kecb-mI4Jbi1s-eHNr--1" source="3kecb-mI4Jbi1s-eHNr--14" target="3kecb-mI4Jbi1s-eHNr--26">
          
          <mxGeometry relative="1" as="geometry" />
          
        </mxCell>
        
        <mxCell id="3kecb-mI4Jbi1s-eHNr--12" style="edgeStyle=orthogonalEdgeStyle;rounded=1;orthogonalLoop=1;jettySize=auto;html=1;exitX=1;exitY=0.75;exitDx=0;exitDy=0;entryX=0.053;entryY=1.015;entryDx=0;entryDy=0;entryPerimeter=0;" edge="1" parent="3kecb-mI4Jbi1s-eHNr--1" source="3kecb-mI4Jbi1s-eHNr--14" target="3kecb-mI4Jbi1s-eHNr--28">
          
          <mxGeometry relative="1" as="geometry" />
          
        </mxCell>
        
        <mxCell id="3kecb-mI4Jbi1s-eHNr--13" style="edgeStyle=orthogonalEdgeStyle;rounded=1;orthogonalLoop=1;jettySize=auto;html=1;exitX=1;exitY=0.25;exitDx=0;exitDy=0;entryX=0.5;entryY=1;entryDx=0;entryDy=0;" edge="1" parent="3kecb-mI4Jbi1s-eHNr--1" source="3kecb-mI4Jbi1s-eHNr--14" target="3kecb-mI4Jbi1s-eHNr--24">
          
          <mxGeometry relative="1" as="geometry" />
          
        </mxCell>
        
        <mxCell id="3kecb-mI4Jbi1s-eHNr--52" style="edgeStyle=orthogonalEdgeStyle;rounded=0;orthogonalLoop=1;jettySize=auto;html=1;exitX=0.25;exitY=0;exitDx=0;exitDy=0;entryX=0.25;entryY=1;entryDx=0;entryDy=0;" edge="1" parent="3kecb-mI4Jbi1s-eHNr--1" source="3kecb-mI4Jbi1s-eHNr--14" target="3kecb-mI4Jbi1s-eHNr--16">
          
          <mxGeometry relative="1" as="geometry" />
          
        </mxCell>
        
        <mxCell id="3kecb-mI4Jbi1s-eHNr--14" value="&lt;i&gt;reads.fasta&lt;/i&gt;" style="rounded=1;whiteSpace=wrap;html=1;fillColor=#ffe6cc;strokeColor=#d79b00;" vertex="1" parent="3kecb-mI4Jbi1s-eHNr--1">
          
          <mxGeometry x="180" y="218" width="112" height="50" as="geometry" />
          
        </mxCell>
        
        <mxCell id="3kecb-mI4Jbi1s-eHNr--15" style="edgeStyle=orthogonalEdgeStyle;rounded=1;orthogonalLoop=1;jettySize=auto;html=1;exitX=1;exitY=0.5;exitDx=0;exitDy=0;entryX=0;entryY=0.5;entryDx=0;entryDy=0;" edge="1" parent="3kecb-mI4Jbi1s-eHNr--1" source="3kecb-mI4Jbi1s-eHNr--16" target="3kecb-mI4Jbi1s-eHNr--19">
          
          <mxGeometry relative="1" as="geometry" />
          
        </mxCell>
        
        <mxCell id="3kecb-mI4Jbi1s-eHNr--16" value="&lt;div align=&quot;center&quot;&gt;Reads Alignment&lt;/div&gt;&lt;div align=&quot;center&quot;&gt;&lt;i&gt;[Minimap2]&lt;/i&gt;&lt;br&gt;&lt;/div&gt;" style="rounded=1;whiteSpace=wrap;html=1;align=center;" vertex="1" parent="3kecb-mI4Jbi1s-eHNr--1">
          
          <mxGeometry x="180.5" y="20" width="110" height="50" as="geometry" />
          
        </mxCell>
        
        <mxCell id="3kecb-mI4Jbi1s-eHNr--17" value="&lt;i&gt;ref.i&lt;/i&gt;" style="text;html=1;resizable=0;points=[];autosize=1;align=left;verticalAlign=top;spacingTop=-4;" vertex="1" parent="3kecb-mI4Jbi1s-eHNr--1">
          
          <mxGeometry x="140" y="28" width="40" height="20" as="geometry" />
          
        </mxCell>
        
        <mxCell id="3kecb-mI4Jbi1s-eHNr--18" style="edgeStyle=orthogonalEdgeStyle;rounded=1;orthogonalLoop=1;jettySize=auto;html=1;exitX=1;exitY=0.5;exitDx=0;exitDy=0;entryX=0;entryY=0.5;entryDx=0;entryDy=0;" edge="1" parent="3kecb-mI4Jbi1s-eHNr--1" source="3kecb-mI4Jbi1s-eHNr--19" target="3kecb-mI4Jbi1s-eHNr--22">
          
          <mxGeometry relative="1" as="geometry" />
          
        </mxCell>
        
        <mxCell id="3kecb-mI4Jbi1s-eHNr--19" value="Sort Alignments&lt;br&gt;&lt;div&gt;&lt;i&gt;[Samtools]&lt;br&gt;&lt;/i&gt;&lt;/div&gt;" style="rounded=1;whiteSpace=wrap;html=1;" vertex="1" parent="3kecb-mI4Jbi1s-eHNr--1">
          
          <mxGeometry x="385" y="20" width="110" height="50" as="geometry" />
          
        </mxCell>
        
        <mxCell id="3kecb-mI4Jbi1s-eHNr--20" value="&lt;div&gt;&lt;i&gt;Aligned reads&lt;/i&gt;&lt;/div&gt;" style="text;html=1;resizable=0;points=[];autosize=1;align=left;verticalAlign=top;spacingTop=-4;" vertex="1" parent="3kecb-mI4Jbi1s-eHNr--1">
          
          <mxGeometry x="297" y="27" width="83" height="14" as="geometry" />
          
        </mxCell>
        
        <mxCell id="3kecb-mI4Jbi1s-eHNr--47" style="edgeStyle=orthogonalEdgeStyle;rounded=0;orthogonalLoop=1;jettySize=auto;html=1;exitX=0.5;exitY=1;exitDx=0;exitDy=0;entryX=0.5;entryY=0;entryDx=0;entryDy=0;" edge="1" parent="3kecb-mI4Jbi1s-eHNr--1" source="3kecb-mI4Jbi1s-eHNr--22" target="3kecb-mI4Jbi1s-eHNr--28">
          
          <mxGeometry relative="1" as="geometry" />
          
        </mxCell>
        
        <mxCell id="3kecb-mI4Jbi1s-eHNr--49" style="edgeStyle=orthogonalEdgeStyle;rounded=1&#xa;;orthogonalLoop=1;jettySize=auto;html=1;exitX=0.25;exitY=1;exitDx=0;exitDy=0;entryX=0.5;entryY=0;entryDx=0;entryDy=0;" edge="1" parent="3kecb-mI4Jbi1s-eHNr--1" source="3kecb-mI4Jbi1s-eHNr--22" target="3kecb-mI4Jbi1s-eHNr--26">
          
          <mxGeometry relative="1" as="geometry">
            
            <Array as="points">
              
              <mxPoint x="650" y="91" />
              
              <mxPoint x="545" y="91" />
              
            </Array>
            
          </mxGeometry>
          
        </mxCell>
        
        <mxCell id="3kecb-mI4Jbi1s-eHNr--22" value="Index Sorted Alignments&lt;br&gt;&lt;div&gt;&lt;i&gt;[Samtools]&lt;br&gt;&lt;/i&gt;&lt;/div&gt;" style="rounded=1;whiteSpace=wrap;html=1;" vertex="1" parent="3kecb-mI4Jbi1s-eHNr--1">
          
          <mxGeometry x="622" y="20" width="110" height="50" as="geometry" />
          
        </mxCell>
        
        <mxCell id="3kecb-mI4Jbi1s-eHNr--23" value="&lt;div&gt;&lt;i&gt;Sorted&lt;/i&gt;&lt;/div&gt;&lt;div&gt;&lt;i&gt; alignments&lt;/i&gt;&lt;/div&gt;" style="text;html=1;resizable=0;points=[];autosize=1;align=left;verticalAlign=top;spacingTop=-4;" vertex="1" parent="3kecb-mI4Jbi1s-eHNr--1">
          
          <mxGeometry x="526" y="28" width="68" height="28" as="geometry" />
          
        </mxCell>
        
        <mxCell id="3kecb-mI4Jbi1s-eHNr--24" value="&lt;div style=&quot;font-size: 11px&quot;&gt;&lt;font style=&quot;font-size: 11px&quot;&gt;Index base called reads &amp;amp; signal data&lt;/font&gt;&lt;/div&gt;&lt;div style=&quot;font-size: 11px&quot;&gt;&lt;font style=&quot;font-size: 11px&quot;&gt;&lt;i&gt;[F5C / Nanopolish&lt;/i&gt;&lt;/font&gt;&lt;i&gt;]&lt;/i&gt;&lt;/div&gt;" style="rounded=1;whiteSpace=wrap;html=1;" vertex="1" parent="3kecb-mI4Jbi1s-eHNr--1">
          
          <mxGeometry x="355" y="132" width="110" height="50" as="geometry" />
          
        </mxCell>
        
        <mxCell id="3kecb-mI4Jbi1s-eHNr--25" style="edgeStyle=orthogonalEdgeStyle;rounded=0;orthogonalLoop=1;jettySize=auto;html=1;exitX=0.682;exitY=1.028;exitDx=0;exitDy=0;entryX=0.5;entryY=0;entryDx=0;entryDy=0;exitPerimeter=0;" edge="1" parent="3kecb-mI4Jbi1s-eHNr--1" source="3kecb-mI4Jbi1s-eHNr--26" target="3kecb-mI4Jbi1s-eHNr--30">
          
          <mxGeometry relative="1" as="geometry" />
          
        </mxCell>
        
        <mxCell id="3kecb-mI4Jbi1s-eHNr--26" value="&lt;div&gt;Call Methylation &lt;br&gt;&lt;/div&gt;&lt;i&gt;[F5C]&lt;/i&gt;" style="rounded=1;whiteSpace=wrap;html=1;" vertex="1" parent="3kecb-mI4Jbi1s-eHNr--1">
          
          <mxGeometry x="490" y="132" width="110" height="50" as="geometry" />
          
        </mxCell>
        
        <mxCell id="3kecb-mI4Jbi1s-eHNr--27" style="edgeStyle=orthogonalEdgeStyle;rounded=0;orthogonalLoop=1;jettySize=auto;html=1;exitX=0.718;exitY=1;exitDx=0;exitDy=0;entryX=0.5;entryY=0;entryDx=0;entryDy=0;exitPerimeter=0;" edge="1" parent="3kecb-mI4Jbi1s-eHNr--1" source="3kecb-mI4Jbi1s-eHNr--28" target="3kecb-mI4Jbi1s-eHNr--32">
          
          <mxGeometry relative="1" as="geometry" />
          
        </mxCell>
        
        <mxCell id="3kecb-mI4Jbi1s-eHNr--28" value="&lt;div&gt;Align Events&lt;/div&gt;&lt;i&gt;[F5C]&lt;/i&gt;" style="rounded=1;whiteSpace=wrap;html=1;" vertex="1" parent="3kecb-mI4Jbi1s-eHNr--1">
          
          <mxGeometry x="622" y="132" width="110" height="50" as="geometry" />
          
        </mxCell>
        
        <mxCell id="3kecb-mI4Jbi1s-eHNr--29" value="&lt;i&gt;MinIT output&lt;/i&gt;" style="text;html=1;resizable=0;points=[];autosize=1;align=left;verticalAlign=top;spacingTop=-4;" vertex="1" parent="3kecb-mI4Jbi1s-eHNr--1">
          
          <mxGeometry x="266" y="106" width="80" height="20" as="geometry" />
          
        </mxCell>
        
        <mxCell id="3kecb-mI4Jbi1s-eHNr--30" value="&lt;i&gt;Methylation ouput&lt;/i&gt;" style="rounded=1;whiteSpace=wrap;html=1;fillColor=#ffe6cc;strokeColor=#d79b00;" vertex="1" parent="3kecb-mI4Jbi1s-eHNr--1">
          
          <mxGeometry x="510" y="197" width="110" height="50" as="geometry" />
          
        </mxCell>
        
        <mxCell id="3kecb-mI4Jbi1s-eHNr--32" value="&lt;i&gt;Aligned events&lt;/i&gt;" style="rounded=1;whiteSpace=wrap;html=1;fillColor=#ffe6cc;strokeColor=#d79b00;" vertex="1" parent="3kecb-mI4Jbi1s-eHNr--1">
          
          <mxGeometry x="644" y="197" width="110" height="50" as="geometry" />
          
        </mxCell>
        
        <mxCell id="3kecb-mI4Jbi1s-eHNr--39" value="&lt;div style=&quot;font-size: 11px&quot; align=&quot;center&quot;&gt;&lt;font style=&quot;font-size: 11px&quot;&gt;&lt;i&gt;&lt;font style=&quot;font-size: 11px&quot;&gt;Before using F5C&lt;/font&gt;&lt;/i&gt;&lt;/font&gt;&lt;/div&gt;" style="text;html=1;resizable=0;points=[];autosize=1;align=center;verticalAlign=top;spacingTop=-4;" vertex="1" parent="3kecb-mI4Jbi1s-eHNr--1">
          
          <mxGeometry x="361" y="109" width="96" height="14" as="geometry" />
          
        </mxCell>
        
        <mxCell id="3kecb-mI4Jbi1s-eHNr--42" value="&lt;div&gt;&lt;i&gt;Aligned &amp;amp; indexed reads&lt;/i&gt;&lt;/div&gt;" style="text;html=1;resizable=0;points=[];autosize=1;align=left;verticalAlign=top;spacingTop=-4;" vertex="1" parent="3kecb-mI4Jbi1s-eHNr--1">
          
          <mxGeometry x="577" y="91" width="140" height="14" as="geometry" />
          
        </mxCell>
        
        <mxCell id="3kecb-mI4Jbi1s-eHNr--43" value="&lt;font style=&quot;font-size: 11px&quot;&gt;&lt;i&gt;optional&lt;/i&gt;&lt;/font&gt;" style="text;html=1;resizable=0;points=[];autosize=1;align=center;verticalAlign=top;spacingTop=-4;" vertex="1" parent="3kecb-mI4Jbi1s-eHNr--1">
          
          <mxGeometry x="71" y="148" width="49" height="15" as="geometry" />
          
        </mxCell>
        
        <mxCell id="3kecb-mI4Jbi1s-eHNr--44" value="&lt;div align=&quot;center&quot;&gt;Partition Reference&lt;/div&gt;" style="text;html=1;resizable=0;points=[];autosize=1;align=center;verticalAlign=top;spacingTop=-4;" vertex="1" parent="3kecb-mI4Jbi1s-eHNr--1">
          
          <mxGeometry x="44" y="167" width="113" height="14" as="geometry" />
          
        </mxCell>
        
      </root>
      
    </mxGraphModel>
    
  </diagram>
  <diagram name="ArticPipeline" id="SksNvTs0ILngdR5F5tTq">
    <mxGraphModel dx="797" dy="481" grid="0" gridSize="10" guides="1" tooltips="1" connect="1" arrows="1" fold="1" page="1" pageScale="1" pageWidth="730" pageHeight="440" math="0" shadow="0">
      <root>
        <mxCell id="JaywE-1XMddzR5eYZWAe-0" />
        <mxCell id="JaywE-1XMddzR5eYZWAe-1" parent="JaywE-1XMddzR5eYZWAe-0" />
        <mxCell id="qWaSu_paVNqCHDa9mgIj-3" style="edgeStyle=orthogonalEdgeStyle;rounded=0;orthogonalLoop=1;jettySize=auto;html=1;exitX=1;exitY=0.5;exitDx=0;exitDy=0;entryX=0;entryY=0.5;entryDx=0;entryDy=0;" parent="JaywE-1XMddzR5eYZWAe-1" source="qWaSu_paVNqCHDa9mgIj-2" target="JaywE-1XMddzR5eYZWAe-24" edge="1">
          <mxGeometry relative="1" as="geometry" />
        </mxCell>
        <mxCell id="qWaSu_paVNqCHDa9mgIj-2" value="" style="rounded=0;whiteSpace=wrap;html=1;fillColor=#fff2cc;strokeColor=#d6b656;dashed=1;" parent="JaywE-1XMddzR5eYZWAe-1" vertex="1">
          <mxGeometry x="135" y="89" width="272" height="64" as="geometry" />
        </mxCell>
        <mxCell id="qWaSu_paVNqCHDa9mgIj-6" style="edgeStyle=orthogonalEdgeStyle;rounded=0;orthogonalLoop=1;jettySize=auto;html=1;exitX=0.5;exitY=0;exitDx=0;exitDy=0;entryX=0.5;entryY=1;entryDx=0;entryDy=0;" parent="JaywE-1XMddzR5eYZWAe-1" source="JaywE-1XMddzR5eYZWAe-7" target="JaywE-1XMddzR5eYZWAe-16" edge="1">
          <mxGeometry relative="1" as="geometry" />
        </mxCell>
        <mxCell id="qWaSu_paVNqCHDa9mgIj-7" style="edgeStyle=orthogonalEdgeStyle;rounded=1&#xa;;orthogonalLoop=1;jettySize=auto;html=1;exitX=0.75;exitY=0;exitDx=0;exitDy=0;entryX=0.138;entryY=-0.012;entryDx=0;entryDy=0;entryPerimeter=0;" parent="JaywE-1XMddzR5eYZWAe-1" source="JaywE-1XMddzR5eYZWAe-7" target="JaywE-1XMddzR5eYZWAe-52" edge="1">
          <mxGeometry relative="1" as="geometry">
            <Array as="points">
              <mxPoint x="89" y="160" />
              <mxPoint x="590" y="160" />
            </Array>
          </mxGeometry>
        </mxCell>
        <mxCell id="wI3yUqJXAVgagyo7Kri2-1" style="edgeStyle=orthogonalEdgeStyle;rounded=0;orthogonalLoop=1;jettySize=auto;html=1;exitX=1;exitY=0.5;exitDx=0;exitDy=0;entryX=0;entryY=0.5;entryDx=0;entryDy=0;" parent="JaywE-1XMddzR5eYZWAe-1" source="JaywE-1XMddzR5eYZWAe-7" target="JaywE-1XMddzR5eYZWAe-70" edge="1">
          <mxGeometry relative="1" as="geometry" />
        </mxCell>
        <mxCell id="JaywE-1XMddzR5eYZWAe-7" value="&lt;i&gt;Reference Genome&lt;/i&gt;" style="rounded=1;whiteSpace=wrap;html=1;fillColor=#ffe6cc;strokeColor=#d79b00;" parent="JaywE-1XMddzR5eYZWAe-1" vertex="1">
          <mxGeometry x="6" y="318" width="110" height="50" as="geometry" />
        </mxCell>
        <mxCell id="JaywE-1XMddzR5eYZWAe-9" value="&lt;i&gt;Fast5 files&lt;/i&gt;" style="rounded=1;whiteSpace=wrap;html=1;fillColor=#ffe6cc;strokeColor=#d79b00;" parent="JaywE-1XMddzR5eYZWAe-1" vertex="1">
          <mxGeometry x="289" y="96" width="110" height="50" as="geometry" />
        </mxCell>
        <mxCell id="qWaSu_paVNqCHDa9mgIj-31" style="edgeStyle=orthogonalEdgeStyle;rounded=1;orthogonalLoop=1;jettySize=auto;html=1;exitX=0;exitY=0.5;exitDx=0;exitDy=0;entryX=0.75;entryY=1;entryDx=0;entryDy=0;" parent="JaywE-1XMddzR5eYZWAe-1" source="JaywE-1XMddzR5eYZWAe-14" target="JaywE-1XMddzR5eYZWAe-16" edge="1">
          <mxGeometry relative="1" as="geometry" />
        </mxCell>
        <mxCell id="JaywE-1XMddzR5eYZWAe-14" value="&lt;i&gt;reads.fasta&lt;/i&gt;" style="rounded=1;whiteSpace=wrap;html=1;fillColor=#ffe6cc;strokeColor=#d79b00;" parent="JaywE-1XMddzR5eYZWAe-1" vertex="1">
          <mxGeometry x="144" y="96" width="110" height="50" as="geometry" />
        </mxCell>
        <mxCell id="JaywE-1XMddzR5eYZWAe-15" style="edgeStyle=orthogonalEdgeStyle;rounded=1;orthogonalLoop=1;jettySize=auto;html=1;exitX=1;exitY=0.5;exitDx=0;exitDy=0;entryX=0;entryY=0.5;entryDx=0;entryDy=0;" parent="JaywE-1XMddzR5eYZWAe-1" source="JaywE-1XMddzR5eYZWAe-16" target="JaywE-1XMddzR5eYZWAe-19" edge="1">
          <mxGeometry relative="1" as="geometry" />
        </mxCell>
        <mxCell id="JaywE-1XMddzR5eYZWAe-16" value="&lt;div align=&quot;center&quot;&gt;Reads Alignment&lt;/div&gt;&lt;div align=&quot;center&quot;&gt;&lt;i&gt;[Minimap2]&lt;/i&gt;&lt;br&gt;&lt;/div&gt;" style="rounded=1;whiteSpace=wrap;html=1;align=center;" parent="JaywE-1XMddzR5eYZWAe-1" vertex="1">
          <mxGeometry x="6" y="15" width="110" height="50" as="geometry" />
        </mxCell>
        <mxCell id="JaywE-1XMddzR5eYZWAe-18" style="edgeStyle=orthogonalEdgeStyle;rounded=1;orthogonalLoop=1;jettySize=auto;html=1;exitX=1;exitY=0.5;exitDx=0;exitDy=0;entryX=0;entryY=0.5;entryDx=0;entryDy=0;" parent="JaywE-1XMddzR5eYZWAe-1" source="JaywE-1XMddzR5eYZWAe-19" target="JaywE-1XMddzR5eYZWAe-22" edge="1">
          <mxGeometry relative="1" as="geometry" />
        </mxCell>
        <mxCell id="JaywE-1XMddzR5eYZWAe-19" value="Sort Alignments&lt;br&gt;&lt;div&gt;&lt;i&gt;[Samtools]&lt;br&gt;&lt;/i&gt;&lt;/div&gt;" style="rounded=1;whiteSpace=wrap;html=1;" parent="JaywE-1XMddzR5eYZWAe-1" vertex="1">
          <mxGeometry x="145" y="15" width="110" height="50" as="geometry" />
        </mxCell>
        <mxCell id="JaywE-1XMddzR5eYZWAe-48" style="edgeStyle=orthogonalEdgeStyle;rounded=0;orthogonalLoop=1;jettySize=auto;html=1;exitX=1;exitY=0.5;exitDx=0;exitDy=0;entryX=0;entryY=0.5;entryDx=0;entryDy=0;" parent="JaywE-1XMddzR5eYZWAe-1" source="JaywE-1XMddzR5eYZWAe-22" target="JaywE-1XMddzR5eYZWAe-46" edge="1">
          <mxGeometry relative="1" as="geometry" />
        </mxCell>
        <mxCell id="JaywE-1XMddzR5eYZWAe-22" value="Index Sorted Alignments&lt;br&gt;&lt;div&gt;&lt;i&gt;[Samtools]&lt;br&gt;&lt;/i&gt;&lt;/div&gt;" style="rounded=1;whiteSpace=wrap;html=1;" parent="JaywE-1XMddzR5eYZWAe-1" vertex="1">
          <mxGeometry x="289" y="15" width="110" height="50" as="geometry" />
        </mxCell>
        <mxCell id="qWaSu_paVNqCHDa9mgIj-5" style="edgeStyle=orthogonalEdgeStyle;rounded=1;orthogonalLoop=1;jettySize=auto;html=1;exitX=1;exitY=0.5;exitDx=0;exitDy=0;entryX=0.313;entryY=-0.004;entryDx=0;entryDy=0;entryPerimeter=0;" parent="JaywE-1XMddzR5eYZWAe-1" source="JaywE-1XMddzR5eYZWAe-24" target="JaywE-1XMddzR5eYZWAe-52" edge="1">
          <mxGeometry relative="1" as="geometry">
            <Array as="points">
              <mxPoint x="559" y="121" />
              <mxPoint x="559" y="153" />
              <mxPoint x="609" y="153" />
              <mxPoint x="609" y="181" />
            </Array>
          </mxGeometry>
        </mxCell>
        <mxCell id="JaywE-1XMddzR5eYZWAe-24" value="&lt;div style=&quot;font-size: 11px&quot;&gt;&lt;font style=&quot;font-size: 11px&quot;&gt;Index base called reads &amp;amp; signal data&lt;/font&gt;&lt;/div&gt;&lt;div style=&quot;font-size: 11px&quot;&gt;&lt;font style=&quot;font-size: 11px&quot;&gt;&lt;i&gt;[Nanopolish&lt;/i&gt;&lt;/font&gt;&lt;i&gt;]&lt;/i&gt;&lt;/div&gt;" style="rounded=1;whiteSpace=wrap;html=1;" parent="JaywE-1XMddzR5eYZWAe-1" vertex="1">
          <mxGeometry x="432" y="96" width="110" height="50" as="geometry" />
        </mxCell>
        <mxCell id="JaywE-1XMddzR5eYZWAe-29" value="&lt;i&gt;MinIT output&lt;/i&gt;" style="text;html=1;resizable=0;points=[];autosize=1;align=left;verticalAlign=top;spacingTop=-4;" parent="JaywE-1XMddzR5eYZWAe-1" vertex="1">
          <mxGeometry x="137" y="71" width="80" height="20" as="geometry" />
        </mxCell>
        <mxCell id="JaywE-1XMddzR5eYZWAe-39" value="&lt;div style=&quot;font-size: 11px&quot; align=&quot;center&quot;&gt;&lt;font style=&quot;font-size: 11px&quot;&gt;&lt;i&gt;&lt;font style=&quot;font-size: 11px&quot;&gt;Before using Nanopolish&lt;/font&gt;&lt;/i&gt;&lt;/font&gt;&lt;/div&gt;" style="text;html=1;resizable=0;points=[];autosize=1;align=center;verticalAlign=top;spacingTop=-4;" parent="JaywE-1XMddzR5eYZWAe-1" vertex="1">
          <mxGeometry x="418" y="75" width="130" height="14" as="geometry" />
        </mxCell>
        <mxCell id="JaywE-1XMddzR5eYZWAe-92" style="edgeStyle=orthogonalEdgeStyle;rounded=0;orthogonalLoop=1;jettySize=auto;html=1;exitX=1;exitY=0.5;exitDx=0;exitDy=0;entryX=0;entryY=0.5;entryDx=0;entryDy=0;" parent="JaywE-1XMddzR5eYZWAe-1" source="JaywE-1XMddzR5eYZWAe-46" target="JaywE-1XMddzR5eYZWAe-47" edge="1">
          <mxGeometry relative="1" as="geometry" />
        </mxCell>
        <mxCell id="JaywE-1XMddzR5eYZWAe-46" value="Trim Alignments&lt;br&gt;&lt;div&gt;&lt;i&gt;[Artic_c trim]&lt;br&gt;&lt;/i&gt;&lt;/div&gt;" style="rounded=1;whiteSpace=wrap;html=1;" parent="JaywE-1XMddzR5eYZWAe-1" vertex="1">
          <mxGeometry x="432" y="15" width="110" height="50" as="geometry" />
        </mxCell>
        <mxCell id="wI3yUqJXAVgagyo7Kri2-0" style="edgeStyle=orthogonalEdgeStyle;rounded=0;orthogonalLoop=1;jettySize=auto;html=1;exitX=0.5;exitY=1;exitDx=0;exitDy=0;" parent="JaywE-1XMddzR5eYZWAe-1" source="JaywE-1XMddzR5eYZWAe-47" target="qWaSu_paVNqCHDa9mgIj-0" edge="1">
          <mxGeometry relative="1" as="geometry" />
        </mxCell>
        <mxCell id="JaywE-1XMddzR5eYZWAe-47" value="Sort Alignments&lt;br&gt;&lt;div&gt;&lt;i&gt;[Samtools]&lt;br&gt;&lt;/i&gt;&lt;/div&gt;" style="rounded=1;whiteSpace=wrap;html=1;" parent="JaywE-1XMddzR5eYZWAe-1" vertex="1">
          <mxGeometry x="575" y="15" width="110" height="50" as="geometry" />
        </mxCell>
        <mxCell id="qWaSu_paVNqCHDa9mgIj-8" style="edgeStyle=orthogonalEdgeStyle;rounded=0;orthogonalLoop=1;jettySize=auto;html=1;exitX=0;exitY=0.5;exitDx=0;exitDy=0;entryX=1;entryY=0.5;entryDx=0;entryDy=0;" parent="JaywE-1XMddzR5eYZWAe-1" source="JaywE-1XMddzR5eYZWAe-52" target="JaywE-1XMddzR5eYZWAe-54" edge="1">
          <mxGeometry relative="1" as="geometry" />
        </mxCell>
        <mxCell id="JaywE-1XMddzR5eYZWAe-52" value="&lt;div&gt;Call Variants&lt;br&gt;&lt;/div&gt;&lt;div&gt;&lt;i&gt;[Nanopolish]&lt;/i&gt;&lt;/div&gt;" style="rounded=1;whiteSpace=wrap;html=1;" parent="JaywE-1XMddzR5eYZWAe-1" vertex="1">
          <mxGeometry x="575" y="181" width="110" height="50" as="geometry" />
        </mxCell>
        <mxCell id="qWaSu_paVNqCHDa9mgIj-9" value="" style="edgeStyle=orthogonalEdgeStyle;rounded=0;orthogonalLoop=1;jettySize=auto;html=1;" parent="JaywE-1XMddzR5eYZWAe-1" target="JaywE-1XMddzR5eYZWAe-55" edge="1">
          <mxGeometry relative="1" as="geometry">
            <mxPoint x="437" y="206" as="sourcePoint" />
          </mxGeometry>
        </mxCell>
        <mxCell id="JaywE-1XMddzR5eYZWAe-54" value="Modify VCFs&#39; header if necessary&lt;br&gt;&lt;div&gt;&lt;i&gt;[Bcftools]&lt;br&gt;&lt;/i&gt;&lt;/div&gt;" style="rounded=1;whiteSpace=wrap;html=1;" parent="JaywE-1XMddzR5eYZWAe-1" vertex="1">
          <mxGeometry x="432" y="181" width="110" height="50" as="geometry" />
        </mxCell>
        <mxCell id="qWaSu_paVNqCHDa9mgIj-10" value="" style="edgeStyle=orthogonalEdgeStyle;rounded=0;orthogonalLoop=1;jettySize=auto;html=1;entryX=1;entryY=0.5;entryDx=0;entryDy=0;" parent="JaywE-1XMddzR5eYZWAe-1" source="JaywE-1XMddzR5eYZWAe-55" target="JaywE-1XMddzR5eYZWAe-59" edge="1">
          <mxGeometry relative="1" as="geometry">
            <mxPoint x="398" y="206" as="targetPoint" />
          </mxGeometry>
        </mxCell>
        <mxCell id="qWaSu_paVNqCHDa9mgIj-15" style="edgeStyle=orthogonalEdgeStyle;rounded=0;orthogonalLoop=1;jettySize=auto;html=1;exitX=0.5;exitY=1;exitDx=0;exitDy=0;entryX=0.5;entryY=0;entryDx=0;entryDy=0;" parent="JaywE-1XMddzR5eYZWAe-1" source="JaywE-1XMddzR5eYZWAe-55" target="JaywE-1XMddzR5eYZWAe-62" edge="1">
          <mxGeometry relative="1" as="geometry" />
        </mxCell>
        <mxCell id="JaywE-1XMddzR5eYZWAe-55" value="Concatenate VCFs &lt;br&gt;&lt;div&gt;&lt;i&gt;[Bcftools]&lt;br&gt;&lt;/i&gt;&lt;/div&gt;" style="rounded=1;whiteSpace=wrap;html=1;" parent="JaywE-1XMddzR5eYZWAe-1" vertex="1">
          <mxGeometry x="290" y="181" width="110" height="50" as="geometry" />
        </mxCell>
        <mxCell id="qWaSu_paVNqCHDa9mgIj-17" style="edgeStyle=orthogonalEdgeStyle;rounded=0;orthogonalLoop=1;jettySize=auto;html=1;exitX=0.5;exitY=1;exitDx=0;exitDy=0;entryX=0.5;entryY=0;entryDx=0;entryDy=0;" parent="JaywE-1XMddzR5eYZWAe-1" source="JaywE-1XMddzR5eYZWAe-59" target="JaywE-1XMddzR5eYZWAe-70" edge="1">
          <mxGeometry relative="1" as="geometry" />
        </mxCell>
        <mxCell id="JaywE-1XMddzR5eYZWAe-59" value="Index VCFs &lt;br&gt;&lt;div&gt;&lt;i&gt;[Bcftools]&lt;br&gt;&lt;/i&gt;&lt;/div&gt;" style="rounded=1;whiteSpace=wrap;html=1;" parent="JaywE-1XMddzR5eYZWAe-1" vertex="1">
          <mxGeometry x="142" y="181" width="110" height="50" as="geometry" />
        </mxCell>
        <mxCell id="7GM_m8plPbkun0t9Ehw3-0" style="edgeStyle=orthogonalEdgeStyle;rounded=1&#xa;;orthogonalLoop=1;jettySize=auto;html=1;exitX=0.5;exitY=1;exitDx=0;exitDy=0;entryX=1;entryY=0.5;entryDx=0;entryDy=0;" parent="JaywE-1XMddzR5eYZWAe-1" source="JaywE-1XMddzR5eYZWAe-60" target="JaywE-1XMddzR5eYZWAe-75" edge="1">
          <mxGeometry relative="1" as="geometry" />
        </mxCell>
        <mxCell id="JaywE-1XMddzR5eYZWAe-60" value="Filter low &lt;font style=&quot;font-size: 12px&quot;&gt;depth positions&lt;/font&gt;&lt;font style=&quot;font-size: 12px&quot;&gt;&lt;br&gt;&lt;/font&gt;&lt;div&gt;&lt;font style=&quot;font-size: 12px&quot;&gt;&lt;i&gt;[Artic_c mask]&lt;br&gt;&lt;/i&gt;&lt;/font&gt;&lt;/div&gt;" style="rounded=1;whiteSpace=wrap;html=1;" parent="JaywE-1XMddzR5eYZWAe-1" vertex="1">
          <mxGeometry x="432" y="250" width="110" height="50" as="geometry" />
        </mxCell>
        <mxCell id="qWaSu_paVNqCHDa9mgIj-19" style="edgeStyle=orthogonalEdgeStyle;rounded=0;orthogonalLoop=1;jettySize=auto;html=1;exitX=0.5;exitY=1;exitDx=0;exitDy=0;entryX=0.5;entryY=0;entryDx=0;entryDy=0;" parent="JaywE-1XMddzR5eYZWAe-1" source="JaywE-1XMddzR5eYZWAe-62" target="JaywE-1XMddzR5eYZWAe-75" edge="1">
          <mxGeometry relative="1" as="geometry" />
        </mxCell>
        <mxCell id="JaywE-1XMddzR5eYZWAe-62" value="Query VCF to extract bad variants&lt;br&gt;&lt;div&gt;&lt;i&gt;[Bcftools]&lt;br&gt;&lt;/i&gt;&lt;/div&gt;" style="rounded=1;whiteSpace=wrap;html=1;" parent="JaywE-1XMddzR5eYZWAe-1" vertex="1">
          <mxGeometry x="290" y="250" width="110" height="50" as="geometry" />
        </mxCell>
        <mxCell id="7GM_m8plPbkun0t9Ehw3-4" style="edgeStyle=orthogonalEdgeStyle;rounded=0;orthogonalLoop=1;jettySize=auto;html=1;exitX=0.5;exitY=0;exitDx=0;exitDy=0;entryX=0.5;entryY=1;entryDx=0;entryDy=0;" parent="JaywE-1XMddzR5eYZWAe-1" source="JaywE-1XMddzR5eYZWAe-64" target="JaywE-1XMddzR5eYZWAe-75" edge="1">
          <mxGeometry relative="1" as="geometry" />
        </mxCell>
        <mxCell id="JaywE-1XMddzR5eYZWAe-64" value="Predefined&amp;nbsp; ambiguous bases to be masked" style="rounded=1;whiteSpace=wrap;html=1;fillColor=#ffe6cc;strokeColor=#d79b00;" parent="JaywE-1XMddzR5eYZWAe-1" vertex="1">
          <mxGeometry x="290" y="387" width="110" height="50" as="geometry" />
        </mxCell>
        <mxCell id="7GM_m8plPbkun0t9Ehw3-3" style="edgeStyle=orthogonalEdgeStyle;rounded=0;orthogonalLoop=1;jettySize=auto;html=1;exitX=0.5;exitY=1;exitDx=0;exitDy=0;entryX=0.5;entryY=0;entryDx=0;entryDy=0;" parent="JaywE-1XMddzR5eYZWAe-1" source="JaywE-1XMddzR5eYZWAe-70" target="JaywE-1XMddzR5eYZWAe-110" edge="1">
          <mxGeometry relative="1" as="geometry" />
        </mxCell>
        <mxCell id="JaywE-1XMddzR5eYZWAe-70" value="Build Consensus&lt;br&gt;&lt;div&gt;&lt;i&gt;[Bcftools]&lt;br&gt;&lt;/i&gt;&lt;/div&gt;" style="rounded=1;whiteSpace=wrap;html=1;" parent="JaywE-1XMddzR5eYZWAe-1" vertex="1">
          <mxGeometry x="142" y="318" width="110" height="50" as="geometry" />
        </mxCell>
        <mxCell id="7GM_m8plPbkun0t9Ehw3-2" style="edgeStyle=orthogonalEdgeStyle;rounded=0;orthogonalLoop=1;jettySize=auto;html=1;exitX=0;exitY=0.5;exitDx=0;exitDy=0;entryX=1;entryY=0.5;entryDx=0;entryDy=0;" parent="JaywE-1XMddzR5eYZWAe-1" source="JaywE-1XMddzR5eYZWAe-75" target="JaywE-1XMddzR5eYZWAe-70" edge="1">
          <mxGeometry relative="1" as="geometry" />
        </mxCell>
        <mxCell id="JaywE-1XMddzR5eYZWAe-75" value="Concatenate Bed Files&lt;br&gt;&lt;div&gt;&lt;i&gt;[Artic_c multiinter]&lt;br&gt;&lt;/i&gt;&lt;/div&gt;" style="rounded=1;whiteSpace=wrap;html=1;" parent="JaywE-1XMddzR5eYZWAe-1" vertex="1">
          <mxGeometry x="290" y="318" width="110" height="50" as="geometry" />
        </mxCell>
        <mxCell id="JaywE-1XMddzR5eYZWAe-110" value="Consensus output" style="rounded=1;whiteSpace=wrap;html=1;fillColor=#ffe6cc;strokeColor=#d79b00;" parent="JaywE-1XMddzR5eYZWAe-1" vertex="1">
          <mxGeometry x="142" y="387" width="110" height="50" as="geometry" />
        </mxCell>
        <mxCell id="qWaSu_paVNqCHDa9mgIj-4" style="edgeStyle=orthogonalEdgeStyle;rounded=0;orthogonalLoop=1;jettySize=auto;html=1;exitX=0.5;exitY=1;exitDx=0;exitDy=0;entryX=0.5;entryY=0;entryDx=0;entryDy=0;" parent="JaywE-1XMddzR5eYZWAe-1" source="qWaSu_paVNqCHDa9mgIj-0" target="JaywE-1XMddzR5eYZWAe-52" edge="1">
          <mxGeometry relative="1" as="geometry" />
        </mxCell>
        <mxCell id="qWaSu_paVNqCHDa9mgIj-30" style="edgeStyle=orthogonalEdgeStyle;rounded=1;orthogonalLoop=1;jettySize=auto;html=1;exitX=1;exitY=0.5;exitDx=0;exitDy=0;entryX=1;entryY=0.5;entryDx=0;entryDy=0;" parent="JaywE-1XMddzR5eYZWAe-1" source="qWaSu_paVNqCHDa9mgIj-0" target="qWaSu_paVNqCHDa9mgIj-12" edge="1">
          <mxGeometry relative="1" as="geometry">
            <Array as="points">
              <mxPoint x="718" y="121" />
              <mxPoint x="718" y="275" />
            </Array>
          </mxGeometry>
        </mxCell>
        <mxCell id="qWaSu_paVNqCHDa9mgIj-0" value="Index Sorted Alignments&lt;br&gt;&lt;div&gt;&lt;i&gt;[Samtools]&lt;br&gt;&lt;/i&gt;&lt;/div&gt;" style="rounded=1;whiteSpace=wrap;html=1;" parent="JaywE-1XMddzR5eYZWAe-1" vertex="1">
          <mxGeometry x="575" y="96" width="110" height="50" as="geometry" />
        </mxCell>
        <mxCell id="qWaSu_paVNqCHDa9mgIj-14" style="edgeStyle=orthogonalEdgeStyle;rounded=0;orthogonalLoop=1;jettySize=auto;html=1;exitX=0;exitY=0.5;exitDx=0;exitDy=0;entryX=1;entryY=0.5;entryDx=0;entryDy=0;" parent="JaywE-1XMddzR5eYZWAe-1" source="qWaSu_paVNqCHDa9mgIj-12" target="JaywE-1XMddzR5eYZWAe-60" edge="1">
          <mxGeometry relative="1" as="geometry" />
        </mxCell>
        <mxCell id="qWaSu_paVNqCHDa9mgIj-12" value="Calculate depth per position&lt;br&gt;&lt;div&gt;&lt;i&gt;[Samtools]&lt;br&gt;&lt;/i&gt;&lt;/div&gt;" style="rounded=1;whiteSpace=wrap;html=1;" parent="JaywE-1XMddzR5eYZWAe-1" vertex="1">
          <mxGeometry x="575" y="250" width="110" height="50" as="geometry" />
        </mxCell>
      </root>
    </mxGraphModel>
  </diagram>
  <diagram name="ArticPipelineV2" id="N3Clmb3m85IoTEWejrlk">
    <mxGraphModel dx="797" dy="481" grid="0" gridSize="10" guides="1" tooltips="1" connect="1" arrows="1" fold="1" page="1" pageScale="1" pageWidth="850" pageHeight="400" math="0" shadow="0">
      <root>
        <mxCell id="qRz48E_qGQLuVCMeIscj-0" />
        <mxCell id="qRz48E_qGQLuVCMeIscj-1" parent="qRz48E_qGQLuVCMeIscj-0" />
        <mxCell id="qRz48E_qGQLuVCMeIscj-2" style="edgeStyle=orthogonalEdgeStyle;rounded=0;orthogonalLoop=1;jettySize=auto;html=1;exitX=1;exitY=0.5;exitDx=0;exitDy=0;entryX=0;entryY=0.5;entryDx=0;entryDy=0;" parent="qRz48E_qGQLuVCMeIscj-1" source="qRz48E_qGQLuVCMeIscj-3" target="qRz48E_qGQLuVCMeIscj-18" edge="1">
          <mxGeometry relative="1" as="geometry" />
        </mxCell>
        <mxCell id="qRz48E_qGQLuVCMeIscj-3" value="" style="rounded=0;whiteSpace=wrap;html=1;fillColor=#fff2cc;strokeColor=#d6b656;dashed=1;" parent="qRz48E_qGQLuVCMeIscj-1" vertex="1">
          <mxGeometry x="281" y="89" width="272" height="64" as="geometry" />
        </mxCell>
        <mxCell id="qRz48E_qGQLuVCMeIscj-4" style="edgeStyle=orthogonalEdgeStyle;rounded=0;orthogonalLoop=1;jettySize=auto;html=1;exitX=0.5;exitY=0;exitDx=0;exitDy=0;entryX=0.5;entryY=1;entryDx=0;entryDy=0;" parent="qRz48E_qGQLuVCMeIscj-1" source="qRz48E_qGQLuVCMeIscj-7" target="qRz48E_qGQLuVCMeIscj-12" edge="1">
          <mxGeometry relative="1" as="geometry" />
        </mxCell>
        <mxCell id="qRz48E_qGQLuVCMeIscj-5" style="edgeStyle=orthogonalEdgeStyle;rounded=1&#xa;;orthogonalLoop=1;jettySize=auto;html=1;exitX=0.75;exitY=0;exitDx=0;exitDy=0;entryX=0.118;entryY=0;entryDx=0;entryDy=0;entryPerimeter=0;" parent="qRz48E_qGQLuVCMeIscj-1" source="qRz48E_qGQLuVCMeIscj-7" target="qRz48E_qGQLuVCMeIscj-26" edge="1">
          <mxGeometry relative="1" as="geometry">
            <Array as="points">
              <mxPoint x="88" y="160" />
              <mxPoint x="726" y="160" />
            </Array>
          </mxGeometry>
        </mxCell>
        <mxCell id="qRz48E_qGQLuVCMeIscj-6" style="edgeStyle=orthogonalEdgeStyle;rounded=0;orthogonalLoop=1;jettySize=auto;html=1;exitX=1;exitY=0.5;exitDx=0;exitDy=0;entryX=0;entryY=0.5;entryDx=0;entryDy=0;" parent="qRz48E_qGQLuVCMeIscj-1" source="qRz48E_qGQLuVCMeIscj-7" target="qRz48E_qGQLuVCMeIscj-43" edge="1">
          <mxGeometry relative="1" as="geometry" />
        </mxCell>
        <mxCell id="qRz48E_qGQLuVCMeIscj-7" value="&lt;i&gt;Reference Genome&lt;/i&gt;" style="rounded=1;whiteSpace=wrap;html=1;fillColor=#ffe6cc;strokeColor=#d79b00;" parent="qRz48E_qGQLuVCMeIscj-1" vertex="1">
          <mxGeometry x="6" y="339" width="110" height="50" as="geometry" />
        </mxCell>
        <mxCell id="qRz48E_qGQLuVCMeIscj-8" value="&lt;i&gt;Fast5 files&lt;/i&gt;" style="rounded=1;whiteSpace=wrap;html=1;fillColor=#ffe6cc;strokeColor=#d79b00;" parent="qRz48E_qGQLuVCMeIscj-1" vertex="1">
          <mxGeometry x="432" y="96" width="110" height="50" as="geometry" />
        </mxCell>
        <mxCell id="qRz48E_qGQLuVCMeIscj-9" style="edgeStyle=orthogonalEdgeStyle;rounded=1;orthogonalLoop=1;jettySize=auto;html=1;exitX=0;exitY=0.5;exitDx=0;exitDy=0;entryX=0.75;entryY=1;entryDx=0;entryDy=0;" parent="qRz48E_qGQLuVCMeIscj-1" source="qRz48E_qGQLuVCMeIscj-10" target="qRz48E_qGQLuVCMeIscj-12" edge="1">
          <mxGeometry relative="1" as="geometry" />
        </mxCell>
        <mxCell id="qRz48E_qGQLuVCMeIscj-10" value="&lt;i&gt;reads.fasta&lt;/i&gt;" style="rounded=1;whiteSpace=wrap;html=1;fillColor=#ffe6cc;strokeColor=#d79b00;" parent="qRz48E_qGQLuVCMeIscj-1" vertex="1">
          <mxGeometry x="288" y="96" width="110" height="50" as="geometry" />
        </mxCell>
        <mxCell id="qRz48E_qGQLuVCMeIscj-11" style="edgeStyle=orthogonalEdgeStyle;rounded=1;orthogonalLoop=1;jettySize=auto;html=1;exitX=1;exitY=0.5;exitDx=0;exitDy=0;entryX=0;entryY=0.5;entryDx=0;entryDy=0;" parent="qRz48E_qGQLuVCMeIscj-1" source="qRz48E_qGQLuVCMeIscj-12" target="qRz48E_qGQLuVCMeIscj-14" edge="1">
          <mxGeometry relative="1" as="geometry" />
        </mxCell>
        <mxCell id="qRz48E_qGQLuVCMeIscj-12" value="&lt;div align=&quot;center&quot;&gt;Reads Alignment&lt;/div&gt;&lt;div align=&quot;center&quot;&gt;&lt;i&gt;[Minimap2]&lt;/i&gt;&lt;br&gt;&lt;/div&gt;" style="rounded=1;whiteSpace=wrap;html=1;align=center;" parent="qRz48E_qGQLuVCMeIscj-1" vertex="1">
          <mxGeometry x="6" y="15" width="110" height="50" as="geometry" />
        </mxCell>
        <mxCell id="qRz48E_qGQLuVCMeIscj-13" style="edgeStyle=orthogonalEdgeStyle;rounded=1;orthogonalLoop=1;jettySize=auto;html=1;exitX=1;exitY=0.5;exitDx=0;exitDy=0;entryX=0;entryY=0.5;entryDx=0;entryDy=0;" parent="qRz48E_qGQLuVCMeIscj-1" source="qRz48E_qGQLuVCMeIscj-14" target="qRz48E_qGQLuVCMeIscj-16" edge="1">
          <mxGeometry relative="1" as="geometry" />
        </mxCell>
        <mxCell id="qRz48E_qGQLuVCMeIscj-14" value="Sort Alignments&lt;br&gt;&lt;div&gt;&lt;i&gt;[Samtools]&lt;br&gt;&lt;/i&gt;&lt;/div&gt;" style="rounded=1;whiteSpace=wrap;html=1;" parent="qRz48E_qGQLuVCMeIscj-1" vertex="1">
          <mxGeometry x="145" y="15" width="110" height="50" as="geometry" />
        </mxCell>
        <mxCell id="qRz48E_qGQLuVCMeIscj-15" style="edgeStyle=orthogonalEdgeStyle;rounded=0;orthogonalLoop=1;jettySize=auto;html=1;exitX=1;exitY=0.5;exitDx=0;exitDy=0;entryX=0;entryY=0.5;entryDx=0;entryDy=0;" parent="qRz48E_qGQLuVCMeIscj-1" source="qRz48E_qGQLuVCMeIscj-16" target="qRz48E_qGQLuVCMeIscj-22" edge="1">
          <mxGeometry relative="1" as="geometry" />
        </mxCell>
        <mxCell id="qRz48E_qGQLuVCMeIscj-16" value="Index Sorted Alignments&lt;br&gt;&lt;div&gt;&lt;i&gt;[Samtools]&lt;br&gt;&lt;/i&gt;&lt;/div&gt;" style="rounded=1;whiteSpace=wrap;html=1;" parent="qRz48E_qGQLuVCMeIscj-1" vertex="1">
          <mxGeometry x="288" y="15" width="110" height="50" as="geometry" />
        </mxCell>
        <mxCell id="qRz48E_qGQLuVCMeIscj-17" style="edgeStyle=orthogonalEdgeStyle;rounded=1;orthogonalLoop=1;jettySize=auto;html=1;exitX=1;exitY=0.5;exitDx=0;exitDy=0;entryX=0.25;entryY=0;entryDx=0;entryDy=0;" parent="qRz48E_qGQLuVCMeIscj-1" source="qRz48E_qGQLuVCMeIscj-18" target="qRz48E_qGQLuVCMeIscj-26" edge="1">
          <mxGeometry relative="1" as="geometry" />
        </mxCell>
        <mxCell id="qRz48E_qGQLuVCMeIscj-18" value="&lt;div style=&quot;font-size: 11px&quot;&gt;&lt;font style=&quot;font-size: 11px&quot;&gt;Index base called reads &amp;amp; signal data&lt;/font&gt;&lt;/div&gt;&lt;div style=&quot;font-size: 11px&quot;&gt;&lt;font style=&quot;font-size: 11px&quot;&gt;&lt;i&gt;[Nanopolish&lt;/i&gt;&lt;/font&gt;&lt;i&gt;]&lt;/i&gt;&lt;/div&gt;" style="rounded=1;whiteSpace=wrap;html=1;" parent="qRz48E_qGQLuVCMeIscj-1" vertex="1">
          <mxGeometry x="575" y="96" width="110" height="50" as="geometry" />
        </mxCell>
        <mxCell id="qRz48E_qGQLuVCMeIscj-19" value="&lt;i&gt;MinIT output&lt;/i&gt;" style="text;html=1;resizable=0;points=[];autosize=1;align=left;verticalAlign=top;spacingTop=-4;" parent="qRz48E_qGQLuVCMeIscj-1" vertex="1">
          <mxGeometry x="281" y="71" width="80" height="20" as="geometry" />
        </mxCell>
        <mxCell id="qRz48E_qGQLuVCMeIscj-20" value="&lt;div style=&quot;font-size: 11px&quot; align=&quot;center&quot;&gt;&lt;font style=&quot;font-size: 11px&quot;&gt;&lt;i&gt;&lt;font style=&quot;font-size: 11px&quot;&gt;Before using Nanopolish&lt;/font&gt;&lt;/i&gt;&lt;/font&gt;&lt;/div&gt;" style="text;html=1;resizable=0;points=[];autosize=1;align=center;verticalAlign=top;spacingTop=-4;" parent="qRz48E_qGQLuVCMeIscj-1" vertex="1">
          <mxGeometry x="561" y="75" width="130" height="14" as="geometry" />
        </mxCell>
        <mxCell id="qRz48E_qGQLuVCMeIscj-21" style="edgeStyle=orthogonalEdgeStyle;rounded=0;orthogonalLoop=1;jettySize=auto;html=1;exitX=1;exitY=0.5;exitDx=0;exitDy=0;entryX=0;entryY=0.5;entryDx=0;entryDy=0;" parent="qRz48E_qGQLuVCMeIscj-1" source="qRz48E_qGQLuVCMeIscj-22" target="qRz48E_qGQLuVCMeIscj-24" edge="1">
          <mxGeometry relative="1" as="geometry" />
        </mxCell>
        <mxCell id="qRz48E_qGQLuVCMeIscj-22" value="Trim Alignments&lt;br&gt;&lt;div&gt;&lt;i&gt;[Artic_c trim]&lt;br&gt;&lt;/i&gt;&lt;/div&gt;" style="rounded=1;whiteSpace=wrap;html=1;" parent="qRz48E_qGQLuVCMeIscj-1" vertex="1">
          <mxGeometry x="432" y="15" width="110" height="50" as="geometry" />
        </mxCell>
        <mxCell id="qRz48E_qGQLuVCMeIscj-23" style="edgeStyle=orthogonalEdgeStyle;rounded=0;orthogonalLoop=1;jettySize=auto;html=1;exitX=1;exitY=0.5;exitDx=0;exitDy=0;entryX=0;entryY=0.5;entryDx=0;entryDy=0;" parent="qRz48E_qGQLuVCMeIscj-1" source="qRz48E_qGQLuVCMeIscj-24" target="qRz48E_qGQLuVCMeIscj-51" edge="1">
          <mxGeometry relative="1" as="geometry" />
        </mxCell>
        <mxCell id="qRz48E_qGQLuVCMeIscj-24" value="Sort Alignments&lt;br&gt;&lt;div&gt;&lt;i&gt;[Samtools]&lt;br&gt;&lt;/i&gt;&lt;/div&gt;" style="rounded=1;whiteSpace=wrap;html=1;" parent="qRz48E_qGQLuVCMeIscj-1" vertex="1">
          <mxGeometry x="575" y="15" width="110" height="50" as="geometry" />
        </mxCell>
        <mxCell id="qRz48E_qGQLuVCMeIscj-25" style="edgeStyle=orthogonalEdgeStyle;rounded=0;orthogonalLoop=1;jettySize=auto;html=1;exitX=0;exitY=0.5;exitDx=0;exitDy=0;entryX=1;entryY=0.5;entryDx=0;entryDy=0;" parent="qRz48E_qGQLuVCMeIscj-1" source="qRz48E_qGQLuVCMeIscj-26" target="qRz48E_qGQLuVCMeIscj-28" edge="1">
          <mxGeometry relative="1" as="geometry" />
        </mxCell>
        <mxCell id="qRz48E_qGQLuVCMeIscj-26" value="&lt;div&gt;Call Variants&lt;br&gt;&lt;/div&gt;&lt;div&gt;&lt;i&gt;[Nanopolish]&lt;/i&gt;&lt;/div&gt;" style="rounded=1;whiteSpace=wrap;html=1;" parent="qRz48E_qGQLuVCMeIscj-1" vertex="1">
          <mxGeometry x="713" y="181" width="110" height="50" as="geometry" />
        </mxCell>
        <mxCell id="qRz48E_qGQLuVCMeIscj-27" value="" style="edgeStyle=orthogonalEdgeStyle;rounded=0;orthogonalLoop=1;jettySize=auto;html=1;" parent="qRz48E_qGQLuVCMeIscj-1" source="qRz48E_qGQLuVCMeIscj-28" target="qRz48E_qGQLuVCMeIscj-31" edge="1">
          <mxGeometry relative="1" as="geometry" />
        </mxCell>
        <mxCell id="qRz48E_qGQLuVCMeIscj-28" value="Modify VCFs&#39; header if necessary&lt;br&gt;&lt;div&gt;&lt;i&gt;[Bcftools]&lt;br&gt;&lt;/i&gt;&lt;/div&gt;" style="rounded=1;whiteSpace=wrap;html=1;" parent="qRz48E_qGQLuVCMeIscj-1" vertex="1">
          <mxGeometry x="575" y="181" width="110" height="50" as="geometry" />
        </mxCell>
        <mxCell id="qRz48E_qGQLuVCMeIscj-29" value="" style="edgeStyle=orthogonalEdgeStyle;rounded=0;orthogonalLoop=1;jettySize=auto;html=1;" parent="qRz48E_qGQLuVCMeIscj-1" source="qRz48E_qGQLuVCMeIscj-31" target="qRz48E_qGQLuVCMeIscj-33" edge="1">
          <mxGeometry relative="1" as="geometry" />
        </mxCell>
        <mxCell id="qRz48E_qGQLuVCMeIscj-30" style="edgeStyle=orthogonalEdgeStyle;rounded=0;orthogonalLoop=1;jettySize=auto;html=1;exitX=0.5;exitY=1;exitDx=0;exitDy=0;entryX=0.5;entryY=0;entryDx=0;entryDy=0;" parent="qRz48E_qGQLuVCMeIscj-1" source="qRz48E_qGQLuVCMeIscj-31" target="qRz48E_qGQLuVCMeIscj-39" edge="1">
          <mxGeometry relative="1" as="geometry" />
        </mxCell>
        <mxCell id="qRz48E_qGQLuVCMeIscj-31" value="Concatenate VCFs &lt;br&gt;&lt;div&gt;&lt;i&gt;[Bcftools]&lt;br&gt;&lt;/i&gt;&lt;/div&gt;" style="rounded=1;whiteSpace=wrap;html=1;" parent="qRz48E_qGQLuVCMeIscj-1" vertex="1">
          <mxGeometry x="432" y="181" width="110" height="50" as="geometry" />
        </mxCell>
        <mxCell id="qRz48E_qGQLuVCMeIscj-32" value="" style="edgeStyle=orthogonalEdgeStyle;rounded=0;orthogonalLoop=1;jettySize=auto;html=1;" parent="qRz48E_qGQLuVCMeIscj-1" source="qRz48E_qGQLuVCMeIscj-33" target="qRz48E_qGQLuVCMeIscj-35" edge="1">
          <mxGeometry relative="1" as="geometry" />
        </mxCell>
        <mxCell id="qRz48E_qGQLuVCMeIscj-33" value="&lt;font style=&quot;font-size: 11px&quot;&gt;Convert VCF to BCF&lt;/font&gt; &lt;br&gt;&lt;div&gt;&lt;i&gt;[Bcftools]&lt;br&gt;&lt;/i&gt;&lt;/div&gt;" style="rounded=1;whiteSpace=wrap;html=1;" parent="qRz48E_qGQLuVCMeIscj-1" vertex="1">
          <mxGeometry x="288" y="181" width="110" height="50" as="geometry" />
        </mxCell>
        <mxCell id="qRz48E_qGQLuVCMeIscj-34" style="edgeStyle=orthogonalEdgeStyle;rounded=0;orthogonalLoop=1;jettySize=auto;html=1;exitX=0.5;exitY=1;exitDx=0;exitDy=0;entryX=0.5;entryY=0;entryDx=0;entryDy=0;" parent="qRz48E_qGQLuVCMeIscj-1" source="qRz48E_qGQLuVCMeIscj-35" target="qRz48E_qGQLuVCMeIscj-43" edge="1">
          <mxGeometry relative="1" as="geometry" />
        </mxCell>
        <mxCell id="qRz48E_qGQLuVCMeIscj-35" value="Index VCFs &lt;br&gt;&lt;div&gt;&lt;i&gt;[Bcftools]&lt;br&gt;&lt;/i&gt;&lt;/div&gt;" style="rounded=1;whiteSpace=wrap;html=1;" parent="qRz48E_qGQLuVCMeIscj-1" vertex="1">
          <mxGeometry x="145" y="181" width="110" height="50" as="geometry" />
        </mxCell>
        <mxCell id="qRz48E_qGQLuVCMeIscj-36" style="edgeStyle=orthogonalEdgeStyle;rounded=0;orthogonalLoop=1;jettySize=auto;html=1;exitX=0.5;exitY=1;exitDx=0;exitDy=0;entryX=0.5;entryY=0;entryDx=0;entryDy=0;" parent="qRz48E_qGQLuVCMeIscj-1" source="qRz48E_qGQLuVCMeIscj-37" target="qRz48E_qGQLuVCMeIscj-47" edge="1">
          <mxGeometry relative="1" as="geometry" />
        </mxCell>
        <mxCell id="qRz48E_qGQLuVCMeIscj-37" value="Filter low &lt;font style=&quot;font-size: 12px&quot;&gt;depth positions&lt;/font&gt;&lt;font style=&quot;font-size: 12px&quot;&gt;&lt;br&gt;&lt;/font&gt;&lt;div&gt;&lt;font style=&quot;font-size: 12px&quot;&gt;&lt;i&gt;[Artic_c mask]&lt;br&gt;&lt;/i&gt;&lt;/font&gt;&lt;/div&gt;" style="rounded=1;whiteSpace=wrap;html=1;" parent="qRz48E_qGQLuVCMeIscj-1" vertex="1">
          <mxGeometry x="575" y="259" width="110" height="50" as="geometry" />
        </mxCell>
        <mxCell id="qRz48E_qGQLuVCMeIscj-38" style="edgeStyle=orthogonalEdgeStyle;rounded=0;orthogonalLoop=1;jettySize=auto;html=1;exitX=0.5;exitY=1;exitDx=0;exitDy=0;entryX=0.5;entryY=0;entryDx=0;entryDy=0;" parent="qRz48E_qGQLuVCMeIscj-1" source="qRz48E_qGQLuVCMeIscj-39" target="qRz48E_qGQLuVCMeIscj-45" edge="1">
          <mxGeometry relative="1" as="geometry" />
        </mxCell>
        <mxCell id="qRz48E_qGQLuVCMeIscj-39" value="Query VCF to extract bad variants&lt;br&gt;&lt;div&gt;&lt;i&gt;[Bcftools]&lt;br&gt;&lt;/i&gt;&lt;/div&gt;" style="rounded=1;whiteSpace=wrap;html=1;" parent="qRz48E_qGQLuVCMeIscj-1" vertex="1">
          <mxGeometry x="432" y="259" width="110" height="50" as="geometry" />
        </mxCell>
        <mxCell id="qRz48E_qGQLuVCMeIscj-40" style="edgeStyle=orthogonalEdgeStyle;rounded=0;orthogonalLoop=1;jettySize=auto;html=1;exitX=0.5;exitY=1;exitDx=0;exitDy=0;entryX=0.5;entryY=0;entryDx=0;entryDy=0;" parent="qRz48E_qGQLuVCMeIscj-1" source="qRz48E_qGQLuVCMeIscj-41" target="qRz48E_qGQLuVCMeIscj-55" edge="1">
          <mxGeometry relative="1" as="geometry" />
        </mxCell>
        <mxCell id="qRz48E_qGQLuVCMeIscj-41" value="Explicit Ambiguous Bases" style="rounded=1;whiteSpace=wrap;html=1;fillColor=#ffe6cc;strokeColor=#d79b00;" parent="qRz48E_qGQLuVCMeIscj-1" vertex="1">
          <mxGeometry x="288" y="259" width="110" height="50" as="geometry" />
        </mxCell>
        <mxCell id="qRz48E_qGQLuVCMeIscj-42" style="edgeStyle=orthogonalEdgeStyle;rounded=0;orthogonalLoop=1;jettySize=auto;html=1;exitX=1;exitY=0.5;exitDx=0;exitDy=0;entryX=0;entryY=0.5;entryDx=0;entryDy=0;" parent="qRz48E_qGQLuVCMeIscj-1" source="qRz48E_qGQLuVCMeIscj-43" target="qRz48E_qGQLuVCMeIscj-55" edge="1">
          <mxGeometry relative="1" as="geometry" />
        </mxCell>
        <mxCell id="qRz48E_qGQLuVCMeIscj-43" value="Build Consensus&lt;br&gt;&lt;div&gt;&lt;i&gt;[Bcftools]&lt;br&gt;&lt;/i&gt;&lt;/div&gt;" style="rounded=1;whiteSpace=wrap;html=1;" parent="qRz48E_qGQLuVCMeIscj-1" vertex="1">
          <mxGeometry x="145" y="339" width="110" height="50" as="geometry" />
        </mxCell>
        <mxCell id="qRz48E_qGQLuVCMeIscj-44" style="edgeStyle=orthogonalEdgeStyle;rounded=0;orthogonalLoop=1;jettySize=auto;html=1;exitX=1;exitY=0.5;exitDx=0;exitDy=0;entryX=0;entryY=0.5;entryDx=0;entryDy=0;" parent="qRz48E_qGQLuVCMeIscj-1" source="qRz48E_qGQLuVCMeIscj-45" target="qRz48E_qGQLuVCMeIscj-47" edge="1">
          <mxGeometry relative="1" as="geometry" />
        </mxCell>
        <mxCell id="qRz48E_qGQLuVCMeIscj-45" value="Build Consensus&lt;br&gt;&lt;div&gt;&lt;i&gt;[Bcftools]&lt;br&gt;&lt;/i&gt;&lt;/div&gt;" style="rounded=1;whiteSpace=wrap;html=1;" parent="qRz48E_qGQLuVCMeIscj-1" vertex="1">
          <mxGeometry x="432" y="339" width="110" height="50" as="geometry" />
        </mxCell>
        <mxCell id="qRz48E_qGQLuVCMeIscj-46" style="edgeStyle=orthogonalEdgeStyle;rounded=0;orthogonalLoop=1;jettySize=auto;html=1;exitX=1;exitY=0.5;exitDx=0;exitDy=0;entryX=0;entryY=0.5;entryDx=0;entryDy=0;" parent="qRz48E_qGQLuVCMeIscj-1" source="qRz48E_qGQLuVCMeIscj-47" target="qRz48E_qGQLuVCMeIscj-48" edge="1">
          <mxGeometry relative="1" as="geometry" />
        </mxCell>
        <mxCell id="qRz48E_qGQLuVCMeIscj-47" value="Build Consensus&lt;br&gt;&lt;div&gt;&lt;i&gt;[Bcftools]&lt;br&gt;&lt;/i&gt;&lt;/div&gt;" style="rounded=1;whiteSpace=wrap;html=1;" parent="qRz48E_qGQLuVCMeIscj-1" vertex="1">
          <mxGeometry x="575" y="339" width="110" height="50" as="geometry" />
        </mxCell>
        <mxCell id="qRz48E_qGQLuVCMeIscj-48" value="Consensus output" style="rounded=1;whiteSpace=wrap;html=1;fillColor=#ffe6cc;strokeColor=#d79b00;" parent="qRz48E_qGQLuVCMeIscj-1" vertex="1">
          <mxGeometry x="713" y="339" width="110" height="50" as="geometry" />
        </mxCell>
        <mxCell id="qRz48E_qGQLuVCMeIscj-49" style="edgeStyle=orthogonalEdgeStyle;rounded=0;orthogonalLoop=1;jettySize=auto;html=1;exitX=0.5;exitY=1;exitDx=0;exitDy=0;entryX=0.5;entryY=0;entryDx=0;entryDy=0;" parent="qRz48E_qGQLuVCMeIscj-1" source="qRz48E_qGQLuVCMeIscj-51" target="qRz48E_qGQLuVCMeIscj-26" edge="1">
          <mxGeometry relative="1" as="geometry" />
        </mxCell>
        <mxCell id="qRz48E_qGQLuVCMeIscj-50" style="edgeStyle=orthogonalEdgeStyle;rounded=1;orthogonalLoop=1;jettySize=auto;html=1;exitX=1;exitY=0.5;exitDx=0;exitDy=0;entryX=1;entryY=0.5;entryDx=0;entryDy=0;" parent="qRz48E_qGQLuVCMeIscj-1" source="qRz48E_qGQLuVCMeIscj-51" target="qRz48E_qGQLuVCMeIscj-53" edge="1">
          <mxGeometry relative="1" as="geometry">
            <Array as="points">
              <mxPoint x="840" y="40" />
              <mxPoint x="840" y="284" />
            </Array>
          </mxGeometry>
        </mxCell>
        <mxCell id="qRz48E_qGQLuVCMeIscj-51" value="Index Sorted Alignments&lt;br&gt;&lt;div&gt;&lt;i&gt;[Samtools]&lt;br&gt;&lt;/i&gt;&lt;/div&gt;" style="rounded=1;whiteSpace=wrap;html=1;" parent="qRz48E_qGQLuVCMeIscj-1" vertex="1">
          <mxGeometry x="713" y="15" width="110" height="50" as="geometry" />
        </mxCell>
        <mxCell id="qRz48E_qGQLuVCMeIscj-52" style="edgeStyle=orthogonalEdgeStyle;rounded=0;orthogonalLoop=1;jettySize=auto;html=1;exitX=0;exitY=0.5;exitDx=0;exitDy=0;entryX=1;entryY=0.5;entryDx=0;entryDy=0;" parent="qRz48E_qGQLuVCMeIscj-1" source="qRz48E_qGQLuVCMeIscj-53" target="qRz48E_qGQLuVCMeIscj-37" edge="1">
          <mxGeometry relative="1" as="geometry" />
        </mxCell>
        <mxCell id="qRz48E_qGQLuVCMeIscj-53" value="Calculate depth per position&lt;br&gt;&lt;div&gt;&lt;i&gt;[Samtools]&lt;br&gt;&lt;/i&gt;&lt;/div&gt;" style="rounded=1;whiteSpace=wrap;html=1;" parent="qRz48E_qGQLuVCMeIscj-1" vertex="1">
          <mxGeometry x="713" y="259" width="110" height="50" as="geometry" />
        </mxCell>
        <mxCell id="qRz48E_qGQLuVCMeIscj-54" style="edgeStyle=orthogonalEdgeStyle;rounded=0;orthogonalLoop=1;jettySize=auto;html=1;exitX=1;exitY=0.5;exitDx=0;exitDy=0;entryX=0.002;entryY=0.495;entryDx=0;entryDy=0;entryPerimeter=0;" parent="qRz48E_qGQLuVCMeIscj-1" source="qRz48E_qGQLuVCMeIscj-55" target="qRz48E_qGQLuVCMeIscj-45" edge="1">
          <mxGeometry relative="1" as="geometry" />
        </mxCell>
        <mxCell id="qRz48E_qGQLuVCMeIscj-55" value="Build Consensus&lt;br&gt;&lt;div&gt;&lt;i&gt;[Bcftools]&lt;br&gt;&lt;/i&gt;&lt;/div&gt;" style="rounded=1;whiteSpace=wrap;html=1;" parent="qRz48E_qGQLuVCMeIscj-1" vertex="1">
          <mxGeometry x="288" y="339" width="110" height="50" as="geometry" />
        </mxCell>
      </root>
    </mxGraphModel>
  </diagram>
  <diagram name="v1-ArticPipeline" id="qZYXLnVljVgk6W6_TSgw">
    
    <mxGraphModel dx="1051" dy="495" grid="0" gridSize="10" guides="1" tooltips="1" connect="1" arrows="1" fold="1" page="1" pageScale="1" pageWidth="827" pageHeight="800" math="0" shadow="0">
      
      <root>
        
        <mxCell id="McBSHpG4WVqiw0yZyUEy-0" />
        
        <mxCell id="McBSHpG4WVqiw0yZyUEy-1" parent="McBSHpG4WVqiw0yZyUEy-0" />
        
        <mxCell id="McBSHpG4WVqiw0yZyUEy-2" value="" style="rounded=0;whiteSpace=wrap;html=1;dashed=1;fillColor=#fff2cc;strokeColor=#d6b656;" parent="McBSHpG4WVqiw0yZyUEy-1" vertex="1">
          
          <mxGeometry x="156" y="124" width="180" height="156" as="geometry" />
          
        </mxCell>
        
        <mxCell id="McBSHpG4WVqiw0yZyUEy-3" style="edgeStyle=orthogonalEdgeStyle;rounded=0;orthogonalLoop=1;jettySize=auto;html=1;exitX=1;exitY=0.5;exitDx=0;exitDy=0;entryX=0;entryY=0.5;entryDx=0;entryDy=0;" parent="McBSHpG4WVqiw0yZyUEy-1" source="McBSHpG4WVqiw0yZyUEy-7" target="McBSHpG4WVqiw0yZyUEy-33" edge="1">
          
          <mxGeometry relative="1" as="geometry" />
          
        </mxCell>
        
        <mxCell id="McBSHpG4WVqiw0yZyUEy-4" style="edgeStyle=orthogonalEdgeStyle;rounded=0;orthogonalLoop=1;jettySize=auto;html=1;exitX=0.5;exitY=1;exitDx=0;exitDy=0;entryX=0;entryY=0.5;entryDx=0;entryDy=0;" parent="McBSHpG4WVqiw0yZyUEy-1" source="McBSHpG4WVqiw0yZyUEy-7" target="McBSHpG4WVqiw0yZyUEy-53" edge="1">
          
          <mxGeometry relative="1" as="geometry" />
          
        </mxCell>
        
        <mxCell id="McBSHpG4WVqiw0yZyUEy-5" style="edgeStyle=orthogonalEdgeStyle;rounded=0;orthogonalLoop=1;jettySize=auto;html=1;exitX=0.5;exitY=1;exitDx=0;exitDy=0;entryX=0;entryY=0.5;entryDx=0;entryDy=0;" parent="McBSHpG4WVqiw0yZyUEy-1" source="McBSHpG4WVqiw0yZyUEy-7" target="McBSHpG4WVqiw0yZyUEy-35" edge="1">
          
          <mxGeometry relative="1" as="geometry" />
          
        </mxCell>
        
        <mxCell id="McBSHpG4WVqiw0yZyUEy-6" style="edgeStyle=orthogonalEdgeStyle;rounded=0;orthogonalLoop=1;jettySize=auto;html=1;exitX=0.5;exitY=0;exitDx=0;exitDy=0;" parent="McBSHpG4WVqiw0yZyUEy-1" source="McBSHpG4WVqiw0yZyUEy-7" edge="1">
          
          <mxGeometry relative="1" as="geometry">
            
            <mxPoint x="94" y="77" as="targetPoint" />
            
          </mxGeometry>
          
        </mxCell>
        
        <mxCell id="McBSHpG4WVqiw0yZyUEy-7" value="&lt;i&gt;Reference Genome&lt;/i&gt;" style="rounded=1;whiteSpace=wrap;html=1;fillColor=#ffe6cc;strokeColor=#d79b00;" parent="McBSHpG4WVqiw0yZyUEy-1" vertex="1">
          
          <mxGeometry x="39" y="178" width="110" height="50" as="geometry" />
          
        </mxCell>
        
        <mxCell id="McBSHpG4WVqiw0yZyUEy-8" style="edgeStyle=orthogonalEdgeStyle;rounded=0;orthogonalLoop=1;jettySize=auto;html=1;exitX=1;exitY=0.5;exitDx=0;exitDy=0;entryX=0.5;entryY=0;entryDx=0;entryDy=0;" parent="McBSHpG4WVqiw0yZyUEy-1" source="McBSHpG4WVqiw0yZyUEy-10" target="McBSHpG4WVqiw0yZyUEy-33" edge="1">
          
          <mxGeometry relative="1" as="geometry" />
          
        </mxCell>
        
        <mxCell id="McBSHpG4WVqiw0yZyUEy-9" style="edgeStyle=orthogonalEdgeStyle;rounded=0;orthogonalLoop=1;jettySize=auto;html=1;exitX=0.75;exitY=1;exitDx=0;exitDy=0;entryX=0.75;entryY=0;entryDx=0;entryDy=0;" parent="McBSHpG4WVqiw0yZyUEy-1" source="McBSHpG4WVqiw0yZyUEy-10" target="McBSHpG4WVqiw0yZyUEy-21" edge="1">
          
          <mxGeometry relative="1" as="geometry" />
          
        </mxCell>
        
        <mxCell id="McBSHpG4WVqiw0yZyUEy-10" value="&lt;i&gt;Fast5 files&lt;/i&gt;" style="rounded=1;whiteSpace=wrap;html=1;fillColor=#ffe6cc;strokeColor=#d79b00;" parent="McBSHpG4WVqiw0yZyUEy-1" vertex="1">
          
          <mxGeometry x="216" y="133" width="110" height="50" as="geometry" />
          
        </mxCell>
        
        <mxCell id="McBSHpG4WVqiw0yZyUEy-11" style="edgeStyle=orthogonalEdgeStyle;rounded=0;orthogonalLoop=1;jettySize=auto;html=1;exitX=0.25;exitY=0;exitDx=0;exitDy=0;entryX=0.75;entryY=1;entryDx=0;entryDy=0;" parent="McBSHpG4WVqiw0yZyUEy-1" source="McBSHpG4WVqiw0yZyUEy-14" target="McBSHpG4WVqiw0yZyUEy-16" edge="1">
          
          <mxGeometry relative="1" as="geometry" />
          
        </mxCell>
        
        <mxCell id="McBSHpG4WVqiw0yZyUEy-12" style="edgeStyle=orthogonalEdgeStyle;rounded=0;orthogonalLoop=1;jettySize=auto;html=1;exitX=1;exitY=0.5;exitDx=0;exitDy=0;entryX=0;entryY=0.75;entryDx=0;entryDy=0;" parent="McBSHpG4WVqiw0yZyUEy-1" source="McBSHpG4WVqiw0yZyUEy-14" target="McBSHpG4WVqiw0yZyUEy-33" edge="1">
          
          <mxGeometry relative="1" as="geometry">
            
            <Array as="points">
              
              <mxPoint x="378" y="243" />
              
              <mxPoint x="378" y="216" />
              
            </Array>
            
          </mxGeometry>
          
        </mxCell>
        
        <mxCell id="McBSHpG4WVqiw0yZyUEy-13" style="edgeStyle=orthogonalEdgeStyle;rounded=0;orthogonalLoop=1;jettySize=auto;html=1;exitX=0.75;exitY=1;exitDx=0;exitDy=0;entryX=0.25;entryY=0;entryDx=0;entryDy=0;" parent="McBSHpG4WVqiw0yZyUEy-1" source="McBSHpG4WVqiw0yZyUEy-14" target="McBSHpG4WVqiw0yZyUEy-21" edge="1">
          
          <mxGeometry relative="1" as="geometry" />
          
        </mxCell>
        
        <mxCell id="McBSHpG4WVqiw0yZyUEy-14" value="&lt;i&gt;reads.fasta&lt;/i&gt;" style="rounded=1;whiteSpace=wrap;html=1;fillColor=#ffe6cc;strokeColor=#d79b00;" parent="McBSHpG4WVqiw0yZyUEy-1" vertex="1">
          
          <mxGeometry x="161" y="219" width="110" height="50" as="geometry" />
          
        </mxCell>
        
        <mxCell id="McBSHpG4WVqiw0yZyUEy-15" style="edgeStyle=orthogonalEdgeStyle;rounded=1;orthogonalLoop=1;jettySize=auto;html=1;exitX=1;exitY=0.5;exitDx=0;exitDy=0;entryX=0;entryY=0.5;entryDx=0;entryDy=0;" parent="McBSHpG4WVqiw0yZyUEy-1" source="McBSHpG4WVqiw0yZyUEy-16" target="McBSHpG4WVqiw0yZyUEy-18" edge="1">
          
          <mxGeometry relative="1" as="geometry" />
          
        </mxCell>
        
        <mxCell id="McBSHpG4WVqiw0yZyUEy-16" value="&lt;div align=&quot;center&quot;&gt;Reads Alignment&lt;/div&gt;&lt;div align=&quot;center&quot;&gt;&lt;i&gt;[Minimap2]&lt;/i&gt;&lt;br&gt;&lt;/div&gt;" style="rounded=1;whiteSpace=wrap;html=1;align=center;" parent="McBSHpG4WVqiw0yZyUEy-1" vertex="1">
          
          <mxGeometry x="63" y="20" width="110" height="50" as="geometry" />
          
        </mxCell>
        
        <mxCell id="McBSHpG4WVqiw0yZyUEy-17" style="edgeStyle=orthogonalEdgeStyle;rounded=1;orthogonalLoop=1;jettySize=auto;html=1;exitX=1;exitY=0.5;exitDx=0;exitDy=0;entryX=0;entryY=0.5;entryDx=0;entryDy=0;" parent="McBSHpG4WVqiw0yZyUEy-1" source="McBSHpG4WVqiw0yZyUEy-18" target="McBSHpG4WVqiw0yZyUEy-20" edge="1">
          
          <mxGeometry relative="1" as="geometry" />
          
        </mxCell>
        
        <mxCell id="McBSHpG4WVqiw0yZyUEy-18" value="Sort Alignments&lt;br&gt;&lt;div&gt;&lt;i&gt;[Samtools]&lt;br&gt;&lt;/i&gt;&lt;/div&gt;" style="rounded=1;whiteSpace=wrap;html=1;" parent="McBSHpG4WVqiw0yZyUEy-1" vertex="1">
          
          <mxGeometry x="224" y="20" width="110" height="50" as="geometry" />
          
        </mxCell>
        
        <mxCell id="McBSHpG4WVqiw0yZyUEy-19" style="edgeStyle=orthogonalEdgeStyle;rounded=0;orthogonalLoop=1;jettySize=auto;html=1;exitX=1;exitY=0.5;exitDx=0;exitDy=0;entryX=0;entryY=0.5;entryDx=0;entryDy=0;" parent="McBSHpG4WVqiw0yZyUEy-1" source="McBSHpG4WVqiw0yZyUEy-20" target="McBSHpG4WVqiw0yZyUEy-27" edge="1">
          
          <mxGeometry relative="1" as="geometry" />
          
        </mxCell>
        
        <mxCell id="McBSHpG4WVqiw0yZyUEy-20" value="Index Sorted Alignments&lt;br&gt;&lt;div&gt;&lt;i&gt;[Samtools]&lt;br&gt;&lt;/i&gt;&lt;/div&gt;" style="rounded=1;whiteSpace=wrap;html=1;" parent="McBSHpG4WVqiw0yZyUEy-1" vertex="1">
          
          <mxGeometry x="386" y="20" width="110" height="50" as="geometry" />
          
        </mxCell>
        
        <mxCell id="McBSHpG4WVqiw0yZyUEy-21" value="&lt;div style=&quot;font-size: 11px&quot;&gt;&lt;font style=&quot;font-size: 11px&quot;&gt;Index base called reads &amp;amp; signal data&lt;/font&gt;&lt;/div&gt;&lt;div style=&quot;font-size: 11px&quot;&gt;&lt;font style=&quot;font-size: 11px&quot;&gt;&lt;i&gt;[Nanopolish&lt;/i&gt;&lt;/font&gt;&lt;i&gt;]&lt;/i&gt;&lt;/div&gt;" style="rounded=1;whiteSpace=wrap;html=1;" parent="McBSHpG4WVqiw0yZyUEy-1" vertex="1">
          
          <mxGeometry x="216" y="290" width="110" height="50" as="geometry" />
          
        </mxCell>
        
        <mxCell id="McBSHpG4WVqiw0yZyUEy-22" value="&lt;i&gt;MinIT output&lt;/i&gt;" style="text;html=1;resizable=0;points=[];autosize=1;align=left;verticalAlign=top;spacingTop=-4;" parent="McBSHpG4WVqiw0yZyUEy-1" vertex="1">
          
          <mxGeometry x="260" y="107" width="80" height="20" as="geometry" />
          
        </mxCell>
        
        <mxCell id="McBSHpG4WVqiw0yZyUEy-23" style="edgeStyle=orthogonalEdgeStyle;rounded=0;orthogonalLoop=1;jettySize=auto;html=1;exitX=0.5;exitY=1;exitDx=0;exitDy=0;entryX=0.5;entryY=0;entryDx=0;entryDy=0;" parent="McBSHpG4WVqiw0yZyUEy-1" source="McBSHpG4WVqiw0yZyUEy-24" target="McBSHpG4WVqiw0yZyUEy-35" edge="1">
          
          <mxGeometry relative="1" as="geometry" />
          
        </mxCell>
        
        <mxCell id="McBSHpG4WVqiw0yZyUEy-24" value="&lt;i&gt;Variants output&lt;br&gt;&lt;/i&gt;" style="rounded=1;whiteSpace=wrap;html=1;fillColor=#ffe6cc;strokeColor=#d79b00;" parent="McBSHpG4WVqiw0yZyUEy-1" vertex="1">
          
          <mxGeometry x="392" y="245" width="110" height="50" as="geometry" />
          
        </mxCell>
        
        <mxCell id="McBSHpG4WVqiw0yZyUEy-25" value="&lt;div style=&quot;font-size: 11px&quot; align=&quot;center&quot;&gt;&lt;font style=&quot;font-size: 11px&quot;&gt;&lt;i&gt;&lt;font style=&quot;font-size: 11px&quot;&gt;Before using &lt;br&gt;&lt;/font&gt;&lt;/i&gt;&lt;/font&gt;&lt;/div&gt;&lt;div style=&quot;font-size: 11px&quot; align=&quot;center&quot;&gt;&lt;font style=&quot;font-size: 11px&quot;&gt;&lt;i&gt;&lt;font style=&quot;font-size: 11px&quot;&gt;Nanopolish&lt;/font&gt;&lt;/i&gt;&lt;/font&gt;&lt;/div&gt;" style="text;html=1;resizable=0;points=[];autosize=1;align=center;verticalAlign=top;spacingTop=-4;" parent="McBSHpG4WVqiw0yZyUEy-1" vertex="1">
          
          <mxGeometry x="236" y="342" width="72" height="28" as="geometry" />
          
        </mxCell>
        
        <mxCell id="McBSHpG4WVqiw0yZyUEy-26" style="edgeStyle=orthogonalEdgeStyle;rounded=0;orthogonalLoop=1;jettySize=auto;html=1;exitX=1;exitY=0.5;exitDx=0;exitDy=0;entryX=0;entryY=0.5;entryDx=0;entryDy=0;" parent="McBSHpG4WVqiw0yZyUEy-1" source="McBSHpG4WVqiw0yZyUEy-27" target="McBSHpG4WVqiw0yZyUEy-29" edge="1">
          
          <mxGeometry relative="1" as="geometry" />
          
        </mxCell>
        
        <mxCell id="McBSHpG4WVqiw0yZyUEy-27" value="Trim Alignments&lt;br&gt;&lt;div&gt;&lt;i&gt;[Artic_c trim]&lt;br&gt;&lt;/i&gt;&lt;/div&gt;" style="rounded=1;whiteSpace=wrap;html=1;" parent="McBSHpG4WVqiw0yZyUEy-1" vertex="1">
          
          <mxGeometry x="549" y="20" width="110" height="50" as="geometry" />
          
        </mxCell>
        
        <mxCell id="McBSHpG4WVqiw0yZyUEy-28" value="" style="edgeStyle=orthogonalEdgeStyle;rounded=0;orthogonalLoop=1;jettySize=auto;html=1;" parent="McBSHpG4WVqiw0yZyUEy-1" source="McBSHpG4WVqiw0yZyUEy-29" target="McBSHpG4WVqiw0yZyUEy-32" edge="1">
          
          <mxGeometry relative="1" as="geometry" />
          
        </mxCell>
        
        <mxCell id="McBSHpG4WVqiw0yZyUEy-29" value="Sort Alignments&lt;br&gt;&lt;div&gt;&lt;i&gt;[Samtools]&lt;br&gt;&lt;/i&gt;&lt;/div&gt;" style="rounded=1;whiteSpace=wrap;html=1;" parent="McBSHpG4WVqiw0yZyUEy-1" vertex="1">
          
          <mxGeometry x="706" y="20" width="110" height="50" as="geometry" />
          
        </mxCell>
        
        <mxCell id="McBSHpG4WVqiw0yZyUEy-30" style="edgeStyle=orthogonalEdgeStyle;rounded=0;orthogonalLoop=1;jettySize=auto;html=1;exitX=0;exitY=0.5;exitDx=0;exitDy=0;entryX=1;entryY=0.5;entryDx=0;entryDy=0;" parent="McBSHpG4WVqiw0yZyUEy-1" source="McBSHpG4WVqiw0yZyUEy-32" target="McBSHpG4WVqiw0yZyUEy-33" edge="1">
          
          <mxGeometry relative="1" as="geometry" />
          
        </mxCell>
        
        <mxCell id="McBSHpG4WVqiw0yZyUEy-31" value="" style="edgeStyle=orthogonalEdgeStyle;rounded=0;orthogonalLoop=1;jettySize=auto;html=1;" parent="McBSHpG4WVqiw0yZyUEy-1" source="McBSHpG4WVqiw0yZyUEy-32" target="McBSHpG4WVqiw0yZyUEy-45" edge="1">
          
          <mxGeometry relative="1" as="geometry" />
          
        </mxCell>
        
        <mxCell id="McBSHpG4WVqiw0yZyUEy-32" value="Index Sorted Alignments&lt;br&gt;&lt;div&gt;&lt;i&gt;[Samtools]&lt;br&gt;&lt;/i&gt;&lt;/div&gt;" style="rounded=1;whiteSpace=wrap;html=1;" parent="McBSHpG4WVqiw0yZyUEy-1" vertex="1">
          
          <mxGeometry x="706" y="178" width="110" height="50" as="geometry" />
          
        </mxCell>
        
        <mxCell id="McBSHpG4WVqiw0yZyUEy-33" value="&lt;div&gt;Call Variants&lt;br&gt;&lt;/div&gt;&lt;div&gt;&lt;i&gt;[Nanopolish]&lt;/i&gt;&lt;/div&gt;" style="rounded=1;whiteSpace=wrap;html=1;" parent="McBSHpG4WVqiw0yZyUEy-1" vertex="1">
          
          <mxGeometry x="398" y="178" width="110" height="50" as="geometry" />
          
        </mxCell>
        
        <mxCell id="McBSHpG4WVqiw0yZyUEy-34" style="edgeStyle=orthogonalEdgeStyle;rounded=0;orthogonalLoop=1;jettySize=auto;html=1;exitX=0.5;exitY=1;exitDx=0;exitDy=0;entryX=0.5;entryY=0;entryDx=0;entryDy=0;" parent="McBSHpG4WVqiw0yZyUEy-1" source="McBSHpG4WVqiw0yZyUEy-35" target="McBSHpG4WVqiw0yZyUEy-38" edge="1">
          
          <mxGeometry relative="1" as="geometry" />
          
        </mxCell>
        
        <mxCell id="McBSHpG4WVqiw0yZyUEy-35" value="Modify VCFs&#39; header if necessary&lt;br&gt;&lt;div&gt;&lt;i&gt;[Bcftools]&lt;br&gt;&lt;/i&gt;&lt;/div&gt;" style="rounded=1;whiteSpace=wrap;html=1;" parent="McBSHpG4WVqiw0yZyUEy-1" vertex="1">
          
          <mxGeometry x="392" y="320" width="110" height="50" as="geometry" />
          
        </mxCell>
        
        <mxCell id="McBSHpG4WVqiw0yZyUEy-36" style="edgeStyle=orthogonalEdgeStyle;rounded=0;orthogonalLoop=1;jettySize=auto;html=1;exitX=1;exitY=0.5;exitDx=0;exitDy=0;entryX=0;entryY=0.5;entryDx=0;entryDy=0;" parent="McBSHpG4WVqiw0yZyUEy-1" source="McBSHpG4WVqiw0yZyUEy-38" target="McBSHpG4WVqiw0yZyUEy-47" edge="1">
          
          <mxGeometry relative="1" as="geometry" />
          
        </mxCell>
        
        <mxCell id="McBSHpG4WVqiw0yZyUEy-37" style="edgeStyle=orthogonalEdgeStyle;rounded=0;orthogonalLoop=1;jettySize=auto;html=1;exitX=0.5;exitY=1;exitDx=0;exitDy=0;entryX=0.5;entryY=0;entryDx=0;entryDy=0;" parent="McBSHpG4WVqiw0yZyUEy-1" source="McBSHpG4WVqiw0yZyUEy-38" target="McBSHpG4WVqiw0yZyUEy-41" edge="1">
          
          <mxGeometry relative="1" as="geometry" />
          
        </mxCell>
        
        <mxCell id="McBSHpG4WVqiw0yZyUEy-38" value="Concatenate VCFs &lt;br&gt;&lt;div&gt;&lt;i&gt;[Bcftools]&lt;br&gt;&lt;/i&gt;&lt;/div&gt;" style="rounded=1;whiteSpace=wrap;html=1;" parent="McBSHpG4WVqiw0yZyUEy-1" vertex="1">
          
          <mxGeometry x="392" y="397" width="110" height="50" as="geometry" />
          
        </mxCell>
        
        <mxCell id="McBSHpG4WVqiw0yZyUEy-39" value="&lt;div&gt;&lt;i&gt;Use multiple windows&lt;/i&gt;&lt;/div&gt;&lt;div&gt;&lt;i&gt;if RAM is not enough&lt;br&gt;&lt;/i&gt;&lt;/div&gt;" style="text;html=1;resizable=0;points=[];autosize=1;align=center;verticalAlign=top;spacingTop=-4;" parent="McBSHpG4WVqiw0yZyUEy-1" vertex="1">
          
          <mxGeometry x="396" y="140" width="125" height="28" as="geometry" />
          
        </mxCell>
        
        <mxCell id="McBSHpG4WVqiw0yZyUEy-40" style="edgeStyle=orthogonalEdgeStyle;rounded=0;orthogonalLoop=1;jettySize=auto;html=1;exitX=0.5;exitY=1;exitDx=0;exitDy=0;" parent="McBSHpG4WVqiw0yZyUEy-1" source="McBSHpG4WVqiw0yZyUEy-41" target="McBSHpG4WVqiw0yZyUEy-43" edge="1">
          
          <mxGeometry relative="1" as="geometry" />
          
        </mxCell>
        
        <mxCell id="McBSHpG4WVqiw0yZyUEy-41" value="&lt;font style=&quot;font-size: 11px&quot;&gt;Convert VCF to BCF&lt;/font&gt; &lt;br&gt;&lt;div&gt;&lt;i&gt;[Bcftools]&lt;br&gt;&lt;/i&gt;&lt;/div&gt;" style="rounded=1;whiteSpace=wrap;html=1;" parent="McBSHpG4WVqiw0yZyUEy-1" vertex="1">
          
          <mxGeometry x="392" y="477" width="110" height="50" as="geometry" />
          
        </mxCell>
        
        <mxCell id="McBSHpG4WVqiw0yZyUEy-42" style="edgeStyle=orthogonalEdgeStyle;rounded=0;orthogonalLoop=1;jettySize=auto;html=1;exitX=0.5;exitY=1;exitDx=0;exitDy=0;entryX=0.5;entryY=0;entryDx=0;entryDy=0;" parent="McBSHpG4WVqiw0yZyUEy-1" source="McBSHpG4WVqiw0yZyUEy-43" target="McBSHpG4WVqiw0yZyUEy-53" edge="1">
          
          <mxGeometry relative="1" as="geometry" />
          
        </mxCell>
        
        <mxCell id="McBSHpG4WVqiw0yZyUEy-43" value="Index VCFs &lt;br&gt;&lt;div&gt;&lt;i&gt;[Bcftools]&lt;br&gt;&lt;/i&gt;&lt;/div&gt;" style="rounded=1;whiteSpace=wrap;html=1;" parent="McBSHpG4WVqiw0yZyUEy-1" vertex="1">
          
          <mxGeometry x="392" y="553" width="110" height="50" as="geometry" />
          
        </mxCell>
        
        <mxCell id="McBSHpG4WVqiw0yZyUEy-44" style="edgeStyle=orthogonalEdgeStyle;rounded=0;orthogonalLoop=1;jettySize=auto;html=1;exitX=0.5;exitY=1;exitDx=0;exitDy=0;entryX=0.5;entryY=0;entryDx=0;entryDy=0;" parent="McBSHpG4WVqiw0yZyUEy-1" source="McBSHpG4WVqiw0yZyUEy-45" target="McBSHpG4WVqiw0yZyUEy-51" edge="1">
          
          <mxGeometry relative="1" as="geometry" />
          
        </mxCell>
        
        <mxCell id="McBSHpG4WVqiw0yZyUEy-45" value="&lt;font style=&quot;font-size: 9px&quot;&gt;Calculate Coverage/Depth of Alignments&lt;/font&gt;&lt;font style=&quot;font-size: 9px&quot;&gt;&lt;br&gt;&lt;/font&gt;&lt;div style=&quot;font-size: 9px&quot;&gt;&lt;font style=&quot;font-size: 9px&quot;&gt;&lt;i&gt;[Samtools]&lt;br&gt;&lt;/i&gt;&lt;/font&gt;&lt;/div&gt;" style="rounded=1;whiteSpace=wrap;html=1;" parent="McBSHpG4WVqiw0yZyUEy-1" vertex="1">
          
          <mxGeometry x="706" y="302" width="110" height="50" as="geometry" />
          
        </mxCell>
        
        <mxCell id="McBSHpG4WVqiw0yZyUEy-46" style="edgeStyle=orthogonalEdgeStyle;rounded=0;orthogonalLoop=1;jettySize=auto;html=1;exitX=0.5;exitY=1;exitDx=0;exitDy=0;entryX=0.75;entryY=0;entryDx=0;entryDy=0;" parent="McBSHpG4WVqiw0yZyUEy-1" source="McBSHpG4WVqiw0yZyUEy-47" target="McBSHpG4WVqiw0yZyUEy-53" edge="1">
          
          <mxGeometry relative="1" as="geometry">
            
            <Array as="points">
              
              <mxPoint x="587" y="615" />
              
              <mxPoint x="474" y="615" />
              
            </Array>
            
          </mxGeometry>
          
        </mxCell>
        
        <mxCell id="McBSHpG4WVqiw0yZyUEy-47" value="Query VCF to extract bad variants&lt;br&gt;&lt;div&gt;&lt;i&gt;[Bcftools]&lt;br&gt;&lt;/i&gt;&lt;/div&gt;" style="rounded=1;whiteSpace=wrap;html=1;" parent="McBSHpG4WVqiw0yZyUEy-1" vertex="1">
          
          <mxGeometry x="532" y="397" width="110" height="50" as="geometry" />
          
        </mxCell>
        
        <mxCell id="McBSHpG4WVqiw0yZyUEy-48" style="edgeStyle=orthogonalEdgeStyle;rounded=0;orthogonalLoop=1;jettySize=auto;html=1;exitX=0.5;exitY=0;exitDx=0;exitDy=0;entryX=0.5;entryY=1;entryDx=0;entryDy=0;" parent="McBSHpG4WVqiw0yZyUEy-1" source="McBSHpG4WVqiw0yZyUEy-49" target="McBSHpG4WVqiw0yZyUEy-55" edge="1">
          
          <mxGeometry relative="1" as="geometry" />
          
        </mxCell>
        
        <mxCell id="McBSHpG4WVqiw0yZyUEy-49" value="Bases to be marked ambiguous in a .bed file" style="rounded=1;whiteSpace=wrap;html=1;fillColor=#ffe6cc;strokeColor=#d79b00;" parent="McBSHpG4WVqiw0yZyUEy-1" vertex="1">
          
          <mxGeometry x="549" y="711" width="110" height="50" as="geometry" />
          
        </mxCell>
        
        <mxCell id="McBSHpG4WVqiw0yZyUEy-50" style="edgeStyle=orthogonalEdgeStyle;rounded=0;orthogonalLoop=1;jettySize=auto;html=1;exitX=0.5;exitY=1;exitDx=0;exitDy=0;entryX=0.5;entryY=0;entryDx=0;entryDy=0;" parent="McBSHpG4WVqiw0yZyUEy-1" source="McBSHpG4WVqiw0yZyUEy-51" target="McBSHpG4WVqiw0yZyUEy-57" edge="1">
          
          <mxGeometry relative="1" as="geometry" />
          
        </mxCell>
        
        <mxCell id="McBSHpG4WVqiw0yZyUEy-51" value="Create mask bed file&lt;br&gt;&lt;div&gt;&lt;i&gt;[Artic_c mask]&lt;br&gt;&lt;/i&gt;&lt;/div&gt;" style="rounded=1;whiteSpace=wrap;html=1;" parent="McBSHpG4WVqiw0yZyUEy-1" vertex="1">
          
          <mxGeometry x="706" y="447" width="110" height="50" as="geometry" />
          
        </mxCell>
        
        <mxCell id="McBSHpG4WVqiw0yZyUEy-52" style="edgeStyle=orthogonalEdgeStyle;rounded=0;orthogonalLoop=1;jettySize=auto;html=1;exitX=1;exitY=0.5;exitDx=0;exitDy=0;entryX=0;entryY=0.5;entryDx=0;entryDy=0;" parent="McBSHpG4WVqiw0yZyUEy-1" source="McBSHpG4WVqiw0yZyUEy-53" target="McBSHpG4WVqiw0yZyUEy-55" edge="1">
          
          <mxGeometry relative="1" as="geometry" />
          
        </mxCell>
        
        <mxCell id="McBSHpG4WVqiw0yZyUEy-53" value="Build Consensus&lt;br&gt;&lt;div&gt;&lt;i&gt;[Bcftools]&lt;br&gt;&lt;/i&gt;&lt;/div&gt;" style="rounded=1;whiteSpace=wrap;html=1;" parent="McBSHpG4WVqiw0yZyUEy-1" vertex="1">
          
          <mxGeometry x="392" y="634" width="110" height="50" as="geometry" />
          
        </mxCell>
        
        <mxCell id="McBSHpG4WVqiw0yZyUEy-54" style="edgeStyle=orthogonalEdgeStyle;rounded=0;orthogonalLoop=1;jettySize=auto;html=1;exitX=1;exitY=0.5;exitDx=0;exitDy=0;entryX=0;entryY=0.5;entryDx=0;entryDy=0;" parent="McBSHpG4WVqiw0yZyUEy-1" source="McBSHpG4WVqiw0yZyUEy-55" target="McBSHpG4WVqiw0yZyUEy-57" edge="1">
          
          <mxGeometry relative="1" as="geometry" />
          
        </mxCell>
        
        <mxCell id="McBSHpG4WVqiw0yZyUEy-55" value="Build Consensus&lt;br&gt;&lt;div&gt;&lt;i&gt;[Bcftools]&lt;br&gt;&lt;/i&gt;&lt;/div&gt;" style="rounded=1;whiteSpace=wrap;html=1;" parent="McBSHpG4WVqiw0yZyUEy-1" vertex="1">
          
          <mxGeometry x="549" y="634" width="110" height="50" as="geometry" />
          
        </mxCell>
        
        <mxCell id="McBSHpG4WVqiw0yZyUEy-56" style="edgeStyle=orthogonalEdgeStyle;rounded=0;orthogonalLoop=1;jettySize=auto;html=1;exitX=0.5;exitY=1;exitDx=0;exitDy=0;entryX=0.5;entryY=0;entryDx=0;entryDy=0;" parent="McBSHpG4WVqiw0yZyUEy-1" source="McBSHpG4WVqiw0yZyUEy-57" target="McBSHpG4WVqiw0yZyUEy-58" edge="1">
          
          <mxGeometry relative="1" as="geometry" />
          
        </mxCell>
        
        <mxCell id="McBSHpG4WVqiw0yZyUEy-57" value="Build Consensus&lt;br&gt;&lt;div&gt;&lt;i&gt;[Bcftools]&lt;br&gt;&lt;/i&gt;&lt;/div&gt;" style="rounded=1;whiteSpace=wrap;html=1;" parent="McBSHpG4WVqiw0yZyUEy-1" vertex="1">
          
          <mxGeometry x="706" y="634" width="110" height="50" as="geometry" />
          
        </mxCell>
        
        <mxCell id="McBSHpG4WVqiw0yZyUEy-58" value="Consensus output" style="rounded=1;whiteSpace=wrap;html=1;fillColor=#ffe6cc;strokeColor=#d79b00;" parent="McBSHpG4WVqiw0yZyUEy-1" vertex="1">
          
          <mxGeometry x="706" y="711" width="110" height="50" as="geometry" />
          
        </mxCell>
        
      </root>
      
    </mxGraphModel>
    
  </diagram>
  <diagram id="MbRl12zYfKV8H3mTUT4O" name="reconstruction">
    
    <mxGraphModel dx="811" dy="495" grid="0" gridSize="10" guides="1" tooltips="1" connect="1" arrows="1" fold="1" page="1" pageScale="1" pageWidth="827" pageHeight="470" math="0" shadow="0">
      
      <root>
        
        <mxCell id="qZR6AxlTGpKhOwOywyyO-0" />
        
        <mxCell id="qZR6AxlTGpKhOwOywyyO-1" parent="qZR6AxlTGpKhOwOywyyO-0" />
        
        <mxCell id="qZR6AxlTGpKhOwOywyyO-20" style="edgeStyle=orthogonalEdgeStyle;rounded=0;orthogonalLoop=1;jettySize=auto;html=1;exitX=0.75;exitY=1;exitDx=0;exitDy=0;entryX=0.5;entryY=0;entryDx=0;entryDy=0;" parent="qZR6AxlTGpKhOwOywyyO-1" source="qZR6AxlTGpKhOwOywyyO-2" target="qZR6AxlTGpKhOwOywyyO-4" edge="1">
          
          <mxGeometry relative="1" as="geometry">
            
            <Array as="points">
              
              <mxPoint x="129" y="80" />
              
              <mxPoint x="404" y="80" />
              
            </Array>
            
            <mxPoint x="411" y="85" as="targetPoint" />
            
          </mxGeometry>
          
        </mxCell>
        
        <mxCell id="qZR6AxlTGpKhOwOywyyO-21" style="edgeStyle=orthogonalEdgeStyle;rounded=0;orthogonalLoop=1;jettySize=auto;html=1;exitX=1;exitY=0.5;exitDx=0;exitDy=0;entryX=0;entryY=0.5;entryDx=0;entryDy=0;" parent="qZR6AxlTGpKhOwOywyyO-1" source="qZR6AxlTGpKhOwOywyyO-2" target="qZR6AxlTGpKhOwOywyyO-5" edge="1">
          
          <mxGeometry relative="1" as="geometry" />
          
        </mxCell>
        
        <mxCell id="qZR6AxlTGpKhOwOywyyO-67" style="edgeStyle=orthogonalEdgeStyle;rounded=0;orthogonalLoop=1;jettySize=auto;html=1;exitX=0.25;exitY=1;exitDx=0;exitDy=0;entryX=0.25;entryY=0;entryDx=0;entryDy=0;" parent="qZR6AxlTGpKhOwOywyyO-1" source="qZR6AxlTGpKhOwOywyyO-2" target="qZR6AxlTGpKhOwOywyyO-3" edge="1">
          
          <mxGeometry relative="1" as="geometry" />
          
        </mxCell>
        
        <mxCell id="qZR6AxlTGpKhOwOywyyO-2" value="Original executable tool [ex:f5c]" style="rounded=0;whiteSpace=wrap;html=1;" parent="qZR6AxlTGpKhOwOywyyO-1" vertex="1">
          
          <mxGeometry x="39" y="5" width="120" height="60" as="geometry" />
          
        </mxCell>
        
        <mxCell id="qZR6AxlTGpKhOwOywyyO-17" style="edgeStyle=orthogonalEdgeStyle;rounded=0;orthogonalLoop=1;jettySize=auto;html=1;exitX=1;exitY=0.5;exitDx=0;exitDy=0;entryX=0;entryY=0.5;entryDx=0;entryDy=0;" parent="qZR6AxlTGpKhOwOywyyO-1" source="qZR6AxlTGpKhOwOywyyO-3" target="qZR6AxlTGpKhOwOywyyO-8" edge="1">
          
          <mxGeometry relative="1" as="geometry" />
          
        </mxCell>
        
        <mxCell id="qZR6AxlTGpKhOwOywyyO-3" value="3&lt;sup&gt;rd&lt;/sup&gt; party libraries" style="rounded=0;whiteSpace=wrap;html=1;" parent="qZR6AxlTGpKhOwOywyyO-1" vertex="1">
          
          <mxGeometry x="39" y="95" width="120" height="60" as="geometry" />
          
        </mxCell>
        
        <mxCell id="qZR6AxlTGpKhOwOywyyO-25" style="edgeStyle=orthogonalEdgeStyle;rounded=0;orthogonalLoop=1;jettySize=auto;html=1;exitX=1;exitY=0.5;exitDx=0;exitDy=0;entryX=0;entryY=0.5;entryDx=0;entryDy=0;" parent="qZR6AxlTGpKhOwOywyyO-1" source="qZR6AxlTGpKhOwOywyyO-4" target="qZR6AxlTGpKhOwOywyyO-15" edge="1">
          
          <mxGeometry relative="1" as="geometry" />
          
        </mxCell>
        
        <mxCell id="qZR6AxlTGpKhOwOywyyO-4" value="&lt;div&gt;System libraries [ex:libz]&lt;br&gt;&lt;/div&gt;" style="rounded=0;whiteSpace=wrap;html=1;" parent="qZR6AxlTGpKhOwOywyyO-1" vertex="1">
          
          <mxGeometry x="344" y="95" width="120" height="60" as="geometry" />
          
        </mxCell>
        
        <mxCell id="qZR6AxlTGpKhOwOywyyO-22" style="edgeStyle=orthogonalEdgeStyle;rounded=0;orthogonalLoop=1;jettySize=auto;html=1;exitX=1;exitY=0.5;exitDx=0;exitDy=0;entryX=0;entryY=0.5;entryDx=0;entryDy=0;" parent="qZR6AxlTGpKhOwOywyyO-1" source="qZR6AxlTGpKhOwOywyyO-5" target="qZR6AxlTGpKhOwOywyyO-7" edge="1">
          
          <mxGeometry relative="1" as="geometry" />
          
        </mxCell>
        
        <mxCell id="qZR6AxlTGpKhOwOywyyO-5" value="Modify &amp;amp; compile source files" style="rounded=0;whiteSpace=wrap;html=1;" parent="qZR6AxlTGpKhOwOywyyO-1" vertex="1">
          
          <mxGeometry x="189" y="5" width="120" height="60" as="geometry" />
          
        </mxCell>
        
        <mxCell id="qZR6AxlTGpKhOwOywyyO-23" style="edgeStyle=orthogonalEdgeStyle;rounded=0;orthogonalLoop=1;jettySize=auto;html=1;exitX=1;exitY=0.5;exitDx=0;exitDy=0;entryX=0;entryY=0.5;entryDx=0;entryDy=0;" parent="qZR6AxlTGpKhOwOywyyO-1" source="qZR6AxlTGpKhOwOywyyO-7" target="qZR6AxlTGpKhOwOywyyO-13" edge="1">
          
          <mxGeometry relative="1" as="geometry" />
          
        </mxCell>
        
        <mxCell id="qZR6AxlTGpKhOwOywyyO-7" value="Create a shared library using compiled objects" style="rounded=0;whiteSpace=wrap;html=1;" parent="qZR6AxlTGpKhOwOywyyO-1" vertex="1">
          
          <mxGeometry x="339" y="5" width="120" height="60" as="geometry" />
          
        </mxCell>
        
        <mxCell id="qZR6AxlTGpKhOwOywyyO-58" style="edgeStyle=orthogonalEdgeStyle;rounded=0;orthogonalLoop=1;jettySize=auto;html=1;exitX=0.5;exitY=1;exitDx=0;exitDy=0;entryX=0.661;entryY=-0.064;entryDx=0;entryDy=0;entryPerimeter=0;" parent="qZR6AxlTGpKhOwOywyyO-1" source="qZR6AxlTGpKhOwOywyyO-8" target="qZR6AxlTGpKhOwOywyyO-10" edge="1">
          
          <mxGeometry relative="1" as="geometry" />
          
        </mxCell>
        
        <mxCell id="qZR6AxlTGpKhOwOywyyO-59" style="edgeStyle=orthogonalEdgeStyle;rounded=0;orthogonalLoop=1;jettySize=auto;html=1;exitX=1;exitY=0.5;exitDx=0;exitDy=0;entryX=0.5;entryY=0;entryDx=0;entryDy=0;" parent="qZR6AxlTGpKhOwOywyyO-1" source="qZR6AxlTGpKhOwOywyyO-8" target="qZR6AxlTGpKhOwOywyyO-9" edge="1">
          
          <mxGeometry relative="1" as="geometry">
            
            <Array as="points">
              
              <mxPoint x="289" y="173" />
              
              <mxPoint x="464" y="173" />
              
            </Array>
            
          </mxGeometry>
          
        </mxCell>
        
        <mxCell id="qZR6AxlTGpKhOwOywyyO-8" value="Can cross compile?" style="rhombus;whiteSpace=wrap;html=1;" parent="qZR6AxlTGpKhOwOywyyO-1" vertex="1">
          
          <mxGeometry x="209" y="85" width="80" height="80" as="geometry" />
          
        </mxCell>
        
        <mxCell id="qZR6AxlTGpKhOwOywyyO-65" style="edgeStyle=orthogonalEdgeStyle;rounded=0;orthogonalLoop=1;jettySize=auto;html=1;exitX=1;exitY=0.5;exitDx=0;exitDy=0;entryX=0;entryY=0.5;entryDx=0;entryDy=0;" parent="qZR6AxlTGpKhOwOywyyO-1" source="qZR6AxlTGpKhOwOywyyO-9" target="qZR6AxlTGpKhOwOywyyO-14" edge="1">
          
          <mxGeometry relative="1" as="geometry" />
          
        </mxCell>
        
        <mxCell id="qZR6AxlTGpKhOwOywyyO-9" value="Cross Compile to build static/dynamic libraries " style="rounded=0;whiteSpace=wrap;html=1;" parent="qZR6AxlTGpKhOwOywyyO-1" vertex="1">
          
          <mxGeometry x="392.5" y="189.5" width="143" height="60" as="geometry" />
          
        </mxCell>
        
        <mxCell id="qZR6AxlTGpKhOwOywyyO-26" style="edgeStyle=orthogonalEdgeStyle;rounded=0;orthogonalLoop=1;jettySize=auto;html=1;exitX=0.5;exitY=1;exitDx=0;exitDy=0;entryX=0.5;entryY=1;entryDx=0;entryDy=0;" parent="qZR6AxlTGpKhOwOywyyO-1" source="qZR6AxlTGpKhOwOywyyO-10" target="qZR6AxlTGpKhOwOywyyO-14" edge="1">
          
          <mxGeometry relative="1" as="geometry">
            
            <Array as="points">
              
              <mxPoint x="198" y="263" />
              
              <mxPoint x="699" y="263" />
              
            </Array>
            
          </mxGeometry>
          
        </mxCell>
        
        <mxCell id="qZR6AxlTGpKhOwOywyyO-10" value="&lt;div&gt;Compile using Linux environment on Android (Termux) &lt;br&gt;&lt;/div&gt;&lt;div&gt;or using ARM based single board computer (Odroid XO4)&lt;/div&gt;&amp;nbsp;[ex:hdf5]" style="rounded=0;whiteSpace=wrap;html=1;" parent="qZR6AxlTGpKhOwOywyyO-1" vertex="1">
          
          <mxGeometry x="39" y="189.5" width="318" height="60" as="geometry" />
          
        </mxCell>
        
        <mxCell id="qZR6AxlTGpKhOwOywyyO-30" style="edgeStyle=orthogonalEdgeStyle;rounded=0;orthogonalLoop=1;jettySize=auto;html=1;exitX=1;exitY=0.5;exitDx=0;exitDy=0;entryX=1;entryY=0.5;entryDx=0;entryDy=0;" parent="qZR6AxlTGpKhOwOywyyO-1" source="qZR6AxlTGpKhOwOywyyO-12" target="qZR6AxlTGpKhOwOywyyO-29" edge="1">
          
          <mxGeometry relative="1" as="geometry" />
          
        </mxCell>
        
        <mxCell id="qZR6AxlTGpKhOwOywyyO-12" value="Link with 3&lt;sup&gt;rd&lt;/sup&gt; party libraries" style="rounded=0;whiteSpace=wrap;html=1;" parent="qZR6AxlTGpKhOwOywyyO-1" vertex="1">
          
          <mxGeometry x="639" y="5" width="120" height="60" as="geometry" />
          
        </mxCell>
        
        <mxCell id="qZR6AxlTGpKhOwOywyyO-24" style="edgeStyle=orthogonalEdgeStyle;rounded=0;orthogonalLoop=1;jettySize=auto;html=1;exitX=1;exitY=0.5;exitDx=0;exitDy=0;entryX=0;entryY=0.5;entryDx=0;entryDy=0;" parent="qZR6AxlTGpKhOwOywyyO-1" source="qZR6AxlTGpKhOwOywyyO-13" target="qZR6AxlTGpKhOwOywyyO-12" edge="1">
          
          <mxGeometry relative="1" as="geometry" />
          
        </mxCell>
        
        <mxCell id="qZR6AxlTGpKhOwOywyyO-13" value="Link with system libraries" style="rounded=0;whiteSpace=wrap;html=1;" parent="qZR6AxlTGpKhOwOywyyO-1" vertex="1">
          
          <mxGeometry x="489" y="5" width="120" height="60" as="geometry" />
          
        </mxCell>
        
        <mxCell id="qZR6AxlTGpKhOwOywyyO-28" style="edgeStyle=orthogonalEdgeStyle;rounded=0;orthogonalLoop=1;jettySize=auto;html=1;exitX=0.5;exitY=0;exitDx=0;exitDy=0;entryX=0.5;entryY=1;entryDx=0;entryDy=0;" parent="qZR6AxlTGpKhOwOywyyO-1" source="qZR6AxlTGpKhOwOywyyO-14" target="qZR6AxlTGpKhOwOywyyO-12" edge="1">
          
          <mxGeometry relative="1" as="geometry" />
          
        </mxCell>
        
        <mxCell id="qZR6AxlTGpKhOwOywyyO-14" value="Android compatible 3&lt;sup&gt;rd&lt;/sup&gt; party static/dynamic libraries" style="rounded=0;whiteSpace=wrap;html=1;" parent="qZR6AxlTGpKhOwOywyyO-1" vertex="1">
          
          <mxGeometry x="631.5" y="189.5" width="135" height="60" as="geometry" />
          
        </mxCell>
        
        <mxCell id="qZR6AxlTGpKhOwOywyyO-38" style="edgeStyle=orthogonalEdgeStyle;rounded=0;orthogonalLoop=1;jettySize=auto;html=1;exitX=0.5;exitY=0;exitDx=0;exitDy=0;entryX=0.5;entryY=1;entryDx=0;entryDy=0;" parent="qZR6AxlTGpKhOwOywyyO-1" source="qZR6AxlTGpKhOwOywyyO-15" target="qZR6AxlTGpKhOwOywyyO-13" edge="1">
          
          <mxGeometry relative="1" as="geometry" />
          
        </mxCell>
        
        <mxCell id="qZR6AxlTGpKhOwOywyyO-15" value="Android compatible system libraries" style="rounded=0;whiteSpace=wrap;html=1;" parent="qZR6AxlTGpKhOwOywyyO-1" vertex="1">
          
          <mxGeometry x="489" y="95" width="120" height="60" as="geometry" />
          
        </mxCell>
        
        <mxCell id="qZR6AxlTGpKhOwOywyyO-48" style="edgeStyle=orthogonalEdgeStyle;rounded=0;orthogonalLoop=1;jettySize=auto;html=1;exitX=0.75;exitY=1;exitDx=0;exitDy=0;entryX=0.75;entryY=0;entryDx=0;entryDy=0;" parent="qZR6AxlTGpKhOwOywyyO-1" source="qZR6AxlTGpKhOwOywyyO-29" target="qZR6AxlTGpKhOwOywyyO-40" edge="1">
          
          <mxGeometry relative="1" as="geometry" />
          
        </mxCell>
        
        <mxCell id="qZR6AxlTGpKhOwOywyyO-29" value="Android compatible shared librarry" style="rounded=0;whiteSpace=wrap;html=1;" parent="qZR6AxlTGpKhOwOywyyO-1" vertex="1">
          
          <mxGeometry x="336.5" y="268" width="120" height="60" as="geometry" />
          
        </mxCell>
        
        <mxCell id="qZR6AxlTGpKhOwOywyyO-31" value="" style="endArrow=none;dashed=1;html=1;" parent="qZR6AxlTGpKhOwOywyyO-1" edge="1">
          
          <mxGeometry width="50" height="50" relative="1" as="geometry">
            
            <mxPoint x="6.5" y="339" as="sourcePoint" />
            
            <mxPoint x="824" y="339" as="targetPoint" />
            
          </mxGeometry>
          
        </mxCell>
        
        <mxCell id="qZR6AxlTGpKhOwOywyyO-32" value="" style="endArrow=none;dashed=1;html=1;" parent="qZR6AxlTGpKhOwOywyyO-1" edge="1">
          
          <mxGeometry width="50" height="50" relative="1" as="geometry">
            
            <mxPoint x="6.5" y="415" as="sourcePoint" />
            
            <mxPoint x="824" y="415" as="targetPoint" />
            
          </mxGeometry>
          
        </mxCell>
        
        <mxCell id="qZR6AxlTGpKhOwOywyyO-33" value="C/C++" style="text;html=1;resizable=0;points=[];autosize=1;align=left;verticalAlign=top;spacingTop=-4;" parent="qZR6AxlTGpKhOwOywyyO-1" vertex="1">
          
          <mxGeometry x="41.5" y="320" width="50" height="20" as="geometry" />
          
        </mxCell>
        
        <mxCell id="qZR6AxlTGpKhOwOywyyO-36" value="JNI" style="text;html=1;resizable=0;points=[];autosize=1;align=left;verticalAlign=top;spacingTop=-4;" parent="qZR6AxlTGpKhOwOywyyO-1" vertex="1">
          
          <mxGeometry x="41.5" y="338" width="30" height="20" as="geometry" />
          
        </mxCell>
        
        <mxCell id="qZR6AxlTGpKhOwOywyyO-37" value="Java" style="text;html=1;resizable=0;points=[];autosize=1;align=left;verticalAlign=top;spacingTop=-4;" parent="qZR6AxlTGpKhOwOywyyO-1" vertex="1">
          
          <mxGeometry x="40.5" y="415" width="40" height="20" as="geometry" />
          
        </mxCell>
        
        <mxCell id="qZR6AxlTGpKhOwOywyyO-50" style="edgeStyle=orthogonalEdgeStyle;rounded=0;orthogonalLoop=1;jettySize=auto;html=1;exitX=0.75;exitY=1;exitDx=0;exitDy=0;entryX=0.75;entryY=0;entryDx=0;entryDy=0;" parent="qZR6AxlTGpKhOwOywyyO-1" source="qZR6AxlTGpKhOwOywyyO-40" target="qZR6AxlTGpKhOwOywyyO-41" edge="1">
          
          <mxGeometry relative="1" as="geometry" />
          
        </mxCell>
        
        <mxCell id="qZR6AxlTGpKhOwOywyyO-51" style="edgeStyle=orthogonalEdgeStyle;rounded=0;orthogonalLoop=1;jettySize=auto;html=1;exitX=1;exitY=0.25;exitDx=0;exitDy=0;entryX=0;entryY=0.25;entryDx=0;entryDy=0;" parent="qZR6AxlTGpKhOwOywyyO-1" source="qZR6AxlTGpKhOwOywyyO-40" target="qZR6AxlTGpKhOwOywyyO-42" edge="1">
          
          <mxGeometry relative="1" as="geometry" />
          
        </mxCell>
        
        <mxCell id="qZR6AxlTGpKhOwOywyyO-52" style="edgeStyle=orthogonalEdgeStyle;rounded=0;orthogonalLoop=1;jettySize=auto;html=1;exitX=0.25;exitY=0;exitDx=0;exitDy=0;entryX=0.25;entryY=1;entryDx=0;entryDy=0;" parent="qZR6AxlTGpKhOwOywyyO-1" source="qZR6AxlTGpKhOwOywyyO-40" target="qZR6AxlTGpKhOwOywyyO-29" edge="1">
          
          <mxGeometry relative="1" as="geometry" />
          
        </mxCell>
        
        <mxCell id="qZR6AxlTGpKhOwOywyyO-40" value="JNI Call" style="rounded=0;whiteSpace=wrap;html=1;" parent="qZR6AxlTGpKhOwOywyyO-1" vertex="1">
          
          <mxGeometry x="336.5" y="348" width="120" height="60" as="geometry" />
          
        </mxCell>
        
        <mxCell id="qZR6AxlTGpKhOwOywyyO-49" style="edgeStyle=orthogonalEdgeStyle;rounded=0;orthogonalLoop=1;jettySize=auto;html=1;exitX=0.25;exitY=0;exitDx=0;exitDy=0;entryX=0.25;entryY=1;entryDx=0;entryDy=0;" parent="qZR6AxlTGpKhOwOywyyO-1" source="qZR6AxlTGpKhOwOywyyO-41" target="qZR6AxlTGpKhOwOywyyO-40" edge="1">
          
          <mxGeometry relative="1" as="geometry" />
          
        </mxCell>
        
        <mxCell id="qZR6AxlTGpKhOwOywyyO-41" value="Java Call" style="rounded=0;whiteSpace=wrap;html=1;" parent="qZR6AxlTGpKhOwOywyyO-1" vertex="1">
          
          <mxGeometry x="337" y="425" width="120" height="41" as="geometry" />
          
        </mxCell>
        
        <mxCell id="qZR6AxlTGpKhOwOywyyO-47" style="edgeStyle=orthogonalEdgeStyle;rounded=0;orthogonalLoop=1;jettySize=auto;html=1;exitX=0;exitY=0.75;exitDx=0;exitDy=0;entryX=1;entryY=0.75;entryDx=0;entryDy=0;" parent="qZR6AxlTGpKhOwOywyyO-1" source="qZR6AxlTGpKhOwOywyyO-42" target="qZR6AxlTGpKhOwOywyyO-40" edge="1">
          
          <mxGeometry relative="1" as="geometry" />
          
        </mxCell>
        
        <mxCell id="qZR6AxlTGpKhOwOywyyO-42" value="&lt;div&gt;Handle SIGSEGV, exit calls&lt;/div&gt;&lt;div&gt;Reset argv variable &lt;br&gt;&lt;/div&gt;&lt;div&gt;Raise exceptions &lt;br&gt;&lt;/div&gt;" style="rounded=0;whiteSpace=wrap;html=1;" parent="qZR6AxlTGpKhOwOywyyO-1" vertex="1">
          
          <mxGeometry x="493" y="348" width="206" height="60" as="geometry" />
          
        </mxCell>
        
        <mxCell id="qZR6AxlTGpKhOwOywyyO-57" value="JNI" style="text;html=1;resizable=0;points=[];autosize=1;align=left;verticalAlign=top;spacingTop=-4;" parent="qZR6AxlTGpKhOwOywyyO-1" vertex="1">
          
          <mxGeometry x="41.5" y="395" width="30" height="20" as="geometry" />
          
        </mxCell>
        
        <mxCell id="qZR6AxlTGpKhOwOywyyO-61" value="yes" style="text;html=1;resizable=0;points=[];autosize=1;align=left;verticalAlign=top;spacingTop=-4;" parent="qZR6AxlTGpKhOwOywyyO-1" vertex="1">
          
          <mxGeometry x="291" y="137" width="29" height="14" as="geometry" />
          
        </mxCell>
        
        <mxCell id="qZR6AxlTGpKhOwOywyyO-62" value="no" style="text;html=1;resizable=0;points=[];autosize=1;align=left;verticalAlign=top;spacingTop=-4;" parent="qZR6AxlTGpKhOwOywyyO-1" vertex="1">
          
          <mxGeometry x="254" y="160" width="23" height="14" as="geometry" />
          
        </mxCell>
        
        <mxCell id="qZR6AxlTGpKhOwOywyyO-66" value="&lt;font style=&quot;font-size: 10px&quot;&gt;depends on&lt;/font&gt;" style="text;html=1;resizable=0;points=[];autosize=1;align=left;verticalAlign=top;spacingTop=-4;" parent="qZR6AxlTGpKhOwOywyyO-1" vertex="1">
          
          <mxGeometry x="45" y="66" width="62" height="15" as="geometry" />
          
        </mxCell>
        
        <mxCell id="w7v2NLoZWjMKLrbFVHCo-0" value="&lt;font style=&quot;font-size: 10px&quot;&gt;depends on&lt;/font&gt;" style="text;html=1;resizable=0;points=[];autosize=1;align=left;verticalAlign=top;spacingTop=-4;" parent="qZR6AxlTGpKhOwOywyyO-1" vertex="1">
          
          <mxGeometry x="152" y="63" width="62" height="15" as="geometry" />
          
        </mxCell>
        
      </root>
      
    </mxGraphModel>
    
  </diagram>
</mxfile>
